SplineFontDB: 3.2
FontName: Lubricantness-Black
FullName: Lubricantness Black
FamilyName: Lubricantness
Weight: Black
Copyright: Copyright (c) 2024, Zamero Type Foundry
UComments: "2024-9-15: Created with FontForge (http://fontforge.org)"
Version: 001.000
ItalicAngle: 0
UnderlinePosition: -100
UnderlineWidth: 50
Ascent: 800
Descent: 200
InvalidEm: 0
LayerCount: 2
Layer: 0 0 "Back" 1
Layer: 1 0 "Fore" 0
XUID: [1021 474 1118879153 2802]
StyleMap: 0x0000
FSType: 0
OS2Version: 0
OS2_WeightWidthSlopeOnly: 0
OS2_UseTypoMetrics: 1
CreationTime: 1726417385
ModificationTime: 1728356871
PfmFamily: 17
TTFWeight: 900
TTFWidth: 5
LineGap: 90
VLineGap: 90
OS2TypoAscent: 0
OS2TypoAOffset: 1
OS2TypoDescent: 0
OS2TypoDOffset: 1
OS2TypoLinegap: 90
OS2WinAscent: 0
OS2WinAOffset: 1
OS2WinDescent: 0
OS2WinDOffset: 1
HheadAscent: 0
HheadAOffset: 1
HheadDescent: 0
HheadDOffset: 1
OS2Vendor: 'ZAM '
Lookup: 1 0 0 "'dnom' Denominators lookup 0" { "'dnom' Denominators lookup 0 subtable"  } ['dnom' ('DFLT' <'dflt' > 'latn' <'dflt' > ) ]
Lookup: 1 0 0 "'numr' Numerators lookup 0" { "'numr' Numerators lookup 0 subtable"  } ['numr' ('DFLT' <'dflt' > 'latn' <'dflt' > ) ]
Lookup: 1 0 0 "'sinf' Scientific Inferiors lookup 0" { "'sinf' Scientific Inferiors lookup 0 subtable"  } ['sinf' ('DFLT' <'dflt' > 'latn' <'dflt' > ) ]
Lookup: 1 0 0 "'sups' Superscript lookup 0" { "'sups' Superscript lookup 0 subtable" ("superior") } ['sups' ('DFLT' <'dflt' > 'latn' <'dflt' > ) ]
Lookup: 258 0 0 "'kern' Horizontal Kerning in Latin lookup 1" { "'kern' Horizontal Kerning in Latin lookup 1-1" [150,15,2] } ['kern' ('DFLT' <'dflt' > 'latn' <'dflt' > ) ]
MarkAttachClasses: 1
DEI: 91125

StartChar: I
Encoding: 73 73 0
Width: 338
Flags: W
HStem: 0 21G<40 298> 711 20G<40 298>
VStem: 40 258<0 731>
LayerCount: 2
Fore
SplineSet
40 0 m 5
 40 731 l 5
 298 731 l 5
 298 0 l 5
 40 0 l 5
EndSplineSet
Validated: 1
EndChar

StartChar: O
Encoding: 79 79 1
Width: 795
Flags: W
HStem: -10.0664 106.351<354.989 440.373> 632.583 106.351<354.989 440.373>
VStem: 25 279.487<223.739 502.245> 490.513 279.487<223.739 502.245>
LayerCount: 2
Fore
SplineSet
304.487304688 361.704101562 m 0
 304.487304688 198.522231087 333.171628243 96.2841796875 397.697265625 96.2841796875 c 4
 461.083121888 96.2841796875 490.512695312 198.522231087 490.512695312 361.704101562 c 0
 490.512695312 528.211857423 461.083121888 632.583007812 397.697265625 632.583007812 c 0
 333.171628243 632.583007812 304.487304688 528.211857423 304.487304688 361.704101562 c 0
25 361.93359375 m 0
 25 592.322265625 170.055004151 738.93359375 398 738.93359375 c 0
 625.333333333 738.93359375 770 592.322265625 770 361.93359375 c 0
 770 134.599609375 625.333333333 -10.06640625 398 -10.06640625 c 0
 170.055004151 -10.06640625 25 134.599609375 25 361.93359375 c 0
EndSplineSet
Validated: 1
EndChar

StartChar: Q
Encoding: 81 81 2
Width: 795
Flags: W
HStem: -10.0664 106.351<354.989 440.373> 632.583 106.351<354.989 440.373>
VStem: 25 279.487<223.739 502.245> 338.5 126<-116.565 60> 490.513 279.487<223.739 502.245>
LayerCount: 2
Fore
SplineSet
338.5 60 m 5
 464.5 60 l 5
 464.5 13 l 6
 464.5 -79.5 494.5 -137 494.5 -137 c 5
 358.5 -137 l 5
 358.5 -137 338.5 -89.5 338.5 13 c 6
 338.5 60 l 5
EndSplineSet
Refer: 1 79 N 1 0 0 1 0 0 2
Validated: 5
EndChar

StartChar: H
Encoding: 72 72 3
Width: 758
Flags: W
HStem: 0 21G<40 298 460 718> 316 96<232 529> 711 20G<40 298 460 718>
VStem: 40 258<0 316 412 731> 232 66<316 412> 460 258<0 316 412 731> 460 69<316 412>
LayerCount: 2
Fore
SplineSet
40 0 m 5xf0
 40 731 l 5
 298 731 l 5
 298 0 l 5
 40 0 l 5xf0
460 0 m 5xe4
 460 731 l 5
 718 731 l 5
 718 0 l 5
 460 0 l 5xe4
232 412 m 5xea
 529 412 l 5
 529 316 l 5
 232 316 l 5
 232 412 l 5xea
EndSplineSet
Validated: 5
EndChar

StartChar: L
Encoding: 76 76 4
Width: 590
Flags: W
HStem: 0 106<298 575> 711 20G<40 298>
VStem: 40 258<106 731>
LayerCount: 2
Fore
SplineSet
40 0 m 5
 40 731 l 5
 298 731 l 5
 298 106 l 5
 575 106 l 5
 575 0 l 5
 40 0 l 5
EndSplineSet
Validated: 1
EndChar

StartChar: backslash
Encoding: 92 92 5
Width: 366
Flags: W
LayerCount: 2
Fore
SplineSet
365 -200 m 1
 255 -200 l 1
 1 781 l 1
 111 781 l 5
 365 -200 l 1
EndSplineSet
Validated: 1
EndChar

StartChar: exclam
Encoding: 33 33 6
Width: 278
Flags: W
HStem: -10.0664 191<60.8125 217.509> 711 20G<10 268>
VStem: 23.5 231<25.6924 144.798>
LayerCount: 2
Fore
SplineSet
23.5 84.93359375 m 4
 23.5 143.600585938 68.611328125 180.93359375 139.5 180.93359375 c 4
 209.77734375 180.93359375 254.5 143.600585938 254.5 84.93359375 c 4
 254.5 26.8779296875 209.77734375 -10.06640625 139.5 -10.06640625 c 4
 68.611328125 -10.06640625 23.5 26.8779296875 23.5 84.93359375 c 4
50 230 m 5
 10 731 l 1
 268 731 l 1
 228 230 l 5
 50 230 l 5
EndSplineSet
Validated: 1
EndChar

StartChar: F
Encoding: 70 70 7
Width: 590
Flags: W
HStem: 0 21G<40 298> 286 96<232 529> 625 106<298 575>
VStem: 40 258<0 286 382 625> 232 66<286 382>
LayerCount: 2
Fore
SplineSet
232 382 m 1xe8
 529 382 l 1
 529 286 l 1
 232 286 l 1
 232 382 l 1xe8
40 731 m 1xf0
 575 731 l 1
 575 625 l 1
 298 625 l 1
 298 0 l 1
 40 0 l 1
 40 731 l 1xf0
EndSplineSet
EndChar

StartChar: E
Encoding: 69 69 8
Width: 610
Flags: W
HStem: 0 106<298 595> 316 96<212 529> 625 106<298 595>
VStem: 212 86<316 412>
LayerCount: 2
Fore
SplineSet
212 412 m 5
 529 412 l 5
 529 316 l 5
 212 316 l 5
 212 412 l 5
40 731 m 5
 595 731 l 5
 595 625 l 5
 298 625 l 5
 298 106 l 5
 595 106 l 5
 595 0 l 5
 40 0 l 5
 40 731 l 5
EndSplineSet
Validated: 5
EndChar

StartChar: T
Encoding: 84 84 9
Width: 672
Flags: W
HStem: 0 21G<207 465> 625.008 106<15 207 465 657> 625.008 55.9922<207 465>
VStem: 207 258<0 681>
LayerCount: 2
Fore
SplineSet
657 625.0078125 m 5xd0
 15 625.0078125 l 5
 15 731.0078125 l 5
 657 731.0078125 l 5
 657 625.0078125 l 5xd0
207 0 m 5
 207 681 l 5
 465 681 l 5xb0
 465 0 l 5
 207 0 l 5
EndSplineSet
Validated: 5
EndChar

StartChar: N
Encoding: 78 78 10
Width: 718
Flags: W
HStem: 0 21G<40 178 525.541 678> 711 20G<40 192.415 540 678>
VStem: 40 138<0 304.187> 540 138<426.271 731>
LayerCount: 2
Fore
SplineSet
40 0 m 5
 40 731 l 5
 168 731 l 5
 540 426.271484375 l 5
 540 731 l 5
 678 731 l 5
 678 0 l 5
 550 0 l 5
 178 304.186523438 l 5
 178 0 l 5
 40 0 l 5
EndSplineSet
Validated: 1
EndChar

StartChar: M
Encoding: 77 77 11
Width: 818
Flags: W
HStem: 0 21G<40 178 520 778> 711 20G<40 174.565 582.824 778>
VStem: 40 138<0 350> 520 258<0 351>
LayerCount: 2
Fore
SplineSet
40 0 m 1
 40 731 l 1
 158 731 l 1
 375 469 l 5
 600 731 l 1
 778 731 l 1
 778 0 l 1
 520 0 l 1
 520 351 l 1
 346 165 l 5
 178 350 l 1
 178 0 l 1
 40 0 l 1
EndSplineSet
Validated: 1
EndChar

StartChar: P
Encoding: 80 80 12
Width: 710
Flags: W
HStem: 0 21G<40 298> 241.957 102.301<228 394.727> 624.69 106.307<298 389.281>
VStem: 40 258<0 241.957 344.258 624.69> 228 70<241.957 344.258> 445.513 239.487<395.048 575.04>
LayerCount: 2
Fore
SplineSet
298 0 m 5xf4
 40 0 l 5
 40 730.999810432 l 5xf4
 358 730.997070312 l 6
 586.517543439 730.99516514 685 634.916687209 685 483.93359375 c 4
 685 336.058604292 583.582132565 241.95703125 353 241.95703125 c 6
 228 241.95703125 l 5xec
 225 344.2578125 l 5
 322.697265625 344.284179688 l 6
 406.570519799 344.464019958 445.512695312 399.143420057 445.512695312 486.704101562 c 4
 445.512695312 571.45749775 406.569843106 624.285194931 322.697265625 624.583007812 c 6
 298 624.690429688 l 5
 298 0 l 5xf4
EndSplineSet
Validated: 5
EndChar

StartChar: D
Encoding: 68 68 13
Width: 760
Flags: W
HStem: 0 102.284<228 401.012> 624.69 106.307<298 394.064>
VStem: 40 258<102.258 624.69> 228 70<0 102.258> 490.513 244.487<216.693 511.751>
LayerCount: 2
Fore
SplineSet
298 0 m 1xd8
 40 0 l 1
 40 730.999810432 l 1xe8
 358 730.997070312 l 2
 621.459063842 730.994201231 735 586.305504144 735 358.93359375 c 4
 735 139.558399529 618.308357349 -0.04296875 353 -0.04296875 c 2
 228 -0.04296875 l 1xd8
 225 102.2578125 l 1
 327.697265625 102.284179688 l 2
 438.8873657 102.611761309 490.512695312 202.211069574 490.512695312 361.704101562 c 4
 490.512695312 523.294301954 438.886468613 624.015199967 327.697265625 624.583007812 c 2
 298 624.690429688 l 1xe8
 298 0 l 1xd8
EndSplineSet
Validated: 5
EndChar

StartChar: J
Encoding: 74 74 14
Width: 338
Flags: W
HStem: 711 20G<40 298>
VStem: 40 258<134.349 731>
LayerCount: 2
Fore
SplineSet
40 137 m 2
 40 731 l 1
 298 731 l 1
 298 269 l 2
 298 17.5290794723 117.848634787 -77.894569024 -62 -103.994140625 c 5
 -91 -17 l 1
 -91 -17 40 -4.19287252161 40 137 c 2
EndSplineSet
Validated: 1
EndChar

StartChar: U
Encoding: 85 85 15
Width: 733
Flags: W
HStem: -10.0664 146.351<269.453 499.462> 711 20G<40 319.487 555.513 693.513>
VStem: 40 279.487<201.432 731> 555.513 138<196.831 731.008>
LayerCount: 2
Fore
SplineSet
693.512695312 324 m 2
 693.512695312 104.294861011 568.090820312 -10.06640625 371 -10.06640625 c 0
 168.721679688 -10.06640625 40 108.90331443 40 351.93359375 c 2
 40 731 l 1
 319.487304688 731 l 1
 319.487304688 311.704101562 l 2
 319.487304688 203.855079915 354.941645406 136.284179688 434.697265625 136.284179688 c 0
 517.20543424 136.284179688 555.512695312 201.765249242 555.512695312 306.279296875 c 2
 555.512695312 731.0078125 l 1
 693.512695312 731.0078125 l 1
 693.512695312 324 l 2
EndSplineSet
EndChar

StartChar: V
Encoding: 86 86 16
Width: 760
Flags: W
HStem: 0 21G<253.886 515.84> 711 20G<1 285.777 615.07 759>
LayerCount: 2
Fore
SplineSet
261 0 m 1
 1 731 l 1
 279 731 l 1
 448.579101562 230.521484375 l 5
 622 731 l 1
 759 731 l 1
 509 0 l 1
 261 0 l 1
EndSplineSet
Validated: 1
EndChar

StartChar: W
Encoding: 87 87 17
Width: 1121
Flags: W
HStem: 0 21G<180.938 449.785 679.242 940.062> 711 20G<1 263.468 505.193 714.651 967.886 1120>
LayerCount: 2
Fore
SplineSet
186 0 m 1
 1 731 l 1
 259 731 l 1
 368.579101562 240.521484375 l 1
 511 731 l 1
 709 731 l 5
 847.579101562 240.521484375 l 5
 973 731 l 5
 1120 731 l 5
 935 0 l 5
 685 0 l 1
 564.780273438 417.592773438 l 1
 444 0 l 1
 186 0 l 1
EndSplineSet
Validated: 1
EndChar

StartChar: R
Encoding: 82 82 18
Width: 745
Flags: W
HStem: 0 21G<40 298 489.964 744.964> 281.957 102.301<258 365.177> 624.69 106.307<298 399.331>
VStem: 40 258<0 281.957 384.258 624.69> 258 40<281.957 384.258> 445.513 239.487<428.197 582.204>
LayerCount: 2
Fore
SplineSet
298 0 m 5xf4
 40 0 l 5
 40 730.999810432 l 5xf4
 358 730.997070312 l 6
 586.517543437 730.995101239 685 642.694476499 685 503.93359375 c 4
 685 347.531397832 537.970703125 315.838867188 537.970703125 315.838867188 c 5
 537.970703125 315.838867188 603.400748864 296.353626943 672.012695312 170.56640625 c 4
 701.514401765 112.12023584 744.963867188 0 744.963867188 0 c 5
 489.963867188 0 l 5
 489.963867188 0 473.439279596 50.4086326907 435.419921875 144.82421875 c 4
 391.240785164 254.536726647 358.008768459 281.95703125 306 281.95703125 c 6
 258 281.95703125 l 5xec
 255 384.2578125 l 5
 322.697265625 384.284179688 l 6
 406.570551504 384.31684722 445.512695312 431.439548345 445.512695312 506.704101562 c 4
 445.512695312 579.163609077 406.569363822 624.218202324 322.697265625 624.583007812 c 6
 298 624.690429688 l 5
 298 0 l 5xf4
EndSplineSet
Validated: 5
EndChar

StartChar: B
Encoding: 66 66 19
Width: 710
Flags: W
HStem: 0.00195312 106.308<298 402.591> 321.957 102.301<265 395.976> 624.69 106.31<298 389.193>
VStem: 262 36<321.957 424.258> 427.513 237.487<455.906 589.989> 447.513 237.487<145.57 280.086>
LayerCount: 2
Fore
SplineSet
265 424.2578125 m 1xf4
 322.697265625 424.284179688 l 2
 394.277870336 424.403041966 427.512695312 461.809708705 427.512695312 521.704101562 c 0xf8
 427.512695312 584.943192572 394.276837711 624.235110983 322.697265625 624.583007812 c 2
 298 624.690429688 l 1
 298 106.309570312 l 1
 322.697265625 106.416992188 l 2
 407.935102708 106.800244379 447.512695312 146.442112994 447.512695312 210.295898438 c 0
 447.512695312 278.929668413 406.984983976 321.796646398 319.697265625 321.930664062 c 2
 262 321.95703125 l 1
 265 424.2578125 l 1xf4
40 730.999810432 m 1
 338 731 l 2
 566.517543437 730.998247699 665 652.418503475 665 528.93359375 c 4xf8
 665 384.443219612 519.685546875 372.668945312 519.685546875 372.668945312 c 5
 519.685546875 372.668945312 685 356.604192715 685 202.06640625 c 4xf4
 685 78.5826900998 580.494151591 0.00394143969688 338 0.001953125 c 2
 40 0 l 1
 40 730.999810432 l 1
EndSplineSet
Validated: 5
EndChar

StartChar: C
Encoding: 67 67 20
Width: 690
Flags: W
HStem: -10.0664 129.351<290.462 553.317> 609.583 129.351<290.462 552.007>
VStem: 25 299.487<224.799 501.298>
LayerCount: 2
Fore
SplineSet
678.366210938 647.19140625 m 5
 625.9375 546.067382812 l 5
 625.9375 546.067382812 575.194646205 609.583007812 487.697265625 609.583007812 c 4
 374.713345767 609.583007812 324.487304688 514.073885449 324.487304688 361.704101562 c 4
 324.487304688 212.662778618 374.713345767 119.284179688 487.697265625 119.284179688 c 4
 580.10503965 119.284179688 635.393554688 183.310546875 635.393554688 183.310546875 c 5
 680.759765625 82.5087890625 l 5
 680.759765625 82.5087890625 593.581722166 -10.06640625 408 -10.06640625 c 4
 173.943878257 -10.06640625 25 134.599609375 25 361.93359375 c 4
 25 592.322265625 173.943878257 738.93359375 408 738.93359375 c 4
 590.385082199 738.93359375 678.366210938 647.19140625 678.366210938 647.19140625 c 5
EndSplineSet
Validated: 1
EndChar

StartChar: G
Encoding: 71 71 21
Width: 741
Flags: W
HStem: -10.0664 134.351<404.185 517.259> 0 21G<610 736> 604.583 134.351<290.972 563.797>
VStem: 25 299.487<226.216 499.881> 584 131<12.8604 357>
LayerCount: 2
Fore
SplineSet
584 357 m 5x78
 715 357 l 1
 715 210 l 2
 715 80.5 736 0 736 0 c 1
 610 0 l 1
 610 0 584 66.5 584 210 c 6
 584 357 l 5x78
698.366210938 637.19140625 m 1
 645.9375 536.067382812 l 1
 645.9375 536.067382812 591.52401775 604.583007812 497.697265625 604.583007812 c 0
 377.790733984 604.583007812 324.487304688 511.000413281 324.487304688 361.704101562 c 0
 324.487304688 215.73681069 378.262570871 124.284179688 476 124.284179688 c 0
 586.06338506 124.284179688 639.393554688 243.310546875 639.393554688 243.310546875 c 1
 684.759765625 142.508789062 l 1
 684.759765625 142.508789062 599.320878531 -10.06640625 390 -10.06640625 c 0xb8
 178.139480461 -10.06640625 25 134.599609375 25 361.93359375 c 0
 25 592.322265625 173.943878257 738.93359375 408 738.93359375 c 0
 621.876788989 738.93359375 698.366210938 637.19140625 698.366210938 637.19140625 c 1
EndSplineSet
Validated: 5
EndChar

StartChar: r
Encoding: 114 114 22
Width: 458
Flags: W
HStem: 0 21G<40 268> 409.583 111.351<337.485 448> 491.011 20G<40 268>
VStem: 40 228<0 511.011> 195 59.4873<259.934 346.054>
LayerCount: 2
Fore
SplineSet
40 0 m 1xb0
 40 511.010742188 l 1
 268 511.010742188 l 1
 268 0 l 1
 40 0 l 1xb0
448 409.583007812 m 1xc8
 314.038673539 409.583007812 254.487304688 346.054247458 254.487304688 244.704101562 c 1
 195 259.93359375 l 1
 195 419.43344351 293.38851488 520.93359375 448 520.93359375 c 1
 448 409.583007812 l 1xc8
EndSplineSet
Validated: 5
EndChar

StartChar: K
Encoding: 75 75 23
Width: 749
Flags: W
HStem: 0 21G<40 298 455.239 748> 711 20G<40 298 525.224 708>
VStem: 40 258<0 731>
LayerCount: 2
Fore
SplineSet
467 0 m 1
 260 352 l 5
 540 731 l 1
 708 731 l 1
 486 418 l 1
 748 0 l 1
 467 0 l 1
40 0 m 1
 40 731 l 1
 298 731 l 1
 298 0 l 1
 40 0 l 1
EndSplineSet
Validated: 5
EndChar

StartChar: A
Encoding: 65 65 24
Width: 760
Flags: W
HStem: 0 20G<1 144.93 474.223 759> 156 96<162 459> 710 21G<244.16 506.114>
LayerCount: 2
Fore
SplineSet
162 252 m 5
 459 252 l 5
 459 156 l 5
 162 156 l 5
 162 252 l 5
EndSplineSet
Refer: 16 86 S -1 0 0 -1 760 731 2
Validated: 5
EndChar

StartChar: S
Encoding: 83 83 25
Width: 625
Flags: W
HStem: -10 107.462<131.079 335.669> 626.659 112.462<292.42 487.126>
VStem: 25 244.312<441.729 602.155> 357.711 248.182<123.952 286.82>
LayerCount: 2
Back
SplineSet
242.755859375 249.140625 m 0
 82.9760744287 300.733786061 25 382.446899875 25 501.010742188 c 0
 25 649.373046875 137.23046875 739.12109375 321.606445312 739.12109375 c 0
 486.114495658 739.12109375 566.118164062 693.891601562 566.118164062 693.891601562 c 1
 566.118164062 572.891601562 l 1
 566.118164062 572.891601562 477.553838537 626.659179688 375 626.659179688 c 0
 306.357421875 626.659179688 269.311523438 604.26953125 269.311523438 562 c 0
 269.311523438 523.04296875 303.505845869 504.559218542 371.370117188 481.081054688 c 0
 537.435505677 423.629463064 605.892578125 351.640064786 605.892578125 222 c 0
 605.892578125 79.021484375 498.063476562 -10 296.177734375 -10 c 0
 135.829024566 -10 34.189453125 45.2294921875 34.189453125 45.2294921875 c 5
 34.189453125 165.229492188 34.189453125 165.229492188 34.189453125 165.229492188 c 5
 34.189453125 165.229492188 123.895154021 97.4619140625 258 97.4619140625 c 0
 319.445137267 97.4619140625 357.7109375 119.075823735 357.7109375 161 c 0
 357.7109375 205.70115933 327.96615746 221.626076557 242.755859375 249.140625 c 0
EndSplineSet
Fore
SplineSet
242.755859375 249.140625 m 4
 82.9760744287 300.733786061 25 382.446899875 25 501.010742188 c 4
 25 649.373046875 137.23046875 739.12109375 321.606445312 739.12109375 c 4
 492.842518805 739.12109375 576.118164062 683.891601562 576.118164062 683.891601562 c 5
 548.118164062 575.891601562 l 5
 548.118164062 575.891601562 467.895054388 626.659179688 375 626.659179688 c 4
 306.357421875 626.659179688 269.311523438 604.26953125 269.311523438 562 c 4
 269.311523438 523.04296875 303.505845869 504.559218542 371.370117188 481.081054688 c 4
 537.435505677 423.629463064 605.892578125 351.640064786 605.892578125 222 c 4
 605.892578125 79.021484375 498.063476562 -10 296.177734375 -10 c 4
 124.200162878 -10 15.189453125 52.2294921875 15.189453125 52.2294921875 c 5
 45.189453125 162.229492188 45.189453125 162.229492188 45.189453125 162.229492188 c 5
 45.189453125 162.229492188 130.486234407 97.4619140625 258 97.4619140625 c 4
 319.445137267 97.4619140625 357.7109375 119.075823735 357.7109375 161 c 4
 357.7109375 205.70115933 327.96615746 221.626076557 242.755859375 249.140625 c 4
EndSplineSet
Validated: 1
EndChar

StartChar: X
Encoding: 88 88 26
Width: 752
Flags: W
HStem: 0 21G<16.1465 187.265 446.612 751.146> 711 20G<1 305.535 563.641 736>
LayerCount: 2
Fore
SplineSet
388.385742188 326.626953125 m 5
 174.146484375 0 l 5
 16.146484375 0 l 5
 289.411132812 412.603515625 l 5
 388.385742188 326.626953125 l 5
448.385742188 326.626953125 m 5
 349.411132812 412.603515625 l 5
 578 731 l 5
 736 731 l 5
 448.385742188 326.626953125 l 5
1 731 m 5
 293 731 l 5
 751.146484375 0 l 5
 459.146484375 0 l 5
 1 731 l 5
EndSplineSet
Validated: 5
EndChar

StartChar: Y
Encoding: 89 89 27
Width: 710
Flags: W
HStem: 0 21G<234 492> 220 131<271 449> 711 20G<1 274.299 556.437 709>
VStem: 234 258<0 351>
LayerCount: 2
Fore
SplineSet
234 0 m 1
 234 351 l 5
 492 351 l 5
 492 0 l 1
 234 0 l 1
271 220 m 5
 1 731 l 1
 264 731 l 1
 413.579101562 440.521484375 l 1
 567 731 l 1
 709 731 l 1
 449 220 l 5
 271 220 l 5
EndSplineSet
Validated: 5
EndChar

StartChar: Z
Encoding: 90 90 28
Width: 655
Flags: W
HStem: 0 111<311.522 625> 620 111<20 333.478>
LayerCount: 2
Fore
SplineSet
333.477539062 620 m 1
 20 620 l 5
 20 731 l 5
 625 731 l 1
 625 658 l 1
 311.522460938 111 l 1
 625 111 l 1
 625 0 l 1
 20 0 l 1
 20 73 l 1
 333.477539062 620 l 1
EndSplineSet
Validated: 1
EndChar

StartChar: a
Encoding: 97 97 30
Width: 594
Flags: W
HStem: -10.0752 97.3506<155.778 321.329> 0 21G<376 589> 235.574 85.3506<165.278 333.325> 414.583 106.351<141.11 307.739>
VStem: 25 194.487<102.167 218.316> 341.272 218.748<63.6064 190.925 284.934 381.653> 368.513 69.4873<103.95 212.522>
LayerCount: 2
Fore
SplineSet
368.512695312 167.154296875 m 0xba
 368.512695312 189.219303716 345.522412967 235.57421875 287 235.57421875 c 0
 242.575352027 235.57421875 219.487304688 205.36736786 219.487304688 157.154296875 c 0
 219.487304688 114.200122175 242.174104783 87.275390625 283 87.275390625 c 0
 345.355399457 87.275390625 368.512695312 128.053177839 368.512695312 167.154296875 c 0xba
438 190.924804688 m 0
 438 79.8459730212 356.280613674 -10.0751953125 208 -10.0751953125 c 0
 103.555555556 -10.0751953125 25 52.5360084756 25 150.924804688 c 0
 25 254.813991095 103.555555556 320.924804688 227 320.924804688 c 0
 355.944756365 320.924804688 438 234.119476646 438 190.924804688 c 0
589 0 m 1x7c
 376 0 l 1
 376 0 341.272460938 39.2342766138 341.272460938 164.704101562 c 2
 341.272460938 303 l 2
 341.272460938 373.877446387 310.126226808 414.583007812 240.0625 414.583007812 c 0
 159.512429639 414.583007812 95.822265625 374.067382812 95.822265625 374.067382812 c 1
 61.3935546875 462.19140625 l 1
 61.3935546875 462.19140625 136.811887085 520.93359375 291.759765625 520.93359375 c 0
 455.537939586 520.93359375 559.339275463 454.15647362 559.759765625 284.93359375 c 2
 560.020507812 180 l 2
 560.309726169 63.6064008373 589 0 589 0 c 1x7c
EndSplineSet
EndChar

StartChar: t
Encoding: 116 116 31
Width: 451
Flags: W
HStem: 0 86.9941<355.482 434> 415.011 96<5 436>
VStem: 82 238<143.475 630.994>
LayerCount: 2
Fore
SplineSet
5 511.010742188 m 1
 436 511.010742188 l 1
 436 415.010742188 l 1
 5 415.010742188 l 1
 5 511.010742188 l 1
320 200.994140625 m 2
 320 129.86265121 345.251662577 86.994140625 434 86.994140625 c 5
 434 0 l 5
 242.729456825 0 82 26.0657250025 82 278.994140625 c 2
 82 630.994140625 l 1
 320 720.994140625 l 1
 320 200.994140625 l 2
EndSplineSet
Validated: 5
EndChar

StartChar: e
Encoding: 101 101 32
Width: 587
Flags: W
HStem: -10.0664 109.351<303.193 464.042> 216 81<228 389.889> 418.583 102.351<281.141 362.836>
VStem: 228 22.4873<216 297> 389.889 177.216<297 378.39>
LayerCount: 2
Fore
SplineSet
389.888671875 297 m 1
 389.689458475 305.539876036 389.289040053 313.905894061 388.623363204 321.999997816 c 0
 384.145899768 376.442410269 367.66774182 418.583007812 319.697265625 418.583007812 c 0
 271.785896521 418.583007812 250.487304688 355.439553024 250.487304688 254.704101562 c 0
 250.487304688 159.15093667 284.403188213 99.2841796875 378 99.2841796875 c 0
 448.099753486 99.2841796875 500.393554688 135.310546875 500.393554688 135.310546875 c 1
 535.759765625 44.5087890625 l 1
 535.759765625 44.5087890625 464.562459511 -10.06640625 313 -10.06640625 c 0
 136.999574251 -10.06640625 25 92.9886855259 25 254.93359375 c 0
 25 417.488996187 129.221826039 520.93359375 317 520.93359375 c 0
 508.403958481 520.93359375 567.104492188 374.445702825 567.104492188 267.418945312 c 0
 567.104492188 234.21706977 563 216 563 216 c 1
 228 216 l 1
 228 297 l 1
 389.888671875 297 l 1
EndSplineSet
Validated: 5
EndChar

StartChar: zero
Encoding: 48 48 34
Width: 715
Flags: W
HStem: -10.0664 106.351<319.586 395.796> 632.583 106.351<319.586 395.796>
VStem: 25 249.487<216.608 509.492> 440.513 249.487<216.608 509.492>
LayerCount: 2
Fore
SplineSet
274.487304688 361.704101562 m 0
 274.487304688 198.522231087 300.094240025 96.2841796875 357.697265625 96.2841796875 c 0
 414.253884931 96.2841796875 440.512695312 198.522231087 440.512695312 361.704101562 c 0
 440.512695312 528.211857423 414.253884931 632.583007812 357.697265625 632.583007812 c 0
 300.094240025 632.583007812 274.487304688 528.211857423 274.487304688 361.704101562 c 0
25 361.93359375 m 4
 25 592.322265625 154.499507727 738.93359375 358 738.93359375 c 4
 560.888888889 738.93359375 690 592.322265625 690 361.93359375 c 4
 690 134.599609375 560.888888889 -10.06640625 358 -10.06640625 c 4
 154.499507727 -10.06640625 25 134.599609375 25 361.93359375 c 4
EndSplineSet
Validated: 1
Substitution2: "'dnom' Denominators lookup 0 subtable" zero.dnom
Substitution2: "'numr' Numerators lookup 0 subtable" zero.numr
Substitution2: "'sinf' Scientific Inferiors lookup 0 subtable" zero.inferior
Substitution2: "'sups' Superscript lookup 0 subtable" zero.superior
EndChar

StartChar: parenright
Encoding: 41 41 35
Width: 363
Flags: W
HStem: -200.066 86.3506<15.3027 88.5615> 694.642 86.3506<15.3027 88.8005>
VStem: 224.513 113.487<83.3936 490.346>
LayerCount: 2
Fore
SplineSet
15 -200.06640625 m 0
 15.302734375 -113.715820312 l 0
 150.757816239 -113.715820312 224.512695312 39.3681640625 224.512695312 283.704101562 c 4
 224.512695312 536.3046875 150.663823144 694.641601562 15 694.641601562 c 1
 15.302734375 780.9921875 l 1
 223 780.9921875 338 587.69140625 338 283.93359375 c 0
 338 -11.8447265625 222.874023438 -200.06640625 15 -200.06640625 c 0
EndSplineSet
Validated: 1
EndChar

StartChar: one
Encoding: 49 49 36
Width: 481
Flags: W
HStem: 0 21G<183.6 441.6> 711 20G<205.968 441.6>
VStem: 183.6 258<0 565.05>
LayerCount: 2
Fore
SplineSet
183.599609375 565.049804688 m 1
 51.70703125 480.103515625 l 5
 1 562.64453125 l 1
 233.599609375 731 l 1
 441.599609375 731 l 1
 441.599609375 0 l 1
 183.599609375 0 l 1
 183.599609375 565.049804688 l 1
EndSplineSet
Validated: 1
Substitution2: "'dnom' Denominators lookup 0 subtable" one.dnom
Substitution2: "'numr' Numerators lookup 0 subtable" one.numr
Substitution2: "'sinf' Scientific Inferiors lookup 0 subtable" one.inferior
Substitution2: "'sups' Superscript lookup 0 subtable" one.superior
EndChar

StartChar: two
Encoding: 50 50 37
Width: 608
Flags: W
HStem: 0 145<227.573 593.549> 623.599 115.394<132.74 304.431>
VStem: 339.676 247.086<465.933 590.896>
LayerCount: 2
Fore
SplineSet
226 623.598632812 m 0
 134.442382812 623.598632812 67.3955078125 570.754882812 67.3955078125 570.754882812 c 1
 31.1796875 670.796875 l 1
 31.1796875 670.796875 118.26953125 738.9921875 291.548828125 738.9921875 c 0
 485 738.9921875 586.76171875 645.295898438 586.76171875 504.010742188 c 0
 586.76171875 380.974609375 492.388096608 316.427898374 344.154296875 251.922851562 c 0
 233.145074166 203.6163579 227.573242188 145 227.573242188 145 c 1
 593.548828125 145 l 1
 593.548828125 0 l 1
 20 0 l 1
 20 34 l 2
 20 212.663085938 66.8669771224 284.584911222 248.821289062 405.876953125 c 0
 308.965820312 445.969726562 339.67578125 480.674804688 339.67578125 529 c 0
 339.67578125 593 298.829101562 623.598632812 226 623.598632812 c 0
EndSplineSet
Validated: 1
Substitution2: "'dnom' Denominators lookup 0 subtable" two.dnom
Substitution2: "'numr' Numerators lookup 0 subtable" two.numr
Substitution2: "'sinf' Scientific Inferiors lookup 0 subtable" two.inferior
Substitution2: "'sups' Superscript lookup 0 subtable" two.superior
EndChar

StartChar: three
Encoding: 51 51 38
Width: 617
Flags: W
HStem: -9.99805 117.938<118.586 295.477> 322 101.481<138.688 278.14> 621.599 117.394<131.769 372.32>
VStem: 315.533 257.086<458.76 589.444> 332.376 260.084<142.228 280.004>
LayerCount: 2
Fore
SplineSet
192.6875 423.481445312 m 6xe8
 276.3984375 423.481445312 315.533203125 458.360351562 315.533203125 524.05859375 c 4
 315.533203125 591.552734375 274.033203125 621.598632812 205.548828125 621.598632812 c 4
 121.991210938 621.598632812 62.3955078125 570.754882812 62.3955078125 570.754882812 c 5
 26.1796875 670.796875 l 5
 26.1796875 670.796875 120.60546875 738.9921875 286.548828125 738.9921875 c 4
 458.090820312 738.9921875 572.619140625 670.857421875 572.619140625 535.868164062 c 4xf0
 572.619140625 415 443.711914062 375.697265625 443.711914062 375.697265625 c 5
 443.711914062 375.697265625 592.459960938 348 592.459960938 198 c 4
 592.459960938 58.681640625 461.567382812 -9.998046875 284.548828125 -9.998046875 c 4
 117.483398438 -9.998046875 10 53.9091796875 10 53.9091796875 c 5
 49.3232421875 163.262695312 l 5
 49.3232421875 163.262695312 115.541992188 107.939453125 212.548828125 107.939453125 c 4
 291.38671875 107.939453125 332.375976562 140.040039062 332.375976562 209 c 4
 332.375976562 275.270507812 299.148845547 321.220725771 192.6875 321.737304688 c 6
 138.548828125 322 l 5
 138.6875 423.481445312 l 5
 192.6875 423.481445312 l 6xe8
EndSplineSet
Validated: 1
Substitution2: "'dnom' Denominators lookup 0 subtable" three.dnom
Substitution2: "'numr' Numerators lookup 0 subtable" three.numr
Substitution2: "'sinf' Scientific Inferiors lookup 0 subtable" three.inferior
Substitution2: "'sups' Superscript lookup 0 subtable" three.superior
EndChar

StartChar: at
Encoding: 64 64 39
Width: 925
Flags: W
HStem: -149.727 87.877<346.051 669.482> 66.5439 93.0811<358.767 503.922> 67.4209 109.558<645.757 782.487> 406.264 85.0811<358.767 503.322> 624.433 93.2939<333.929 609.24>
VStem: 25 103<148.872 413.178> 218.768 179.59<183.513 380.476> 508.367 182.4<205.139 483.413> 527.178 73.5898<173.076 378.686> 804.404 95.8828<200.566 433.367>
LayerCount: 2
Fore
SplineSet
527.177734375 287.528320312 m 0xdec0
 527.177734375 360.52734375 507.922851562 406.263671875 464.609375 406.263671875 c 0
 419.364257812 406.263671875 398.357421875 357.446289062 398.357421875 279.528320312 c 0
 398.357421875 205.82421875 419.364257812 159.625 464.609375 159.625 c 0
 507.922851562 159.625 527.177734375 208.907226562 527.177734375 287.528320312 c 0xdec0
600.767578125 248.344726562 m 0
 600.767578125 137.244340122 530.612100409 66.5439453125 420.3671875 66.5439453125 c 0
 297.166992188 66.5439453125 218.767578125 147.744140625 218.767578125 275.344726562 c 0
 218.767578125 407.344726562 297.166992188 491.344726562 420.3671875 491.344726562 c 0
 530.612100409 491.344726562 600.767578125 396.844980093 600.767578125 248.344726562 c 0
690.767578125 256.604492188 m 2xbf40
 690.767578125 205.138671875 708.181732451 176.978515625 742.811523438 176.978515625 c 0
 783.503467408 176.978515625 804.404296875 222.505859375 804.404296875 293.712890625 c 0
 804.404296875 535.008980657 664.463867188 624.432617188 464.420898438 624.432617188 c 4
 250.372070312 624.432617188 128 483.538639234 128 281.93359375 c 0
 128 69.4798329156 254.461914062 -61.849609375 488.713867188 -61.849609375 c 0
 686.701215781 -61.849609375 808 12 808 12 c 1
 808 -79 808 -79 808 -79 c 1
 808 -79 712.851820511 -149.7265625 487.713867188 -149.7265625 c 0
 201.205078125 -149.7265625 25 14.120869497 25 278.08984375 c 0
 25 534.04161915 184.602539062 717.7265625 463.420898438 717.7265625 c 4
 718.471679688 717.7265625 900.287109375 571.021532587 900.287109375 293.712890625 c 0
 900.287109375 136.370117188 813.41796875 67.4208984375 697 67.4208984375 c 0
 594.513671875 67.4208984375 508.3671875 108.552733414 508.3671875 280 c 2
 508.3671875 483.413085938 l 1
 690.767578125 483.413085938 l 1
 690.767578125 256.604492188 l 2xbf40
EndSplineSet
Validated: 5
EndChar

StartChar: four
Encoding: 52 52 40
Width: 709
Flags: W
HStem: 0 21G<321.6 579.6> 176.645 96<137.369 694> 711 20G<356.04 579.6>
VStem: 321.6 258<0 505.05>
LayerCount: 2
Fore
SplineSet
15 272.64453125 m 1
 371.599609375 731 l 1
 579.599609375 731 l 1
 579.599609375 0 l 1
 321.599609375 0 l 1
 321.599609375 505.049804688 l 5
 137.369140625 272.64453125 l 1
 694 272.64453125 l 1
 694 176.64453125 l 1
 25 176.64453125 l 1
 15 272.64453125 l 1
EndSplineSet
Substitution2: "'dnom' Denominators lookup 0 subtable" four.dnom
Substitution2: "'numr' Numerators lookup 0 subtable" four.numr
Substitution2: "'sinf' Scientific Inferiors lookup 0 subtable" four.inferior
Substitution2: "'sups' Superscript lookup 0 subtable" four.superior
EndChar

StartChar: five
Encoding: 53 53 41
Width: 623
Flags: W
HStem: -9.99805 119.938<137.048 294.152> 346.737 384.271<137.88 285.792> 620 111.008<311.88 567.88>
VStem: 339.256 260.084<152.527 300.555>
LayerCount: 2
Fore
SplineSet
137.879882812 731.0078125 m 5xd0
 567.879882812 731 l 5
 567.879882812 620 l 5
 311.879882812 620 l 5xb0
 287.879882812 464 l 1
 287.879882812 464 318.45639535 474 378.879882812 474 c 0
 509.758221462 474 599.33984375 394.243164062 599.33984375 247 c 0
 599.33984375 73.4765625 465.046875 -9.998046875 283.428710938 -9.998046875 c 0
 112.05078125 -9.998046875 10 72 10 72 c 1
 49.6318359375 175 l 1
 49.6318359375 175 116.84765625 109.939453125 212.428710938 109.939453125 c 0
 295.872070312 109.939453125 339.255859375 151.955078125 339.255859375 228 c 0
 339.255859375 295.40625 302.478885509 346.737304688 207.879882812 346.737304688 c 0
 132.874069925 346.737304688 71.6416015625 323 71.6416015625 323 c 1
 137.879882812 731.0078125 l 5xd0
EndSplineSet
Substitution2: "'dnom' Denominators lookup 0 subtable" five.dnom
Substitution2: "'numr' Numerators lookup 0 subtable" five.numr
Substitution2: "'sinf' Scientific Inferiors lookup 0 subtable" five.inferior
Substitution2: "'sups' Superscript lookup 0 subtable" five.superior
EndChar

StartChar: six
Encoding: 54 54 42
Width: 665
Flags: W
HStem: -10.0664 106.351<293.365 381.296> 385.583 103.351<293.64 470.861> 627.992 111<390.038 517>
VStem: 25 239.487<166.797 346.778> 410.513 229.487<137.296 351.341>
LayerCount: 2
Fore
SplineSet
264.487304688 238.704101562 m 4
 264.487304688 151.143420057 287.016851808 96.2841796875 337.697265625 96.2841796875 c 4
 387.424647973 96.2841796875 410.512695312 151.143420057 410.512695312 238.704101562 c 4
 410.512695312 328.989747652 387.424647973 385.583007812 337.697265625 385.583007812 c 4
 287.016851808 385.583007812 264.487304688 328.989747652 264.487304688 238.704101562 c 4
247.4375 440.29296875 m 5
 247.4375 440.29296875 287.733388442 488.93359375 398 488.93359375 c 4
 543.722151107 488.93359375 640 392.877896013 640 241.93359375 c 4
 640 87.9331527218 522.555555556 -10.06640625 338 -10.06640625 c 4
 146.721759515 -10.06640625 25 91.8220241095 25 297 c 4
 25 616.999833644 233.279855707 738.9921875 517 738.9921875 c 5
 517 627.9921875 l 5
 346.628968251 627.9921875 271.82728933 557.011637786 247.4375 440.29296875 c 5
EndSplineSet
Validated: 1
Substitution2: "'dnom' Denominators lookup 0 subtable" six.dnom
Substitution2: "'numr' Numerators lookup 0 subtable" six.numr
Substitution2: "'sinf' Scientific Inferiors lookup 0 subtable" six.inferior
Substitution2: "'sups' Superscript lookup 0 subtable" six.superior
EndChar

StartChar: quotesingle
Encoding: 39 39 43
Width: 189
Flags: W
HStem: 506.002 255<36 151>
VStem: 36 115<506.002 555.585>
LayerCount: 2
Fore
SplineSet
36 506.001953125 m 5
 0 761.001953125 l 5
 187 761.001953125 l 5
 151 506.001953125 l 5
 36 506.001953125 l 5
EndSplineSet
Validated: 1
EndChar

StartChar: s
Encoding: 115 115 44
Width: 507
Flags: W
HStem: -9.99805 95.9697<99.2697 284.093> 421.329 99.9697<226.145 400.512>
VStem: 22.8486 195.449<298.152 410.559> 289.018 198.545<95.9532 208.7>
LayerCount: 2
Fore
SplineSet
197.052734375 169.314453125 m 4
 68.2275390625 203.82421875 22.8486328125 258.494140625 22.8486328125 337.810546875 c 4
 22.8486328125 452.138671875 112.6328125 521.298828125 260.133789062 521.298828125 c 4
 397.123046875 521.298828125 463.743164062 477.115234375 463.743164062 477.115234375 c 5
 441.342773438 380.71484375 l 5
 441.342773438 380.71484375 375.310546875 421.329101562 298.848632812 421.329101562 c 4
 246.532226562 421.329101562 218.297851562 404.284179688 218.297851562 382 c 4
 218.297851562 353.677734375 244.57421875 348.706054688 299.944335938 334.8671875 c 4
 434.763671875 301.170898438 487.5625 250.798828125 487.5625 166.6015625 c 4
 487.5625 57.765625 401.299804688 -9.998046875 239.791015625 -9.998046875 c 4
 102.208984375 -9.998046875 15 39.78515625 15 39.78515625 c 5
 39 137.78515625 39 137.78515625 39 137.78515625 c 5
 39 137.78515625 108.840820312 85.9716796875 213.248046875 85.9716796875 c 4
 259.939453125 85.9716796875 289.017578125 99.1025390625 289.017578125 121 c 4
 289.017578125 146.979492188 264.935546875 151.129882812 197.052734375 169.314453125 c 4
EndSplineSet
Validated: 1
EndChar

StartChar: seven
Encoding: 55 55 45
Width: 625
Flags: W
HStem: 0 21G<78.999 330.756> 620 111<20 363.478>
LayerCount: 2
Fore
SplineSet
363.477539062 620 m 5
 20 620 l 1
 20 731 l 1
 595 731 l 5
 595 658 l 5
 322.47265625 0 l 1
 78.9990234375 0 l 1
 363.477539062 620 l 5
EndSplineSet
Validated: 1
Substitution2: "'dnom' Denominators lookup 0 subtable" seven.dnom
Substitution2: "'numr' Numerators lookup 0 subtable" seven.numr
Substitution2: "'sinf' Scientific Inferiors lookup 0 subtable" seven.inferior
Substitution2: "'sups' Superscript lookup 0 subtable" seven.superior
EndChar

StartChar: eight
Encoding: 56 56 46
Width: 655
Flags: W
HStem: -10.0664 96.3506<283.358 371.996> 342.583 83.7598<283.939 370.595> 353.992 60.9414<158.722 496.667> 642.642 96.3506<287.202 368.168>
VStem: 25 229.487<117.196 293.026> 51 213.487<463.172 622.799> 390.513 213.487<463.172 622.799> 400.513 229.487<117.196 293.026>
LayerCount: 2
Fore
SplineSet
264.487304688 536.762695312 m 4xd6
 264.487304688 468.875819067 283.93946359 426.342773438 327.697265625 426.342773438 c 0
 370.595411016 426.342773438 390.512695312 468.875819067 390.512695312 536.762695312 c 4
 390.512695312 601.845869623 370.595411016 642.641601562 327.697265625 642.641601562 c 0
 283.93946359 642.641601562 264.487304688 601.845869623 264.487304688 536.762695312 c 4xd6
51 546.9921875 m 0
 51 664.325410312 158.721812734 738.9921875 328 738.9921875 c 0
 496.666666667 738.9921875 604 664.325410312 604 546.9921875 c 0
 604 429.047405284 496.666666667 353.9921875 328 353.9921875 c 0xb6
 158.721812734 353.9921875 51 429.047405284 51 546.9921875 c 0
254.487304688 216.704101562 m 0xd9
 254.487304688 136.52109703 277.016851808 86.2841796875 327.697265625 86.2841796875 c 0
 377.424647973 86.2841796875 400.512695312 136.52109703 400.512695312 216.704101562 c 0
 400.512695312 294.081164547 377.424647973 342.583007812 327.697265625 342.583007812 c 0
 277.016851808 342.583007812 254.487304688 294.081164547 254.487304688 216.704101562 c 0xd9
25 206.93359375 m 0
 25 334.044585129 142.83288541 414.93359375 328 414.93359375 c 0xb9
 512.555555556 414.93359375 630 334.044585129 630 206.93359375 c 0
 630 74.3221028646 512.555555556 -10.06640625 328 -10.06640625 c 0
 142.83288541 -10.06640625 25 74.3221028646 25 206.93359375 c 0
EndSplineSet
Substitution2: "'dnom' Denominators lookup 0 subtable" eight.dnom
Substitution2: "'numr' Numerators lookup 0 subtable" eight.numr
Substitution2: "'sinf' Scientific Inferiors lookup 0 subtable" eight.inferior
Substitution2: "'sups' Superscript lookup 0 subtable" eight.superior
EndChar

StartChar: nine
Encoding: 57 57 47
Width: 665
Flags: W
HStem: -10.0664 111<148 274.962> 239.992 103.351<194.139 371.36> 632.642 106.351<283.704 371.635>
VStem: 25 229.487<377.585 591.629> 400.513 239.487<382.147 562.128>
LayerCount: 2
Fore
SplineSet
400.512695312 490.221679688 m 0
 400.512695312 577.782226562 377.983398438 632.641601562 327.302734375 632.641601562 c 0
 277.575195312 632.641601562 254.487304688 577.782226562 254.487304688 490.221679688 c 0
 254.487304688 399.935546875 277.575195312 343.342773438 327.302734375 343.342773438 c 0
 377.983398438 343.342773438 400.512695312 399.935546875 400.512695312 490.221679688 c 0
417.5625 288.6328125 m 5
 417.5625 288.6328125 377.266225611 239.9921875 267 239.9921875 c 0
 121.278320312 239.9921875 25 336.047851562 25 486.9921875 c 0
 25 640.9921875 142.444335938 738.9921875 327 738.9921875 c 0
 518.278320312 738.9921875 640 637.103515625 640 431.92578125 c 0
 640 111.92578125 431.719726562 -10.06640625 148 -10.06640625 c 1
 148 100.93359375 l 1
 318.371123442 100.93359375 393.172381948 171.9140625 417.5625 288.6328125 c 5
EndSplineSet
Validated: 1
Substitution2: "'dnom' Denominators lookup 0 subtable" nine.dnom
Substitution2: "'numr' Numerators lookup 0 subtable" nine.numr
Substitution2: "'sinf' Scientific Inferiors lookup 0 subtable" nine.inferior
Substitution2: "'sups' Superscript lookup 0 subtable" nine.superior
EndChar

StartChar: i
Encoding: 105 105 48
Width: 308
Flags: W
HStem: 0 21G<40 268> 491.011 20G<40 268> 566.002 195<69.953 238.386>
VStem: 26.5 255<603.576 721.451> 40 228<0 511.011>
LayerCount: 2
Fore
SplineSet
40 0 m 1xe8
 40 511.010742188 l 1
 268 511.010742188 l 1
 268 0 l 1
 40 0 l 1xe8
26.5 661.001953125 m 4xf0
 26.5 722.113006673 76.2774024024 761.001953125 154.5 761.001953125 c 4
 232.111028097 761.001953125 281.5 722.113006673 281.5 661.001953125 c 4
 281.5 602.946231309 232.111028097 566.001953125 154.5 566.001953125 c 4
 76.2774024024 566.001953125 26.5 602.946231309 26.5 661.001953125 c 4xf0
EndSplineSet
EndChar

StartChar: grave
Encoding: 96 96 49
Width: 240
Flags: W
HStem: 546.008 185<135 157>
VStem: -10 249
LayerCount: 2
Fore
SplineSet
157 731.0078125 m 1
 239 546.0078125 l 1
 135 546.0078125 l 5
 -10 731.0078125 l 1
 157 731.0078125 l 1
EndSplineSet
Validated: 1
EndChar

StartChar: o
Encoding: 111 111 50
Width: 621
Flags: W
HStem: -10.0664 96.3506<276.488 344.908> 424.583 96.3506<277.144 344.257>
VStem: 25 222.487<144.204 366.12> 373.513 222.487<144.204 366.12>
LayerCount: 2
Fore
SplineSet
247.487304688 254.704101562 m 4
 247.487304688 151.158453283 266.93946359 86.2841796875 310.697265625 86.2841796875 c 4
 353.595411016 86.2841796875 373.512695312 151.158453283 373.512695312 254.704101562 c 4
 373.512695312 359.127719626 353.595411016 424.583007812 310.697265625 424.583007812 c 4
 266.93946359 424.583007812 247.487304688 359.127719626 247.487304688 254.704101562 c 4
25 254.93359375 m 4
 25 417.488996187 136.221799429 520.93359375 311 520.93359375 c 4
 485.166666667 520.93359375 596 417.488996187 596 254.93359375 c 4
 596 92.9886855259 485.166666667 -10.06640625 311 -10.06640625 c 4
 136.221799429 -10.06640625 25 92.9886855259 25 254.93359375 c 4
EndSplineSet
Validated: 1
EndChar

StartChar: b
Encoding: 98 98 51
Width: 655
Flags: W
HStem: -10.0664 106.351<283.615 455> 0 21G<40 268> 404.583 116.351<284.488 455> 731.011 20G<40 268>
VStem: 40 228<0 751.011> 165 79.4873<122.249 379.263> 405.513 224.487<140.481 364.278>
LayerCount: 2
Fore
SplineSet
40 0 m 1x7a
 40 751.010742188 l 5
 268 751.010742188 l 5
 268 0 l 1
 40 0 l 1x7a
244.487304688 244.704101562 m 0xb6
 244.487304688 153.454581571 268.555545917 96.2841796875 322.697265625 96.2841796875 c 0
 379.253884931 96.2841796875 405.512695312 157.306517427 405.512695312 254.704101562 c 0
 405.512695312 346.833830953 379.253884931 404.583007812 322.697265625 404.583007812 c 0
 268.555545917 404.583007812 244.487304688 342.98077529 244.487304688 244.704101562 c 0xb6
165 249.93359375 m 0
 165 415.544548864 247.833018456 520.93359375 378 520.93359375 c 0
 532 520.93359375 630 419.43344351 630 259.93359375 c 0
 630 94.9331212198 532 -10.06640625 378 -10.06640625 c 0
 247.833018456 -10.06640625 165 91.044249832 165 249.93359375 c 0
EndSplineSet
EndChar

StartChar: l
Encoding: 108 108 52
Width: 308
Flags: W
HStem: 0 21G<40 268> 731.011 20G<40 268>
VStem: 40 228<0 751.011>
LayerCount: 2
Fore
SplineSet
40 0 m 1
 40 751.010742188 l 5
 268 751.010742188 l 5
 268 0 l 1
 40 0 l 1
EndSplineSet
EndChar

StartChar: d
Encoding: 100 100 53
Width: 655
Flags: W
HStem: -10.0752 116.351<200 370.512> -0.00878906 21G<387 615> 414.574 106.351<200 371.385> 731.002 20G<387 615>
VStem: 25 224.487<146.581 370.377> 387 228<-0.00878906 751.002> 410.513 79.4873<131.596 388.609>
LayerCount: 2
Fore
SplineSet
615 -0.0087890625 m 5x7c
 387 -0.0087890625 l 5
 387 751.001953125 l 5
 615 751.001953125 l 5
 615 -0.0087890625 l 5x7c
410.512695312 266.154296875 m 4xba
 410.512695312 357.403816867 386.444454083 414.57421875 332.302734375 414.57421875 c 4
 275.746115069 414.57421875 249.487304688 353.551881011 249.487304688 256.154296875 c 4
 249.487304688 164.024567484 275.746115069 106.275390625 332.302734375 106.275390625 c 4
 386.444454083 106.275390625 410.512695312 167.877623148 410.512695312 266.154296875 c 4xba
490 260.924804688 m 4
 490 95.3138495731 407.166981544 -10.0751953125 277 -10.0751953125 c 4
 123 -10.0751953125 25 91.4249549279 25 250.924804688 c 4
 25 415.925277218 123 520.924804688 277 520.924804688 c 4
 407.166981544 520.924804688 490 419.814148606 490 260.924804688 c 4
EndSplineSet
EndChar

StartChar: p
Encoding: 112 112 54
Width: 655
Flags: W
HStem: -179.994 21G<40 268> -10.0664 106.351<283.615 455> 404.583 116.351<284.488 455> 491.011 20G<40 268>
VStem: 40 228<244.704 511.011> 165 79.4873<122.249 379.263> 405.513 224.487<140.481 364.278>
LayerCount: 2
Fore
SplineSet
40 -179.994140625 m 5xda
 40 511.010742188 l 5
 268 511.010742188 l 5
 268 -179.994140625 l 5
 40 -179.994140625 l 5xda
244.487304688 244.704101562 m 0xe6
 244.487304688 153.454581571 268.555545917 96.2841796875 322.697265625 96.2841796875 c 0
 379.253884931 96.2841796875 405.512695312 157.306517427 405.512695312 254.704101562 c 0
 405.512695312 346.833830953 379.253884931 404.583007812 322.697265625 404.583007812 c 0
 268.555545917 404.583007812 244.487304688 342.98077529 244.487304688 244.704101562 c 0xe6
165 249.93359375 m 0
 165 415.544548864 247.833018456 520.93359375 378 520.93359375 c 0
 532 520.93359375 630 419.43344351 630 259.93359375 c 0
 630 94.9331212198 532 -10.06640625 378 -10.06640625 c 0
 247.833018456 -10.06640625 165 91.044249832 165 249.93359375 c 0
EndSplineSet
Validated: 5
EndChar

StartChar: q
Encoding: 113 113 55
Width: 655
Flags: W
HStem: -179.994 21G<387 615> -10.0752 116.351<200 370.512> 414.574 106.351<200 371.385>
VStem: 25 224.487<146.581 370.377> 387 228<260.925 511.011> 410.513 79.4873<131.596 388.609>
LayerCount: 2
Fore
SplineSet
615 -179.994140625 m 1xf8
 387 -179.994140625 l 1
 387 511.010742188 l 1
 615 511.010742188 l 1
 615 -179.994140625 l 1xf8
410.512695312 266.154296875 m 0xf4
 410.512695312 357.403816867 386.444454083 414.57421875 332.302734375 414.57421875 c 4
 275.746115069 414.57421875 249.487304688 353.551881011 249.487304688 256.154296875 c 4
 249.487304688 164.024567484 275.746115069 106.275390625 332.302734375 106.275390625 c 4
 386.444454083 106.275390625 410.512695312 167.877623148 410.512695312 266.154296875 c 0xf4
490 260.924804688 m 0
 490 95.3138495731 407.166981544 -10.0751953125 277 -10.0751953125 c 0
 123 -10.0751953125 25 91.4249549279 25 250.924804688 c 0
 25 415.925277218 123 520.924804688 277 520.924804688 c 0
 407.166981544 520.924804688 490 419.814148606 490 260.924804688 c 0
EndSplineSet
Validated: 5
EndChar

StartChar: c
Encoding: 99 99 56
Width: 525
Flags: W
HStem: -10.0664 109.351<211.111 426.038> 411.583 109.351<211.111 424.5>
VStem: 25 237.487<145.777 364.573>
LayerCount: 2
Fore
SplineSet
513.366210938 444.19140625 m 5
 461.9375 356.067382812 l 5
 461.9375 356.067382812 425.51009718 411.583007812 362.697265625 411.583007812 c 4
 293.325799995 411.583007812 262.487304688 351.136691989 262.487304688 254.704101562 c 4
 262.487304688 159.15093667 293.325799995 99.2841796875 362.697265625 99.2841796875 c 0
 430.078608827 99.2841796875 470.393554688 153.310546875 470.393554688 153.310546875 c 1
 515.759765625 62.5087890625 l 1
 515.759765625 62.5087890625 444.562459511 -10.06640625 293 -10.06640625 c 0
 129.221826039 -10.06640625 25 92.9886855259 25 254.93359375 c 4
 25 417.488996187 129.221826039 520.93359375 293 520.93359375 c 4
 451.221723784 520.93359375 513.366210938 444.19140625 513.366210938 444.19140625 c 5
EndSplineSet
Validated: 1
EndChar

StartChar: f
Encoding: 102 102 57
Width: 451
Flags: W
HStem: 0 21G<82 320> 415.011 96<5 436> 664 86.9941<353.904 444>
VStem: 82 238<0 591.107>
LayerCount: 2
Fore
SplineSet
5 511.010742188 m 1
 436 511.010742188 l 1
 436 415.010742188 l 1
 5 415.010742188 l 1
 5 511.010742188 l 1
320 560 m 6
 320 0 l 1
 82 0 l 1
 82 462 l 2
 82 682.228515625 217.295634575 750.994140625 444 750.994140625 c 5
 444 664 l 5
 347.466720698 664 320 624.891885081 320 560 c 6
EndSplineSet
EndChar

StartChar: hyphen
Encoding: 45 45 58
Width: 347
Flags: W
HStem: 216 96<15 332>
VStem: 15 317<216 312>
LayerCount: 2
Fore
SplineSet
15 312 m 5
 332 312 l 5
 332 216 l 5
 15 216 l 5
 15 312 l 5
EndSplineSet
Validated: 1
EndChar

StartChar: equal
Encoding: 61 61 59
Width: 450
Flags: W
HStem: 220 102<15 435> 406 102<15 435>
LayerCount: 2
Fore
SplineSet
15 322 m 1
 435 322 l 1
 435 220 l 5
 15 220 l 5
 15 322 l 1
15 508 m 1
 435 508 l 1
 435 406 l 1
 15 406 l 1
 15 508 l 1
EndSplineSet
Validated: 1
EndChar

StartChar: j
Encoding: 106 106 60
Width: 308
Flags: W
HStem: -179.983 86.9941<-74 -5.94922> 491.011 20G<40 268> 566.002 195<69.953 238.386>
VStem: 26.5 255<603.576 721.451> 40 228<-20.3581 511.011>
LayerCount: 2
Fore
SplineSet
40 21.0107421875 m 2xe8
 40 511.010742188 l 1
 268 511.010742188 l 1
 268 99.0107421875 l 2
 268 -113.597255072 111.836720926 -179.983398438 -74 -179.983398438 c 1
 -74 -92.9892578125 l 1
 -5.25166257748 -92.9892578125 40 -50.1207472278 40 21.0107421875 c 2xe8
26.5 661.001953125 m 4xf0
 26.5 722.113006673 76.2774024024 761.001953125 154.5 761.001953125 c 4
 232.111028097 761.001953125 281.5 722.113006673 281.5 661.001953125 c 4
 281.5 602.946231309 232.111028097 566.001953125 154.5 566.001953125 c 4
 76.2774024024 566.001953125 26.5 602.946231309 26.5 661.001953125 c 4xf0
EndSplineSet
EndChar

StartChar: n
Encoding: 110 110 61
Width: 645
Flags: W
HStem: 0 21G<40 268 385.513 620> 409.583 111.351<300.044 475.833> 491.011 20G<40 268>
VStem: 40 228<0 511.011> 175 69.4873<259.934 346.054> 385.513 234.487<0 393.187>
LayerCount: 2
Fore
SplineSet
40 0 m 5xb4
 40 511.010742188 l 5
 268 511.010742188 l 5
 268 0 l 5
 40 0 l 5xb4
244.487304688 244.704101562 m 5xcc
 175 259.93359375 l 5
 175 419.43344351 261.721892562 520.93359375 398 520.93359375 c 4
 553.666666667 520.93359375 620 434.600132626 620 264 c 6
 620 0 l 5
 385.512695312 0 l 5
 385.512695312 283.704101562 l 6
 385.512695312 361.081164546 378.595411016 409.583007812 322.697265625 409.583007812 c 4
 268.555545917 409.583007812 244.487304688 346.054247458 244.487304688 244.704101562 c 5xcc
EndSplineSet
Validated: 5
EndChar

StartChar: u
Encoding: 117 117 62
Width: 645
Flags: W
HStem: -10 111.351<184.167 359.956> -0.0771484 21G<392 620> 490.934 20G<40 274.487 392 620>
VStem: 40 234.487<117.747 510.934> 392 228<251 510.934> 415.513 69.4873<164.879 251>
LayerCount: 2
Fore
SplineSet
620 510.93359375 m 1x78
 620 -0.0771484375 l 1
 392 -0.0771484375 l 1
 392 510.93359375 l 1
 620 510.93359375 l 1x78
415.512695312 266.229492188 m 1xb4
 485 251 l 1
 485 91.5 398.278320312 -10 262 -10 c 0
 106.333007812 -10 40 76.3330078125 40 246.93359375 c 2
 40 510.93359375 l 1
 274.487304688 510.93359375 l 5
 274.487304688 227.229492188 l 6
 274.487304688 149.852539062 281.404296875 101.350585938 337.302734375 101.350585938 c 4
 391.444230799 101.350585938 415.512695312 164.87890625 415.512695312 266.229492188 c 1xb4
EndSplineSet
Validated: 5
EndChar

StartChar: m
Encoding: 109 109 63
Width: 977
Flags: W
HStem: 0 21G<40 268 375.513 610 717.513 952> 409.583 111.351<296.918 469.08 638.877 811.08> 491.011 20G<40 268>
VStem: 40 228<0 511.011> 175 69.4873<259.934 346.054> 375.513 234.487<0 361.081> 517 69.4873<259.934 346.054> 717.513 234.487<0 393.606>
LayerCount: 2
Fore
SplineSet
586.487304688 244.704101562 m 1xc3
 517 259.93359375 l 1
 517 419.43344351 601.777455509 520.93359375 735 520.93359375 c 0
 887.160660661 520.93359375 952 434.600132626 952 264 c 2
 952 0 l 1
 717.512695312 0 l 1
 717.512695312 283.704101562 l 2
 717.512695312 361.081164546 711.146014931 409.583007812 659.697265625 409.583007812 c 0
 609.016851808 409.583007812 586.487304688 346.054247458 586.487304688 244.704101562 c 1xc3
40 0 m 1xb1
 40 511.010742188 l 1
 268 511.010742188 l 1
 268 0 l 1
 40 0 l 1xb1
244.487304688 244.704101562 m 1xcd
 175 259.93359375 l 1
 175 419.43344351 259.777455509 520.93359375 393 520.93359375 c 0
 545.160660661 520.93359375 610 434.600132626 610 264 c 2
 610 0 l 1
 375.512695312 0 l 5
 375.512695312 283.704101562 l 6
 375.512695312 361.081164546 369.476377279 409.583007812 320.697265625 409.583007812 c 4
 267.940068273 409.583007812 244.487304688 346.054247458 244.487304688 244.704101562 c 1xcd
EndSplineSet
Validated: 5
EndChar

StartChar: v
Encoding: 118 118 64
Width: 610
Flags: W
HStem: 0 21G<193.172 426.436> 491.011 20G<1 256.626 474.118 609>
LayerCount: 2
Fore
SplineSet
201 0 m 5
 1 511.010742188 l 5
 249 511.010742188 l 5
 363.579101562 210.521484375 l 5
 482 511.010742188 l 5
 609 511.010742188 l 5
 419 0 l 5
 201 0 l 5
EndSplineSet
Validated: 1
EndChar

StartChar: w
Encoding: 119 119 65
Width: 941
Flags: W
HStem: 0 21G<169.151 400.509 558.534 791.066> 491.011 20G<1 235.214 424.608 605.776 797.045 940>
LayerCount: 2
Fore
SplineSet
176 0 m 1
 1 511.010742188 l 1
 229 511.010742188 l 1
 328.579101562 190.521484375 l 1
 431 511.010742188 l 1
 599 511.010742188 l 1
 707.579101562 190.521484375 l 1
 803 511.010742188 l 1
 940 511.010742188 l 1
 785 0 l 1
 565 0 l 1
 479.780273438 263.592773438 l 5
 394 0 l 1
 176 0 l 1
EndSplineSet
Validated: 1
EndChar

StartChar: x
Encoding: 120 120 66
Width: 592
Flags: W
HStem: 0 21G<16.1465 177.14 325.912 591.146> 491 20G<1 266.235 414.393 576>
LayerCount: 2
Fore
SplineSet
298.385742188 206.626953125 m 1
 164.146484375 0 l 1
 16.146484375 0 l 1
 209.411132812 292.603515625 l 1
 298.385742188 206.626953125 l 1
368.385742188 206.626953125 m 1
 279.411132812 292.603515625 l 1
 428 511 l 1
 576 511 l 1
 368.385742188 206.626953125 l 1
1 511 m 1
 253 511 l 5
 591.146484375 0 l 1
 339.146484375 0 l 1
 1 511 l 1
EndSplineSet
Validated: 5
EndChar

StartChar: k
Encoding: 107 107 67
Width: 659
Flags: W
HStem: 0 21G<40 278 384.025 658> 491 20G<452.9 628> 731 20G<40 278>
VStem: 40 238<0 751>
LayerCount: 2
Fore
SplineSet
397 0 m 1
 240 242 l 1
 470 511 l 1
 628 511 l 1
 453 311 l 1
 658 0 l 1
 397 0 l 1
40 0 m 1
 40 751 l 5
 278 751 l 5
 278 0 l 1
 40 0 l 1
EndSplineSet
EndChar

StartChar: period
Encoding: 46 46 68
Width: 261
Flags: W
HStem: -10.0664 211<62.9192 198.438>
VStem: 25 211<27.4951 163.014>
LayerCount: 2
Fore
SplineSet
25 94.93359375 m 4
 25 159.711310511 66.2220655228 200.93359375 131 200.93359375 c 4
 195.166666667 200.93359375 236 159.711310511 236 94.93359375 c 4
 236 30.7667433216 195.166666667 -10.06640625 131 -10.06640625 c 4
 66.2220655228 -10.06640625 25 30.7667433216 25 94.93359375 c 4
EndSplineSet
Validated: 1
EndChar

StartChar: h
Encoding: 104 104 69
Width: 645
Flags: W
HStem: 0 21G<40 268 392.513 620> 409.583 111.351<300.259 475.833> 731.011 20G<40 268>
VStem: 40 228<0 751.011> 175 69.4873<259.934 346.054> 392.513 227.487<0 393.187>
LayerCount: 2
Fore
SplineSet
40 0 m 1xf4
 40 751.010742188 l 5
 268 751.010742188 l 5
 268 0 l 1
 40 0 l 1xf4
244.487304688 244.704101562 m 1xec
 175 259.93359375 l 1
 175 419.43344351 261.721892562 520.93359375 398 520.93359375 c 0
 553.666666667 520.93359375 620 434.600132626 620 264 c 2
 620 0 l 1
 392.512695312 0 l 1
 392.512695312 283.704101562 l 2
 392.512695312 361.081164546 385.595411016 409.583007812 329.697265625 409.583007812 c 0
 270.709717669 409.583007812 244.487304688 346.054247458 244.487304688 244.704101562 c 1xec
EndSplineSet
EndChar

StartChar: g
Encoding: 103 103 70
Width: 655
Flags: W
HStem: -190.224 109.351<131.324 344.414> 19.9248 116.351<193.056 366.154> 414.574 106.351<200 374.62>
VStem: 25 224.487<168.044 377.77> 387 228<-34.1707 511.011> 410.513 79.4873<155.789 394.415>
LayerCount: 2
Fore
SplineSet
410.512695312 281.154296875 m 4xf4
 410.512695312 363.181720651 386.444454083 414.57421875 332.302734375 414.57421875 c 0
 275.746115069 414.57421875 249.487304688 359.329784795 249.487304688 271.154296875 c 4
 249.487304688 188.244983989 272.575352027 136.275390625 322.302734375 136.275390625 c 4
 383.367065866 136.275390625 410.512695312 192.098039652 410.512695312 281.154296875 c 4xf4
490 275.924804688 m 4
 490 119.480507605 403.278107438 19.9248046875 267 19.9248046875 c 4
 119.111111111 19.9248046875 25 115.59161296 25 265.924804688 c 4
 25 421.758584299 123 520.924804688 277 520.924804688 c 0
 407.166981544 520.924804688 490 425.647455687 490 275.924804688 c 4
615 76.005859375 m 2xf8
 615 -86.5498046875 520.265625 -190.223632812 316.487304688 -190.223632812 c 0
 154.257958485 -190.223632812 68.12109375 -147.481445312 68.12109375 -147.481445312 c 1
 87.5498046875 -41.357421875 l 1
 87.5498046875 -41.357421875 143.977539062 -80.873046875 246.790039062 -80.873046875 c 0
 356.161132812 -80.873046875 387 -38.4267578125 387 58 c 2
 387 511.010742188 l 1
 615 511.010742188 l 1
 615 76.005859375 l 2xf8
EndSplineSet
Validated: 5
EndChar

StartChar: y
Encoding: 121 121 71
Width: 600
Flags: W
HStem: -179.994 21G<160 311.596> 491.011 20G<1 258.673 462.97 600>
LayerCount: 2
Fore
SplineSet
472 511.010742188 m 5
 600 511.010742188 l 5
 303 -179.994140625 l 1
 160 -179.994140625 l 1
 472 511.010742188 l 5
251 -20 m 1
 1 511.010742188 l 1
 249 511.010742188 l 1
 395.198242188 208.727539062 l 1
 251 -20 l 1
EndSplineSet
Validated: 5
EndChar

StartChar: z
Encoding: 122 122 72
Width: 515
Flags: W
HStem: 0 106<271.522 485> 405.011 106<20 233.478>
LayerCount: 2
Fore
SplineSet
233.477539062 405.010742188 m 1
 20 405.010742188 l 1
 20 511.010742188 l 1
 485 511.010742188 l 1
 485 438.010742188 l 1
 271.522460938 106 l 5
 485 106 l 5
 485 0 l 1
 20 0 l 1
 20 73 l 1
 233.477539062 405.010742188 l 1
EndSplineSet
Validated: 1
EndChar

StartChar: comma
Encoding: 44 44 73
Width: 260
Flags: W
HStem: -64 255<72 114>
VStem: -10 269
LayerCount: 2
Fore
SplineSet
72 191 m 5
 259 191 l 5
 114 -64 l 5
 -10 -64 l 5
 72 191 l 5
EndSplineSet
Validated: 1
EndChar

StartChar: plus
Encoding: 43 43 75
Width: 450
Flags: W
HStem: 316 96<15 435>
VStem: 177 96<154 574>
LayerCount: 2
Fore
SplineSet
177 154 m 1
 177 574 l 1
 273 574 l 1
 273 154 l 1
 177 154 l 1
15 412 m 5
 435 412 l 5
 435 316 l 5
 15 316 l 5
 15 412 l 5
EndSplineSet
Validated: 5
EndChar

StartChar: slash
Encoding: 47 47 76
Width: 360
Flags: W
LayerCount: 2
Fore
SplineSet
1 -200 m 5
 255 781 l 5
 359 781 l 5
 105 -200 l 5
 1 -200 l 5
EndSplineSet
Validated: 1
EndChar

StartChar: bar
Encoding: 124 124 77
Width: 184
Flags: W
VStem: 40 104<-200 781>
LayerCount: 2
Fore
SplineSet
40 -200 m 5
 40 781 l 5
 144 781 l 5
 144 -200 l 5
 40 -200 l 5
EndSplineSet
Validated: 1
EndChar

StartChar: question
Encoding: 63 63 78
Width: 595
Flags: W
HStem: -10.0664 191<183.812 340.509> 623.599 115.394<116.74 285.648>
VStem: 146.5 231<25.6924 144.798> 313.676 257.086<473.93 596.702>
LayerCount: 2
Fore
SplineSet
146.5 84.93359375 m 0xe0
 146.5 143.600585938 191.611328125 180.93359375 262.5 180.93359375 c 0
 332.77734375 180.93359375 377.5 143.600585938 377.5 84.93359375 c 0
 377.5 26.8779296875 332.77734375 -10.06640625 262.5 -10.06640625 c 0
 191.611328125 -10.06640625 146.5 26.8779296875 146.5 84.93359375 c 0xe0
210 623.598632812 m 0
 118.442382812 623.598632812 51.3955078125 570.754882812 51.3955078125 570.754882812 c 1
 15.1796875 670.796875 l 1
 15.1796875 670.796875 102.26953125 738.9921875 275.548828125 738.9921875 c 0
 469 738.9921875 570.76171875 653.270507812 570.76171875 524.010742188 c 0
 570.76171875 425.276640552 514.252148269 383.555507353 428.399414062 340.4375 c 0
 356.637408245 304.396310129 345.573242188 285.744688187 345.573242188 230 c 1
 170 230 l 1
 170 328.394007179 183.19779052 380.248973486 250.520507812 434.80078125 c 0
 294.221703775 470.211996619 313.67578125 491.117567508 313.67578125 542 c 0xd0
 313.67578125 593 276.422362962 623.598632812 210 623.598632812 c 0
EndSplineSet
EndChar

StartChar: parenleft
Encoding: 40 40 79
Width: 363
Flags: W
HStem: -200.066 86.3506<274.439 347.697> 694.642 86.3506<274.2 347.697>
VStem: 25 113.487<83.3935 490.346>
LayerCount: 2
Fore
SplineSet
348 -200.06640625 m 0
 140.126126126 -200.06640625 25 -11.845031082 25 283.93359375 c 0
 25 587.69133714 140.00003278 780.992195952 347.697265625 780.9921875 c 1
 348 694.641601562 l 1
 212.336132056 694.641601562 138.487304688 536.305095383 138.487304688 283.704101562 c 4
 138.487304688 39.3677843879 212.242119415 -113.715820312 347.697265625 -113.715820312 c 0
 348 -200.06640625 l 0
EndSplineSet
Validated: 1
EndChar

StartChar: ampersand
Encoding: 38 38 80
Width: 773
Flags: W
HStem: -9.99805 117.938<318.796 477.988> 321.737 101.744<339.32 446.46 616.46 758.772> 322 41<467.71 616.46> 621.599 117.394<245.14 485.691>
VStem: 25 260.084<141.334 280.071> 44.8408 257.086<458.76 589.444> 519.037 161.882<147.806 301.624>
LayerCount: 2
Fore
SplineSet
424.772460938 423.481445312 m 2xd6
 758.772460938 423.481445312 l 1xd6
 758.911132812 322 l 1xb6
 424.772460938 321.737304688 l 2xd6
 318.311138744 321.653606234 285.083984375 275.270507812 285.083984375 209 c 0
 285.083984375 140.040039062 325.389058451 107.939453125 391 107.939453125 c 0
 486.202886493 107.939453125 519.037109375 156.883338166 519.037109375 211 c 0
 519.037109375 320.005164607 446.459960938 355 446.459960938 355 c 1
 616.459960938 363 l 1
 616.459960938 363 680.918945312 306.123523728 680.918945312 201 c 4
 680.918945312 100.780079605 605.991425297 -9.998046875 370 -9.998046875 c 0
 152.205463248 -9.998046875 25 58.681640625 25 198 c 0xba
 25 348 173.748046875 375.697265625 173.748046875 375.697265625 c 1
 173.748046875 375.697265625 44.8408203125 415 44.8408203125 535.868164062 c 0
 44.8408203125 670.857421875 159.369140625 738.9921875 330.911132812 738.9921875 c 0
 496.854492188 738.9921875 591.280273438 670.796875 591.280273438 670.796875 c 1
 555.064453125 570.754882812 l 1
 555.064453125 570.754882812 495.46875 621.598632812 411.911132812 621.598632812 c 0
 343.426757812 621.598632812 301.926757812 591.552734375 301.926757812 524.05859375 c 0
 301.926757812 458.360351562 341.061523438 423.481445312 424.772460938 423.481445312 c 2xd6
EndSplineSet
EndChar

StartChar: less
Encoding: 60 60 81
Width: 450
Flags: W
LayerCount: 2
Fore
SplineSet
15 422 m 5
 435 562 l 5
 435 460 l 5
 148 364 l 5
 435 268 l 5
 435 166 l 5
 15 306 l 5
 15 422 l 5
EndSplineSet
Validated: 1
EndChar

StartChar: greater
Encoding: 62 62 82
Width: 450
Flags: W
LayerCount: 2
Fore
SplineSet
435 422 m 1
 435 306 l 1
 15 166 l 1
 15 269 l 5
 302 364 l 1
 15 459 l 1
 15 562 l 1
 435 422 l 1
EndSplineSet
Validated: 1
EndChar

StartChar: underscore
Encoding: 95 95 84
Width: 607
Flags: W
HStem: -103 103<15 592>
LayerCount: 2
Fore
SplineSet
15 0 m 5
 592 0 l 5
 592 -103 l 5
 15 -103 l 5
 15 0 l 5
EndSplineSet
Validated: 1
EndChar

StartChar: asciicircum
Encoding: 94 94 85
Width: 457
Flags: W
HStem: 470 311
LayerCount: 2
Fore
SplineSet
178 781 m 1
 279 781 l 1
 456 470 l 1
 351 470 l 1
 228.5 697.567382812 l 5
 105 470 l 1
 1 470 l 1
 178 781 l 1
EndSplineSet
Validated: 1
EndChar

StartChar: bracketleft
Encoding: 91 91 86
Width: 342
Flags: W
HStem: -200 82<144 327> 699 82<144 327>
VStem: 40 104<-118 699>
LayerCount: 2
Fore
SplineSet
144 699 m 5
 144 -118 l 5
 327 -118 l 1
 327 -200 l 1
 40 -200 l 1
 40 781 l 1
 327 781 l 1
 327 699 l 1
 144 699 l 5
EndSplineSet
Validated: 1
EndChar

StartChar: bracketright
Encoding: 93 93 87
Width: 342
Flags: W
HStem: -200 82<15 198> 699 82<15 198>
VStem: 198 104<-118 699>
LayerCount: 2
Fore
SplineSet
198 699 m 5
 15 699 l 1
 15 781 l 1
 302 781 l 1
 302 -200 l 1
 15 -200 l 1
 15 -118 l 1
 198 -118 l 5
 198 699 l 5
EndSplineSet
Validated: 1
EndChar

StartChar: braceleft
Encoding: 123 123 88
Width: 422
Flags: W
HStem: -210 81<217.517 384.259> 276 76<15 141.5> 711 80<221.881 385.346>
VStem: 98 104<-113.336 29.0561 561.493 692.275> 166 94<98.8924 249.832 369.35 495.034>
LayerCount: 2
Fore
SplineSet
204 641.06640625 m 0xe8
 204 573.658581648 260 507.203411143 260 426 c 0
 260 347.504617358 200 312 200 312 c 1
 200 312 260 254.010101268 260 172 c 0xe8
 260 69.3883669599 202 19.2250842047 202 -58 c 0
 202 -109.377029853 227.554894721 -129 282 -129 c 0
 339.863864692 -129 392 -104 392 -104 c 5
 407 -177 l 5
 407 -177 357.759986523 -210 260.174804688 -210 c 0
 153.052318764 -210 98 -158.265068519 98 -57.59765625 c 0xf0
 98 28.4342012461 166 113.834591952 166 178 c 0
 166 235.407070887 137.005050634 276 96 276 c 2
 15 276 l 1
 15 352 l 1
 96 352 l 2
 137.005050634 352 166 378.509667992 166 416 c 0
 166 480.730926984 100 562.382387429 100 647.200195312 c 0
 100 742.595224101 155.788220979 791 265.734375 791 c 0
 360.135134229 791 407 758 407 758 c 5
 392 686 l 5
 392 686 348.661288015 711 287.37109375 711 c 0
 232.016131115 711 204 687.499423916 204 641.06640625 c 0xe8
EndSplineSet
Validated: 1
EndChar

StartChar: dollar
Encoding: 36 36 89
Width: 625
Flags: W
HStem: -110 170<256 354> -10 107.462<131.079 335.669> 626.659 112.462<292.42 487.126> 657 184.008<256 354>
VStem: 25 244.312<441.729 602.155> 256 98<-110 60 657 841.008> 357.711 248.182<123.952 286.82>
LayerCount: 2
Fore
SplineSet
354 60 m 5x86
 354 -110 l 5
 256 -110 l 5
 256 60 l 5
 354 60 l 5x86
354 657 m 5x16
 256 657 l 5
 256 841.0078125 l 5
 354 841.0078125 l 5
 354 657 l 5x16
EndSplineSet
Refer: 25 83 N 1 0 0 1 0 0 2
Validated: 5
EndChar

StartChar: percent
Encoding: 37 37 90
Width: 973
Flags: W
HStem: -10 86.3506<705.494 765.91> 0 21G<182 316.352> 312.649 86.3506<705.494 765.91> 329.934 86.3506<207.494 267.91> 652.583 86.3506<207.494 267.91> 711 20G<656.648 791>
VStem: 25 165.487<434.417 631.959> 284.513 165.487<433.708 631.959> 523 165.487<94.4833 292.026> 782.513 165.487<93.7748 292.026>
LayerCount: 2
Back
SplineSet
688.487304688 221.770507812 m 4xa3c0
 688.487304688 132.365407064 704.554336551 76.3505859375 740.697265625 76.3505859375 c 4
 769.254013406 76.3505859375 782.512695312 109.253791927 782.512695312 161.770507812 c 4
 782.512695312 254.514931637 765.766174059 312.649414062 729.697265625 312.649414062 c 4
 701.169209511 312.649414062 688.487304688 277.633265619 688.487304688 221.770507812 c 4xa3c0
523 192 m 4
 523 318.499880844 605.833018456 399 736 399 c 4
 865.555555556 399 948 318.499880844 948 192 c 4
 948 68.5552020329 865.555555556 -10 736 -10 c 4
 605.833018456 -10 523 68.5552020329 523 192 c 4
190.487304688 561.704101562 m 0
 190.487304688 472.299000814 206.554336551 416.284179688 242.697265625 416.284179688 c 0
 271.254013406 416.284179688 284.512695312 449.187385677 284.512695312 501.704101562 c 0
 284.512695312 594.448525387 267.766174059 652.583007812 231.697265625 652.583007812 c 0x1bc0
 203.169209511 652.583007812 190.487304688 617.566859369 190.487304688 561.704101562 c 0
25 531.93359375 m 0
 25 658.433474594 107.833018456 738.93359375 238 738.93359375 c 0
 367.555555556 738.93359375 450 658.433474594 450 531.93359375 c 0
 450 408.488795783 367.555555556 329.93359375 238 329.93359375 c 0
 107.833018456 329.93359375 25 408.488795783 25 531.93359375 c 0
182 0 m 1x47c0
 670 731 l 1
 791 731 l 5
 303 0 l 5
 182 0 l 1x47c0
EndSplineSet
Fore
SplineSet
688.487304688 191.770507812 m 4xa3c0
 688.487304688 120.809599496 703.015642442 76.3505859375 735.697265625 76.3505859375 c 4
 767.668631884 76.3505859375 782.512695312 120.809599496 782.512695312 191.770507812 c 4
 782.512695312 266.074098628 767.668631884 312.649414062 735.697265625 312.649414062 c 4
 703.015642442 312.649414062 688.487304688 266.074098628 688.487304688 191.770507812 c 4xa3c0
523 192 m 4
 523 318.499880844 605.833018456 399 736 399 c 4
 865.555555556 399 948 318.499880844 948 192 c 4
 948 68.5552020329 865.555555556 -10 736 -10 c 4
 605.833018456 -10 523 68.5552020329 523 192 c 4
190.487304688 531.704101562 m 4
 190.487304688 460.743193246 205.015642442 416.284179688 237.697265625 416.284179688 c 4
 269.668631884 416.284179688 284.512695312 460.743193246 284.512695312 531.704101562 c 4
 284.512695312 606.007692378 269.668631884 652.583007812 237.697265625 652.583007812 c 4x1bc0
 205.015642442 652.583007812 190.487304688 606.007692378 190.487304688 531.704101562 c 4
25 531.93359375 m 4
 25 658.433474594 107.833018456 738.93359375 238 738.93359375 c 4
 367.555555556 738.93359375 450 658.433474594 450 531.93359375 c 4
 450 408.488795783 367.555555556 329.93359375 238 329.93359375 c 4
 107.833018456 329.93359375 25 408.488795783 25 531.93359375 c 4
EndSplineSet
Refer: 149 8260 N 1 0 0 1 352 0 2
Validated: 1
EndChar

StartChar: braceright
Encoding: 125 125 91
Width: 422
Flags: W
HStem: -210 81<37.7406 204.483> 276 76<280.5 407> 711 80<36.6542 200.119>
VStem: 162 94<98.8926 249.832 369.35 495.034> 220 104<-113.335 29.0562 561.493 692.275>
LayerCount: 2
Fore
SplineSet
218 641.06640625 m 0xf0
 218 687.499023438 189.983398438 711 134.62890625 711 c 0
 73.3388671875 711 30 686 30 686 c 5
 15 758 l 5
 15 758 61.865234375 791 156.265625 791 c 0
 266.211914062 791 322 742.595703125 322 647.200195312 c 0
 322 562.3828125 256 480.73046875 256 416 c 0
 256 378.509765625 284.995117188 352 326 352 c 2
 407 352 l 1
 407 276 l 1
 326 276 l 2
 284.995117188 276 256 235.407226562 256 178 c 0xf0
 256 113.834960938 324 28.4345703125 324 -57.59765625 c 0
 324 -158.264648438 268.947265625 -210 161.825195312 -210 c 0
 64.240234375 -210 15 -177 15 -177 c 5
 30 -104 l 5
 30 -104 82.1357421875 -129 140 -129 c 0
 194.4453125 -129 220 -109.376953125 220 -58 c 0xe8
 220 19.224609375 162 69.388671875 162 172 c 0
 162 254.009765625 222 312 222 312 c 1
 222 312 162 347.504882812 162 426 c 0
 162 507.203125 218 573.658203125 218 641.06640625 c 0xf0
EndSplineSet
Validated: 1
EndChar

StartChar: numbersign
Encoding: 35 35 92
Width: 699
Flags: W
HStem: 0 21G<92 200.022 356 464.022> 181 97<14 644> 450 97<54 684> 711.008 20G<234.978 343 498.978 607>
LayerCount: 2
Fore
SplineSet
14 278 m 1
 644 278 l 1
 644 181 l 1
 14 181 l 1
 14 278 l 1
54 547 m 1
 684 547 l 1
 684 450 l 1
 54 450 l 1
 54 547 l 1
356 0 m 1
 503 731.0078125 l 1
 607 731.0078125 l 1
 460 0 l 1
 356 0 l 1
92 0 m 1
 239 731.0078125 l 1
 343 731.0078125 l 1
 196 0 l 1
 92 0 l 1
EndSplineSet
Validated: 5
EndChar

StartChar: asterisk
Encoding: 42 42 93
Width: 400
Flags: W
HStem: 718.992 20G<151.534 248.905>
LayerCount: 2
Fore
SplineSet
248.905273438 738.9921875 m 1
 240.896484375 602.151367188 l 1
 361.440429688 654.549804688 l 1
 395.440429688 573.369140625 l 1
 265.896484375 529.767578125 l 1
 355.905273438 427.006835938 l 5
 282.75390625 368.916992188 l 5
 200.219726562 487.075195312 l 1
 117.685546875 368.916992188 l 1
 44.5341796875 427.006835938 l 1
 134.54296875 529.767578125 l 1
 5 573.369140625 l 1
 39 654.549804688 l 1
 159.54296875 602.151367188 l 1
 151.534179688 738.9921875 l 1
 248.905273438 738.9921875 l 1
EndSplineSet
Validated: 1
EndChar

StartChar: asciitilde
Encoding: 126 126 94
Width: 506
VWidth: 999
Flags: W
HStem: 290 90<280.951 405.19> 353 89<95.6286 226.339>
LayerCount: 2
Fore
SplineSet
501 375 m 5x80
 501 375 441.196721311 290 349 290 c 4x80
 256.923076924 290 226.23076923 353 159 353 c 4
 104.47826087 353 60 302 60 302 c 5
 5 375 l 5
 5 375 71.0327868853 442 157 442 c 4x40
 247.615384616 442 285.615384616 380 347 380 c 4
 399.846153846 380 442 437 442 437 c 5
 501 375 l 5x80
EndSplineSet
Validated: 1
EndChar

StartChar: cent
Encoding: 162 162 95
Width: 525
Flags: W
HStem: 10 170<256 354> 99.9336 109.351<211.111 426.038> 521.583 109.351<211.111 424.5> 537 184.008<256 354>
VStem: 25 237.487<255.777 474.573> 256 98<10 180 537 721.008>
LayerCount: 2
Fore
SplineSet
354 180 m 5x84
 354 10 l 5
 256 10 l 5
 256 180 l 5
 354 180 l 5x84
354 537 m 1x14
 256 537 l 1
 256 721.0078125 l 1
 354 721.0078125 l 1
 354 537 l 1x14
EndSplineSet
Refer: 56 99 N 1 0 0 1 0 110 2
Validated: 5
EndChar

StartChar: sterling
Encoding: 163 163 96
Width: 680
Flags: W
HStem: 0 106<333 531.383> 296 96<36 553> 609.583 129.351<289.472 524.653>
VStem: 86 267.928<394.345 577.804> 147 248<161.08 295.667>
LayerCount: 2
Fore
SplineSet
36 392 m 1xe0
 553 392 l 1
 553 296 l 1
 36 296 l 1
 36 392 l 1xe0
353.927734375 513 m 0xf0
 353.927734375 435.806252792 395 335.940606422 395 251 c 0
 395 158.297297297 333 106 333 106 c 1
 446 106 l 2
 558.531914894 106 580 186 580 186 c 1
 670 130 l 1
 670 130 621.692087156 -2.02907582709e-14 456 0 c 2
 35 0 l 1
 35 89 l 1
 35 89 147 116.697674419 147 231 c 0xe8
 147 350.681976547 86 391.47696832 86 501 c 0
 86 646.403725885 199.944011304 738.93359375 379 738.93359375 c 0
 534.401668618 738.93359375 609.366210938 674.19140625 609.366210938 674.19140625 c 1
 576.9375 573.067382812 l 1
 576.9375 573.067382812 533.902965961 609.583007812 459.697265625 609.583007812 c 0
 386.4771253 609.583007812 353.927734375 572.369037286 353.927734375 513 c 0xf0
EndSplineSet
EndChar

StartChar: yen
Encoding: 165 165 97
Width: 710
Flags: W
HStem: 0 21G<234 492> 110 92<105 625> 220 131<271 449> 256 92<105 625> 711 20G<1 274.299 556.437 709>
VStem: 234 258<0 351>
LayerCount: 2
Fore
SplineSet
105 202 m 1xcc
 625 202 l 5
 625 110 l 5
 105 110 l 1
 105 202 l 1xcc
105 348 m 1xdc
 625 348 l 5
 625 256 l 5
 105 256 l 1
 105 348 l 1xdc
EndSplineSet
Refer: 27 89 N 1 0 0 1 0 0 2
Validated: 5
EndChar

StartChar: brokenbar
Encoding: 166 166 98
Width: 184
Flags: W
VStem: 40 104<-200 223.35 357.65 781>
LayerCount: 2
Fore
SplineSet
40 357.650390625 m 1
 40 781 l 1
 144 781 l 1
 144 357.650390625 l 1
 40 357.650390625 l 1
40 223.349609375 m 1
 144 223.349609375 l 1
 144 -200 l 1
 40 -200 l 1
 40 223.349609375 l 1
EndSplineSet
Validated: 1
EndChar

StartChar: dieresis
Encoding: 168 168 99
Width: 461
Flags: W
HStem: 567.992 171<49.7105 171.577 289.711 411.577>
VStem: 25 171<592.415 714.282> 265 171<592.415 714.282>
LayerCount: 2
Fore
SplineSet
265 652.9921875 m 4
 265 705.547693551 298.444317311 738.9921875 351 738.9921875 c 4
 402.944444444 738.9921875 436 705.547693551 436 652.9921875 c 4
 436 601.047594296 402.944444444 567.9921875 351 567.9921875 c 4
 298.444317311 567.9921875 265 601.047594296 265 652.9921875 c 4
25 652.9921875 m 0
 25 705.547693551 58.444317311 738.9921875 111 738.9921875 c 4
 162.944444444 738.9921875 196 705.547693551 196 652.9921875 c 4
 196 601.047594296 162.944444444 567.9921875 111 567.9921875 c 4
 58.444317311 567.9921875 25 601.047594296 25 652.9921875 c 0
EndSplineSet
Validated: 1
EndChar

StartChar: logicalnot
Encoding: 172 172 100
Width: 450
Flags: W
HStem: 316 96<15 339>
VStem: 339 96<192 316>
LayerCount: 2
Fore
SplineSet
435 412 m 1
 435 192 l 1
 339 192 l 1
 339 316 l 1
 15 316 l 1
 15 412 l 1
 435 412 l 1
EndSplineSet
Validated: 1
EndChar

StartChar: uni00AD
Encoding: 173 173 101
Width: 347
Flags: W
HStem: 216 96<15 332>
VStem: 15 317<216 312>
LayerCount: 2
Fore
SplineSet
15 312 m 5
 332 312 l 5
 332 216 l 5
 15 216 l 5
 15 312 l 5
EndSplineSet
Validated: 1
EndChar

StartChar: macron
Encoding: 175 175 102
Width: 387
Flags: W
HStem: 635.008 96<15 372>
LayerCount: 2
Fore
SplineSet
15 731.0078125 m 1
 372 731.0078125 l 5
 372 635.0078125 l 5
 15 635.0078125 l 1
 15 731.0078125 l 1
EndSplineSet
Validated: 1
EndChar

StartChar: degree
Encoding: 176 176 103
Width: 395
Flags: W
HStem: 409.934 66.3506<172.584 222.834> 672.583 66.3506<172.902 222.517>
VStem: 25 135.487<486.338 660.55> 234.513 135.487<485.869 660.55>
LayerCount: 2
Fore
SplineSet
160.487304688 571.704101562 m 0
 160.487304688 513.039321533 171.938254224 476.284179688 197.697265625 476.284179688 c 4
 222.839394927 476.284179688 234.512695312 513.039321533 234.512695312 571.704101562 c 0
 234.512695312 633.713803705 222.839394927 672.583007812 197.697265625 672.583007812 c 0
 171.938254224 672.583007812 160.487304688 633.713803705 160.487304688 571.704101562 c 0
25 571.93359375 m 0
 25 673.989053175 92.2775220325 738.93359375 198 738.93359375 c 0
 303.111111111 738.93359375 370 673.989053175 370 571.93359375 c 0
 370 472.933310232 303.111111111 409.93359375 198 409.93359375 c 0
 92.2775220325 409.93359375 25 472.933310232 25 571.93359375 c 0
EndSplineSet
Validated: 1
EndChar

StartChar: plusminus
Encoding: 177 177 104
Width: 450
Flags: W
HStem: 154 96<15 177 273 435> 184 66<177 273> 346 96<15 435>
VStem: 177 96<184 574>
LayerCount: 2
Fore
SplineSet
15 250 m 1xb0
 435 250 l 1
 435 154 l 1
 15 154 l 1
 15 250 l 1xb0
177 184 m 5x70
 177 574 l 1
 273 574 l 1
 273 184 l 5
 177 184 l 5x70
15 442 m 5
 435 442 l 5
 435 346 l 5
 15 346 l 5
 15 442 l 5
EndSplineSet
Validated: 5
EndChar

StartChar: mu
Encoding: 181 181 105
Width: 645
Flags: W
HStem: -179.994 21G<40 268> -10 111.351<268.117 363.671> -0.0771484 21G<392 620> 491.011 20G<40 268 392 620>
VStem: 40 228<227.229 511.011> 120 114.487<149.853 300.934> 392 228<261 510.934> 408.513 69.4873<156.912 261>
LayerCount: 2
Fore
SplineSet
40 -179.994140625 m 1x98
 40 511.010742188 l 1
 268 511.010742188 l 1
 268 -179.994140625 l 1
 40 -179.994140625 l 1x98
620 510.93359375 m 1xb2
 620 -0.0771484375 l 1
 392 -0.0771484375 l 1
 392 510.93359375 l 1
 620 510.93359375 l 1xb2
408.512695312 276.229492188 m 5xd5
 478 261 l 5
 478 146.538314176 409.555983744 -10 302 -10 c 4
 174.381114513 -10 120 76.3330078125 120 246.93359375 c 6
 120 300.93359375 l 5
 234.487304688 300.93359375 l 5
 234.487304688 227.229492188 l 6
 234.487304688 149.852539062 242.505458201 101.350585938 295 101.350585938 c 4
 377.366172235 101.350585938 408.512695312 156.91241806 408.512695312 276.229492188 c 5xd5
EndSplineSet
Validated: 5
EndChar

StartChar: guilsinglleft
Encoding: 8249 8249 106
Width: 296
Flags: W
VStem: 25 271
LayerCount: 2
Fore
SplineSet
25 282 m 1
 174 431 l 1
 296 431 l 1
 138 254 l 5
 296 77 l 1
 174 77 l 1
 25 226 l 1
 25 282 l 1
EndSplineSet
Validated: 1
EndChar

StartChar: guilsinglright
Encoding: 8250 8250 107
Width: 296
Flags: W
VStem: 1 271
LayerCount: 2
Fore
SplineSet
272 282 m 1
 272 226 l 5
 123 77 l 1
 1 77 l 1
 159 254 l 1
 1 431 l 1
 123 431 l 1
 272 282 l 1
EndSplineSet
Validated: 1
EndChar

StartChar: acute
Encoding: 180 180 113
Width: 240
Flags: W
HStem: 546.008 185<72 94>
VStem: -10 249
LayerCount: 2
Fore
SplineSet
72 731.0078125 m 1
 239 731.0078125 l 1
 94 546.0078125 l 5
 -10 546.0078125 l 1
 72 731.0078125 l 1
EndSplineSet
Validated: 1
EndChar

StartChar: paragraph
Encoding: 182 182 114
Width: 748
Flags: W
HStem: -180 21G<352 490 570 708> 624.997 106<490 570>
VStem: 25 465<349.497 580.591> 352 138<-180 201.957> 570 138<-180 624.997>
LayerCount: 2
Fore
SplineSet
352 -180 m 1xd8
 352 201.95703125 l 1xd8
 337 201.95703125 l 2
 120.308357349 201.95703125 25 303.836347067 25 463.93359375 c 0xe8
 25 627.138897919 117.459064916 730.990013146 332 730.997070312 c 2
 708 731.0078125 l 1
 708 -180 l 1
 570 -180 l 1
 570 624.997070312 l 1
 490 624.997070312 l 1
 490 -180 l 1
 352 -180 l 1xd8
EndSplineSet
Validated: 1
EndChar

StartChar: cedilla
Encoding: 184 184 115
Width: 272
Flags: W
HStem: -239.994 67.9746<28.4739 125.5> -97.2998 133.708<55.1523 124.632>
VStem: 129.702 118.034<-166.757 -102.327>
LayerCount: 2
Fore
SplineSet
136.112304688 36.40625 m 5
 124.751953125 -41.9951171875 l 5
 124.751953125 -41.9951171875 133.958007812 -38.39453125 152.15234375 -38.39453125 c 4
 204.994140625 -38.39453125 247.736328125 -72.4052734375 247.736328125 -135.1953125 c 4
 247.736328125 -205.955078125 192.318359375 -239.994140625 117.372070312 -239.994140625 c 4
 48.8203125 -239.994140625 8 -207.1953125 8 -207.1953125 c 5
 23.8525390625 -145.995117188 l 5
 23.8525390625 -145.995117188 47.8486328125 -172.01953125 81.9716796875 -172.01953125 c 4
 113.375 -172.01953125 129.702148438 -158.772460938 129.702148438 -134.794921875 c 4
 129.702148438 -113.509765625 116.279296875 -97.2998046875 81.751953125 -97.2998046875 c 4
 54.72265625 -97.2998046875 32.6572265625 -106.794921875 32.6572265625 -106.794921875 c 5
 55.15234375 36.408203125 l 5
 136.112304688 36.40625 l 5
EndSplineSet
Validated: 1
EndChar

StartChar: copyright
Encoding: 169 169 116
Width: 815
Flags: W
HStem: -10.0664 86.3506<285.696 529.176> 158.459 71.1428<358.55 503.12> 499.266 71.1428<358.55 502.4> 652.583 86.3506<285.696 529.176>
VStem: 25 89.4873<243.132 482.432> 212.546 164.718<287.635 439.709> 700.513 89.4873<243.132 482.432>
LayerCount: 2
Fore
SplineSet
114.487304688 361.704101562 m 4
 114.487304688 186.226102799 226.998941582 76.2841796875 407.697265625 76.2841796875 c 4
 585.384890052 76.2841796875 700.512695312 186.226102799 700.512695312 361.704101562 c 4
 700.512695312 540.505746096 585.384890052 652.583007812 407.697265625 652.583007812 c 4
 226.998941582 652.583007812 114.487304688 540.505746096 114.487304688 361.704101562 c 4
25 361.93359375 m 4
 25 592.322265625 173.943878257 738.93359375 408 738.93359375 c 4
 641.444444444 738.93359375 790 592.322265625 790 361.93359375 c 4
 790 134.599609375 641.444444444 -10.06640625 408 -10.06640625 c 4
 173.943878257 -10.06640625 25 134.599609375 25 361.93359375 c 4
EndSplineSet
Refer: 20 67 N 0.55 0 0 0.55 198.796 163.995 2
Validated: 1
EndChar

StartChar: registered
Encoding: 174 174 117
Width: 815
Flags: W
HStem: -10.0664 86.3506<285.696 529.176> 164.475 11.55G<218.617 360.517 466.097 606.347> 319.551 56.2656<338.517 397.464> 508.055 58.4689<360.517 416.249> 652.583 86.3506<285.696 529.176>
VStem: 25 89.4873<243.132 482.432> 218.617 141.9<164.475 319.551 375.817 508.055> 338.517 22<319.551 375.817> 441.649 131.718<399.983 484.687> 700.513 89.4873<243.132 482.432>
LayerCount: 2
Fore
SplineSet
114.487304688 361.704101562 m 0xfcc0
 114.487304688 186.226102799 226.998941582 76.2841796875 407.697265625 76.2841796875 c 0
 585.384890052 76.2841796875 700.512695312 186.226102799 700.512695312 361.704101562 c 0
 700.512695312 540.505746096 585.384890052 652.583007812 407.697265625 652.583007812 c 0
 226.998941582 652.583007812 114.487304688 540.505746096 114.487304688 361.704101562 c 0xfcc0
25 361.93359375 m 0
 25 592.322265625 173.943878257 738.93359375 408 738.93359375 c 0
 641.444444444 738.93359375 790 592.322265625 790 361.93359375 c 0
 790 134.599609375 641.444444444 -10.06640625 408 -10.06640625 c 0
 173.943878257 -10.06640625 25 134.599609375 25 361.93359375 c 0
EndSplineSet
Refer: 18 82 S 0.55 0 0 0.55 196.617 164.475 2
Validated: 5
EndChar

StartChar: uni2117
Encoding: 8471 8471 118
Width: 815
Flags: W
HStem: -10.0664 86.3506<285.696 529.176> 164.475 11.55G<245.125 387.025> 297.551 56.2656<348.525 440.225> 508.055 58.4689<387.025 437.23> 652.583 86.3506<285.696 529.176>
VStem: 25 89.4873<243.132 482.432> 245.125 141.9<164.475 297.551 353.817 508.055> 348.525 38.5<297.551 353.817> 468.157 131.718<381.751 480.747> 700.513 89.4873<243.132 482.432>
LayerCount: 2
Fore
SplineSet
114.487304688 361.704101562 m 0xfcc0
 114.487304688 186.226102799 226.998941582 76.2841796875 407.697265625 76.2841796875 c 0
 585.384890052 76.2841796875 700.512695312 186.226102799 700.512695312 361.704101562 c 0
 700.512695312 540.505746096 585.384890052 652.583007812 407.697265625 652.583007812 c 0
 226.998941582 652.583007812 114.487304688 540.505746096 114.487304688 361.704101562 c 0xfcc0
25 361.93359375 m 0
 25 592.322265625 173.943878257 738.93359375 408 738.93359375 c 0
 641.444444444 738.93359375 790 592.322265625 790 361.93359375 c 0
 790 134.599609375 641.444444444 -10.06640625 408 -10.06640625 c 0
 173.943878257 -10.06640625 25 134.599609375 25 361.93359375 c 0
EndSplineSet
Refer: 12 80 S 0.55 0 0 0.55 223.125 164.475 2
Validated: 5
EndChar

StartChar: section
Encoding: 167 167 119
Width: 575
Flags: W
HStem: -42.4473 93.5664<117.056 302.115> 677.875 93.5664<273.835 458.894>
VStem: 20 168.994<279.696 411.856> 44.7646 218.399<552.873 666.81> 312.786 218.399<62.1843 176.121> 386.956 168.994<317.138 449.298>
LayerCount: 2
Fore
SplineSet
428.18359375 237.943359375 m 5xd4
 352.083984375 283.043945312 l 5
 374.732421875 294.043945312 386.956054688 303.06640625 386.956054688 329.244140625 c 4
 386.956054688 368.892578125 343.806640625 385.659179688 251.14453125 414.08984375 c 4
 123.470703125 453.262695312 44.7646484375 506.564453125 44.7646484375 599.181640625 c 4
 44.7646484375 705.342773438 139.653320312 771.44140625 317.313476562 771.44140625 c 4
 448.456054688 771.44140625 531.583984375 727.6796875 531.583984375 727.6796875 c 5
 505.18359375 631.879882812 l 5
 505.18359375 631.879882812 441.5859375 677.875 346.510742188 677.875 c 4
 295.150390625 677.875 263.1640625 663.056640625 263.1640625 638.34375 c 4
 263.1640625 603.8515625 289.059570312 593.280273438 364.326171875 574.198242188 c 4
 506.501953125 538.153320312 555.950195312 487.744140625 555.950195312 410.852539062 c 4
 555.950195312 303.116210938 499.369140625 269.452148438 428.18359375 237.943359375 c 5xd4
147.766601562 491.05078125 m 1
 223.866210938 445.950195312 l 1
 201.217773438 434.950195312 188.994140625 425.927734375 188.994140625 399.75 c 0
 188.994140625 360.1015625 232.143554688 343.334960938 324.805664062 314.904296875 c 0
 452.479492188 275.731445312 531.185546875 222.4296875 531.185546875 129.8125 c 0
 531.185546875 23.6513671875 436.296875 -42.447265625 258.63671875 -42.447265625 c 0
 127.494140625 -42.447265625 44.3662109375 1.314453125 44.3662109375 1.314453125 c 1
 70.7666015625 97.1142578125 l 1
 70.7666015625 97.1142578125 134.364257812 51.119140625 229.439453125 51.119140625 c 0
 280.799804688 51.119140625 312.786132812 65.9375 312.786132812 90.650390625 c 0
 312.786132812 125.142578125 286.890625 135.713867188 211.624023438 154.795898438 c 0
 69.4482421875 190.840820312 20 241.25 20 318.141601562 c 0xe8
 20 425.877929688 76.5810546875 459.541992188 147.766601562 491.05078125 c 1
EndSplineSet
Validated: 5
EndChar

StartChar: currency
Encoding: 164 164 120
Width: 466
Flags: W
HStem: 165.874 87.8984<169.997 297.699> 457.095 87.8984<169.997 297.699>
VStem: 37.8721 96.7334<288.898 421.159> 332.258 96.7334<288.898 421.159>
LayerCount: 2
Fore
SplineSet
72.443359375 264.438476562 m 5
 134.810546875 202.071289062 l 5
 63.3662109375 130.627929688 l 5
 1 192.994140625 l 5
 72.443359375 264.438476562 l 5
316.633789062 508.62890625 m 5
 403.377929688 595.372070312 l 5
 465.744140625 533.005859375 l 5
 379.000976562 446.26171875 l 5
 316.633789062 508.62890625 l 5
134.60546875 354.904296875 m 0
 134.60546875 293.1015625 173.243164062 253.772460938 233.9609375 253.772460938 c 0
 294.03125 253.772460938 332.2578125 293.1015625 332.2578125 354.904296875 c 0
 332.2578125 417.353515625 294.03125 457.094726562 233.9609375 457.094726562 c 0
 173.243164062 457.094726562 134.60546875 417.353515625 134.60546875 354.904296875 c 0
37.8720703125 354.473632812 m 0
 37.8720703125 470.90106017 114.295263711 544.993164062 234.391601562 544.993164062 c 0
 353.314119367 544.993164062 428.991210938 470.90106017 428.991210938 354.473632812 c 0
 428.991210938 239.218102356 353.314119367 165.874023438 234.391601562 165.874023438 c 0
 114.295263711 165.874023438 37.8720703125 239.218102356 37.8720703125 354.473632812 c 0
394.30078125 264.438476562 m 5
 465.744140625 192.994140625 l 5
 403.377929688 130.627929688 l 5
 331.93359375 202.071289062 l 5
 394.30078125 264.438476562 l 5
150.110351562 508.62890625 m 5
 87.7431640625 446.26171875 l 5
 1 533.005859375 l 5
 63.3662109375 595.372070312 l 5
 150.110351562 508.62890625 l 5
EndSplineSet
Validated: 5
EndChar

StartChar: ordfeminine
Encoding: 170 170 121
Width: 396
Flags: W
HStem: 384.992 65<111 233.383> 551.992 57<111 227.507> 667.992 71<74.0103 211.847>
VStem: 17 130<455.498 545.111> 228 146<436.008 512.992 582.992 650.836> 246 40<457.492 536.992>
LayerCount: 2
Fore
SplineSet
246 504.9921875 m 4xf4
 246 519.9921875 231 551.9921875 192 551.9921875 c 4
 162 551.9921875 147 530.9921875 147 497.9921875 c 4
 147 467.9921875 162 449.9921875 189 449.9921875 c 4
 230 449.9921875 246 477.9921875 246 504.9921875 c 4xf4
286 500.9921875 m 4
 286 436.9921875 234 384.9921875 152 384.9921875 c 4
 70 384.9921875 17 426.9921875 17 493.9921875 c 4
 17 563.9921875 70 608.9921875 152 608.9921875 c 4
 234 608.9921875 286 553.9921875 286 500.9921875 c 4
393 393.9921875 m 5
 251 391.9921875 l 5
 251 391.9921875 228 417.9921875 228 501.9921875 c 6
 228 593.9921875 l 6
 228 640.9921875 207 667.9921875 160 667.9921875 c 4
 106 667.9921875 64 641.9921875 64 641.9921875 c 5
 41 699.9921875 l 5
 41 699.9921875 92 738.9921875 195 738.9921875 c 4
 304 738.9921875 371.400326464 694.969335021 373 582.9921875 c 6
 374 512.9921875 l 6xf8
 375.099775556 436.007898579 393 393.9921875 393 393.9921875 c 5
EndSplineSet
Validated: 5
EndChar

StartChar: ordmasculine
Encoding: 186 186 122
Width: 413
Flags: W
HStem: 383.992 66<179.606 234.394> 673.992 65<179.606 234.394>
VStem: 17 148<471.113 651.443> 249 148<471.113 651.443>
LayerCount: 2
Fore
SplineSet
165 561.9921875 m 4
 165 492.9921875 178 449.9921875 207 449.9921875 c 4
 236 449.9921875 249 492.9921875 249 561.9921875 c 4
 249 630.9921875 236 673.9921875 207 673.9921875 c 4
 178 673.9921875 165 630.9921875 165 561.9921875 c 4
17 560.9921875 m 4
 17 669.9921875 91 738.9921875 207 738.9921875 c 4
 323 738.9921875 397 669.9921875 397 560.9921875 c 4
 397 452.9921875 323 383.9921875 207 383.9921875 c 4
 91 383.9921875 17 452.9921875 17 560.9921875 c 4
EndSplineSet
Validated: 1
EndChar

StartChar: minus
Encoding: 8722 8722 123
Width: 450
Flags: W
HStem: 316 96<15 435>
LayerCount: 2
Fore
SplineSet
15 412 m 1
 435 412 l 1
 435 316 l 1
 15 316 l 1
 15 412 l 1
EndSplineSet
Validated: 1
EndChar

StartChar: multiply
Encoding: 215 215 124
Width: 450
Flags: W
LayerCount: 2
Fore
SplineSet
367.8359375 153.282226562 m 5
 14.2822265625 506.8359375 l 5
 82.1640625 574.717773438 l 5
 435.717773438 221.1640625 l 5
 367.8359375 153.282226562 l 5
14.2822265625 221.1640625 m 5
 367.8359375 574.717773438 l 5
 435.717773438 506.8359375 l 5
 82.1640625 153.282226562 l 5
 14.2822265625 221.1640625 l 5
EndSplineSet
Validated: 5
EndChar

StartChar: divide
Encoding: 247 247 125
Width: 450
Flags: W
HStem: 125.934 151<168.863 281.391> 316 96<15 435> 451.066 151<168.863 281.391>
VStem: 149.5 151<145.042 257.57 470.175 582.703>
CounterMasks: 1 e0
LayerCount: 2
Fore
SplineSet
149.5 526.06640625 m 4
 149.5 572.510742188 179.055664062 602.06640625 225.5 602.06640625 c 4
 271.333007812 602.06640625 300.5 572.510742188 300.5 526.06640625 c 4
 300.5 480.233398438 271.333007812 451.06640625 225.5 451.06640625 c 4
 179.055664062 451.06640625 149.5 480.233398438 149.5 526.06640625 c 4
15 412 m 1
 435 412 l 1
 435 316 l 1
 15 316 l 1
 15 412 l 1
149.5 200.93359375 m 0
 149.5 247.377929688 179.055664062 276.93359375 225.5 276.93359375 c 0
 271.333007812 276.93359375 300.5 247.377929688 300.5 200.93359375 c 0
 300.5 155.100585938 271.333007812 125.93359375 225.5 125.93359375 c 0
 179.055664062 125.93359375 149.5 155.100585938 149.5 200.93359375 c 0
EndSplineSet
Validated: 1
EndChar

StartChar: Thorn
Encoding: 222 222 126
Width: 680
Flags: W
HStem: 0 21G<40 298> 131.957 102.301<228 381.724> 494.671 106.329<190 386.412> 711 20G<40 298>
VStem: 40 258<0 131.957 234.258 494.671 601 731> 228 70<131.957 234.258> 435.513 219.487<282.875 447.154>
LayerCount: 2
Fore
SplineSet
40 0 m 1xfa
 40 731 l 1
 298 731 l 1
 298 0 l 1
 40 0 l 1xfa
190 494.670898438 m 1
 190 601 l 1
 358 600.997070312 l 2
 565.552631197 600.995242253 655 508.805581855 655 363.93359375 c 0
 655 222.169732904 562.746397695 131.95703125 353 131.95703125 c 6
 228 131.95703125 l 5xf6
 225 234.2578125 l 5
 312.697265625 234.284179688 l 6
 396.570519799 234.451392492 435.512695312 285.291484201 435.512695312 366.704101562 c 0
 435.512695312 445.310553414 396.569843106 494.306794529 312.697265625 494.583007812 c 2
 190 494.670898438 l 1
EndSplineSet
Validated: 5
EndChar

StartChar: thorn
Encoding: 254 254 127
Width: 655
Flags: W
HStem: -179.994 21G<40 268> -10.0664 106.351<283.615 455> 404.583 116.351<284.488 455> 741.011 20G<40 268>
VStem: 40 228<244.704 761.011> 165 79.4873<122.249 379.263> 405.513 224.487<140.481 364.278>
LayerCount: 2
Fore
SplineSet
40 -179.994140625 m 1xfa
 40 761.010742188 l 5
 268 761.010742188 l 5
 268 -179.994140625 l 1
 40 -179.994140625 l 1xfa
244.487304688 244.704101562 m 0xf6
 244.487304688 153.454581571 268.555545917 96.2841796875 322.697265625 96.2841796875 c 0
 379.253884931 96.2841796875 405.512695312 157.306517427 405.512695312 254.704101562 c 0
 405.512695312 346.833830953 379.253884931 404.583007812 322.697265625 404.583007812 c 0
 268.555545917 404.583007812 244.487304688 342.98077529 244.487304688 244.704101562 c 0xf6
165 249.93359375 m 0
 165 415.544548864 247.833018456 520.93359375 378 520.93359375 c 0
 532 520.93359375 630 419.43344351 630 259.93359375 c 0
 630 94.9331212198 532 -10.06640625 378 -10.06640625 c 0
 247.833018456 -10.06640625 165 91.044249832 165 249.93359375 c 0
EndSplineSet
Validated: 5
EndChar

StartChar: Eth
Encoding: 208 208 128
Width: 810
Flags: W
HStem: 0 102.284<278 451.012> 306 96<15 452> 624.69 106.307<348 444.064>
VStem: 90 258<102.258 624.69> 278 70<0 102.258> 540.513 244.487<216.693 511.751>
LayerCount: 2
Fore
SplineSet
15 402 m 1xe4
 452 402 l 5
 452 306 l 5
 15 306 l 1
 15 402 l 1xe4
EndSplineSet
Refer: 13 68 N 1 0 0 1 50 0 2
Validated: 5
EndChar

StartChar: eth
Encoding: 240 240 129
Width: 645
Flags: W
HStem: -10.0664 106.351<281.445 353.725> 365.583 103.351<187.15 357.04> 627.992 111<128 265.12>
VStem: 25 229.487<136.124 341.898> 380.513 239.487<161.68 341.704>
LayerCount: 2
Fore
SplineSet
202 568 m 5
 559 688 l 5
 586 607 l 5
 229 487 l 5
 202 568 l 5
380.512695312 238.704101562 m 0
 380.512695312 316.69585898 361.06053641 365.583007812 317.302734375 365.583007812 c 0
 274.404588984 365.583007812 254.487304688 316.69585898 254.487304688 238.704101562 c 0
 254.487304688 151.143420057 274.404588984 96.2841796875 317.302734375 96.2841796875 c 0
 361.06053641 96.2841796875 380.512695312 151.143420057 380.512695312 238.704101562 c 0
417.5625 420.29296875 m 1
 391.363127413 549.448415074 311.011590562 627.9921875 128 627.9921875 c 1
 128 738.9921875 l 1
 411.720144293 738.9921875 620 616.999833644 620 297 c 0
 620 91.8220241095 502.167114591 -10.06640625 317 -10.06640625 c 0
 138.555555555 -10.06640625 25 87.9331527218 25 241.93359375 c 0
 25 380.655685303 117.299425385 468.93359375 257 468.93359375 c 0
 374.590255331 468.93359375 417.5625 420.29296875 417.5625 420.29296875 c 1
EndSplineSet
Validated: 5
EndChar

StartChar: AE
Encoding: 198 198 130
Width: 1051
Flags: W
HStem: 0 21G<1 151.042> 0 106<739 1036> 156 96<212 509> 316 96<653 970> 625 106<739 1036> 711 20G<467.867 495.894>
VStem: 653 86<316 412>
LayerCount: 2
Fore
SplineSet
212 252 m 1x32
 509 252 l 1
 509 156 l 1
 212 156 l 1
 212 252 l 1x32
481 526 m 1
 138 0 l 1
 1 0 l 1
 481 731 l 1xb6
 551 637 l 5
 481 526 l 1
EndSplineSet
Refer: 8 69 N 1 0 0 1 441 0 2
Validated: 5
EndChar

StartChar: ae
Encoding: 230 230 131
Width: 927
Flags: W
HStem: -10.0752 104.351<170.709 348.892> -10.0664 109.351<643.193 804.042> 216 81<568 729.889> 235.574 85.3506<165.278 338.8> 414.583 106.351<135.174 306.701> 418.583 102.351<621.141 702.836>
VStem: 25 194.487<109.724 219.045> 341.272 168.487<104.47 214.704 284.934 380.568> 568 22.4873<216 297> 729.889 177.216<297 378.39>
LayerCount: 2
Fore
SplineSet
368.512695312 167.154296875 m 0x93c0
 368.512695312 189.219303716 345.522412967 235.57421875 287 235.57421875 c 0
 242.575352027 235.57421875 219.487304688 208.063722959 219.487304688 164.154296875 c 0
 219.487304688 121.200122175 242.174104783 94.275390625 283 94.275390625 c 0
 345.355399457 94.275390625 368.512695312 131.479712404 368.512695312 167.154296875 c 0x93c0
509.759765625 174.93359375 m 0
 509.759765625 72.6920010283 403.686926657 -10.0751953125 237 -10.0751953125 c 0
 107.444444445 -10.0751953125 25 52.5360084756 25 150.924804688 c 0
 25 254.813991095 103.555555556 320.924804688 227 320.924804688 c 0
 399.798052551 320.924804688 509.759765625 245.901799012 509.759765625 174.93359375 c 0
509.759765625 174.93359375 m 2
 509.759765625 71.5285998338 356 70 356 70 c 1
 356 70 341.272460937 104.470062943 341.272460938 214.704101562 c 2
 341.272460938 303 l 2
 341.272460938 373.877446387 310.126226808 414.583007812 240.0625 414.583007812 c 0
 159.512429639 414.583007812 95.822265625 374.067382812 95.822265625 374.067382812 c 1
 61.3935546875 462.19140625 l 1
 61.3935546875 462.19140625 130.264196598 520.93359375 271.759765625 520.93359375 c 0x0bc0
 417.204561904 520.93359375 509.759765625 451.448970725 509.759765625 284.93359375 c 2
 509.759765625 174.93359375 l 2
EndSplineSet
Refer: 32 101 N 1 0 0 1 340 0 2
Validated: 5
EndChar

StartChar: Oslash
Encoding: 216 216 132
Width: 795
Flags: W
HStem: -10.0664 106.351<354.989 440.373> 632.583 106.351<354.989 440.373>
VStem: 25 279.487<223.739 502.245> 490.513 279.487<223.739 502.245>
LayerCount: 2
Back
SplineSet
204.5 731.0078125 m 5
 204.5 0 l 5
 66.5 0 l 5
 66.5 731 l 5
 204.5 731.0078125 l 5
EndSplineSet
Fore
SplineSet
596.84375 592.77734375 m 1
 494.65234375 651.77734375 l 1
 604.15234375 841.436523438 l 1
 706.34765625 782.443359375 l 1
 596.84375 592.77734375 l 1
284.34375 51.5107421875 m 1
 190.84375 -110.435546875 l 1
 88.65234375 -51.435546875 l 1
 182.15234375 110.510742188 l 1
 284.34375 51.5107421875 l 1
EndSplineSet
Refer: 1 79 N 1 0 0 1 0 0 2
Validated: 5
EndChar

StartChar: oslash
Encoding: 248 248 133
Width: 621
Flags: W
HStem: -10.0664 96.3506<276.488 344.908> 424.583 96.3506<277.144 344.257>
VStem: 25 222.487<144.204 366.12> 373.513 222.487<144.204 366.12>
LayerCount: 2
Fore
SplineSet
158.821289062 120.791015625 m 1
 269.672851562 56.791015625 l 1
 183.172851562 -93.03125 l 1
 72.3212890625 -29.03125 l 1
 158.821289062 120.791015625 l 1
350.821289062 453.344726562 m 1
 437.827148438 604.041992188 l 1
 548.678710938 540.041992188 l 1
 461.672851562 389.344726562 l 1
 350.821289062 453.344726562 l 1
EndSplineSet
Refer: 50 111 N 1 0 0 1 0 0 2
Validated: 5
EndChar

StartChar: dotlessi
Encoding: 305 305 134
Width: 308
HStem: 0 21G<40 268> 491.011 20G<40 268>
VStem: 40 228<0 511.011>
LayerCount: 2
Fore
SplineSet
40 0 m 5
 40 511.010742188 l 5
 268 511.010742188 l 5
 268 0 l 5
 40 0 l 5
EndSplineSet
Validated: 1
EndChar

StartChar: uni0237
Encoding: 567 567 135
Width: 308
HStem: -179.983 86.9941<-74 -5.94922> 491.011 20G<40 268>
VStem: 40 228<-20.3581 511.011>
LayerCount: 2
Fore
SplineSet
40 21.0107421875 m 2
 40 511.010742188 l 1
 268 511.010742188 l 1
 268 99.0107421875 l 2
 268 -113.597255072 111.836720926 -179.983398438 -74 -179.983398438 c 5
 -74 -92.9892578125 l 5
 -5.25166257748 -92.9892578125 40 -50.1207472278 40 21.0107421875 c 2
EndSplineSet
Validated: 1
EndChar

StartChar: IJ
Encoding: 306 306 136
Width: 676
HStem: 0 21G<40 298> 711 20G<40 298 378 636>
VStem: 40 258<0 731> 378 258<74.3486 731>
LayerCount: 2
Fore
SplineSet
378 77 m 6
 378 731 l 1
 636 731 l 1
 636 209 l 6
 636 -42.470703125 455.848632812 -137.89453125 276 -163.994140625 c 5
 247 -77 l 5
 247 -77 378 -64.193359375 378 77 c 6
EndSplineSet
Refer: 0 73 N 1 0 0 1 0 0 2
Validated: 1
EndChar

StartChar: longs
Encoding: 383 383 140
Width: 409
Flags: W
HStem: 0 21G<40 278> 664 86.9941<311.904 402>
VStem: 40 238<0 591.107>
LayerCount: 2
Fore
SplineSet
278 560 m 6
 278 0 l 1
 40 0 l 1
 40 462 l 2
 40 682.228127864 175.295898438 750.994140625 402 750.994140625 c 5
 402 664 l 5
 305.466796875 664 278 624.891601562 278 560 c 6
EndSplineSet
EndChar

StartChar: Eng
Encoding: 330 330 141
Width: 718
Flags: W
HStem: -179.983 86.9941<396 475.293> 0 21G<40 178> 711.008 20G<40 192.415 540 678>
VStem: 40 138<0 304.187> 540 138<-33.1115 731.008>
LayerCount: 2
Fore
SplineSet
540 21.0107421875 m 2
 540 731.0078125 l 1
 678 731.0078125 l 1
 678 99.0107421875 l 2
 678 -66.6783244923 601.836914062 -179.983398438 396 -179.983398438 c 1
 396 -92.9892578125 l 1
 484.748046875 -92.9892578125 540 -36.3622347214 540 21.0107421875 c 2
40 0 m 1
 40 731 l 1
 168 731 l 1
 540 426.271484375 l 1
 540 8.17705708167 l 1
 178 304.186523438 l 1
 178 0 l 1
 40 0 l 1
EndSplineSet
Validated: 5
EndChar

StartChar: eng
Encoding: 331 331 142
Width: 645
Flags: W
HStem: -179.994 86.9941<281.513 349.413> 0 21G<40 268> 409.583 111.351<300.044 475.833> 491.011 20G<40 268>
VStem: 40 228<0 511.011> 175 69.4873<259.934 346.054> 385.513 234.487<-15.699 393.187>
LayerCount: 2
Fore
SplineSet
40 0 m 1xda
 40 511.010742188 l 1
 268 511.010742188 l 1
 268 0 l 1
 40 0 l 1xda
244.487304688 244.704101562 m 1xe6
 175 259.93359375 l 1
 175 419.43344351 261.721892562 520.93359375 398 520.93359375 c 0
 553.666666667 520.93359375 620 434.600132626 620 264 c 2
 620 119.295898438 l 6
 620 -126.111044704 467.349609375 -179.994140625 281.512695312 -179.994140625 c 1
 281.512695312 -93 l 1
 350.260742188 -93 385.512521625 -50.1320004749 385.512695312 20.9995904705 c 2
 385.512695312 283.704101562 l 2
 385.512695312 361.081164546 378.595411016 409.583007812 322.697265625 409.583007812 c 0
 268.555545917 409.583007812 244.487304688 346.054247458 244.487304688 244.704101562 c 1xe6
EndSplineSet
EndChar

StartChar: uni018F
Encoding: 399 399 143
Width: 772
Flags: W
HStem: -10.0664 122.351<283.095 390.064> 312.867 101<228.216 471.104> 619.583 119.351<172.211 357.635>
VStem: 20 209.166<203.379 312.867> 448.617 22.4873<312.867 413.867>
LayerCount: 2
Fore
SplineSet
228.215820312 312.8671875 m 5
 228.408460256 304.419097569 228.72695081 296.07463453 229.166015625 287.8671875 c 4
 234.38391745 190.328848448 260.005975983 112.284179688 339.104492188 112.284179688 c 4
 416.216249785 112.284179688 448.6171875 210.490441015 448.6171875 367.163085938 c 4
 448.6171875 522.352473025 401.748783562 619.583007812 272.407226562 619.583007812 c 4
 178.078981151 619.583007812 107.7109375 573.556640625 107.7109375 573.556640625 c 5
 72.3447265625 674.358398438 l 5
 72.3447265625 674.358398438 159.522770022 738.93359375 345.104492188 738.93359375 c 4
 591.382865718 738.93359375 748.104492188 594.267578125 748.104492188 366.93359375 c 4
 748.104492188 136.544921875 602.836399044 -10.06640625 341.104492188 -10.06640625 c 4
 95.364520254 -10.06640625 20 187.848186732 20 332.448242188 c 4
 20 385.021504292 24.1044921875 413.8671875 24.1044921875 413.8671875 c 5
 471.104492188 413.8671875 l 5
 471.104492188 312.8671875 l 5
 228.215820312 312.8671875 l 5
EndSplineSet
Validated: 5
EndChar

StartChar: germandbls
Encoding: 223 223 145
Width: 787
Flags: W
HStem: -9.99805 95.9697<408.771 563.123> 0 21G<40 278> 421.329 99.9697<478.816 634.397> 654 116.994<340.588 521.355>
VStem: 40 238<0 571.318> 342.849 195.449<298.152 412.063> 569.018 198.545<92.4075 208.7> 577.413 166.33<518.134 602.067>
LayerCount: 2
Fore
SplineSet
278 480 m 2xbd
 278 0 l 1
 40 0 l 1
 40 422 l 2
 40 687.951157554 192.009033929 770.994140625 425 770.994140625 c 4
 702.973657704 770.994140625 743.743164062 607 743.743164062 479.115234375 c 0x7d
 743.743164062 432.406122738 731.342773438 392.71484375 731.342773438 392.71484375 c 1
 731.342773438 392.71484375 669.944577879 421.329101562 598.848632812 421.329101562 c 0
 559.521897287 421.329101562 538.297851562 404.284179688 538.297851562 382 c 0
 538.297851562 353.677734375 557.534976998 346.731577155 599.944335938 334.8671875 c 0
 720.391999856 301.170898438 767.5625 250.798828125 767.5625 166.6015625 c 0
 767.5625 57.765625 688.262889688 -9.998046875 539.791015625 -9.998046875 c 0
 414.449867834 -9.998046875 335 37.78515625 335 37.78515625 c 1
 359 135.78515625 359 135.78515625 359 135.78515625 c 1
 359 135.78515625 420.82456744 85.9716796875 513.248046875 85.9716796875 c 0
 547.614866849 85.9716796875 569.017578125 99.1025390625 569.017578125 121 c 0xbe
 569.017578125 146.979492188 550.172772377 151.129882812 497.052734375 169.314453125 c 0
 384.332218546 207.902041216 342.848632812 258.494140625 342.848632812 337.810546875 c 0
 342.848632812 452.138671875 417.497575032 521.298828125 540.133789062 521.298828125 c 0
 559.154323193 521.298828125 577.413085938 518.133789062 577.413085938 518.133789062 c 1
 577.413085938 593.292080142 545.347825717 654 429 654 c 4
 313.591539002 654 278 588.568641076 278 480 c 2xbd
EndSplineSet
EndChar

StartChar: kgreenlandic
Encoding: 312 312 146
Width: 659
Flags: W
HStem: 0 21G<40 278 384.025 658> 491 20G<40 278 452.9 628>
VStem: 40 238<0 511>
LayerCount: 2
Fore
SplineSet
397 0 m 1
 240 242 l 1
 470 511 l 1
 628 511 l 1
 453 311 l 1
 658 0 l 1
 397 0 l 1
40 0 m 1
 40 511 l 5
 278 511 l 5
 278 0 l 1
 40 0 l 1
EndSplineSet
Validated: 5
EndChar

StartChar: florin
Encoding: 402 402 147
Width: 451
Flags: W
HStem: -179.983 86.9941<-32 38.0406> 415.011 96<5 436> 664 86.9941<353.904 444>
VStem: 82 238<-13.0875 591.107>
LayerCount: 2
Fore
SplineSet
5 511.010742188 m 1
 436 511.010742188 l 1
 436 415.010742188 l 1
 5 415.010742188 l 1
 5 511.010742188 l 1
320 109.010742188 m 2
 320 -111.217773437 159.270543175 -179.983398438 -32 -179.983398438 c 1
 -32 -92.9892578125 l 1
 36.7483374225 -92.9892578125 82 -50.1207472278 82 21.0107421875 c 2
 82 462 l 2
 82 682.228515625 217.295634575 750.994140625 444 750.994140625 c 5
 444 664 l 5
 347.466720698 664 320 624.891885081 320 560 c 6
 320 109.010742188 l 2
EndSplineSet
EndChar

StartChar: uni203D
Encoding: 8253 8253 148
Width: 595
Flags: W
HStem: -10.0664 191<163.812 320.509> 623.599 115.394<116.74 285.648>
VStem: 126.5 231<25.6924 144.798> 127 131<481.351 540> 313.676 257.086<481.712 596.702>
LayerCount: 2
Fore
SplineSet
126.5 84.93359375 m 0xe0
 126.5 143.600585938 171.611328125 180.93359375 242.5 180.93359375 c 0
 312.77734375 180.93359375 357.5 143.600585938 357.5 84.93359375 c 0
 357.5 26.8779296875 312.77734375 -10.06640625 242.5 -10.06640625 c 0
 171.611328125 -10.06640625 126.5 26.8779296875 126.5 84.93359375 c 0xe0
210 623.598632812 m 0
 276.422362962 623.598632812 313.67578125 593 313.67578125 542 c 0
 313.67578125 479.558571919 259 452.128547549 259 452.128547549 c 1
 258 540 l 1
 127 540 l 1
 164 230 l 1
 311.573242188 230 l 1
 311.573242188 287.763737448 326.574616689 307.617132287 418.399414062 344.4375 c 0
 512.422797133 382.139467631 570.76171875 427.428023846 570.76171875 524.010742188 c 0xd8
 570.76171875 653.270507812 469 738.9921875 275.548828125 738.9921875 c 0
 102.26953125 738.9921875 15.1796875 670.796875 15.1796875 670.796875 c 1
 51.3955078125 570.754882812 l 1
 51.3955078125 570.754882812 118.442382812 623.598632812 210 623.598632812 c 0
EndSplineSet
Validated: 9
EndChar

StartChar: fraction
Encoding: 8260 8260 149
Width: 269
Flags: W
HStem: 0 21G<-170 -35.6484> 711 20G<304.648 439>
LayerCount: 2
Fore
SplineSet
-170 0 m 5
 318 731 l 5
 439 731 l 5
 -49 0 l 5
 -170 0 l 5
EndSplineSet
Validated: 1
EndChar

StartChar: perthousand
Encoding: 8240 8240 150
Width: 1293
Flags: W
HStem: -10 86.3506<705.494 765.91 1025.49 1085.91> 0 21G<182 316.352> 312.649 86.3506<705.494 765.91 1025.49 1085.91> 329.934 86.3506<207.494 267.91> 652.583 86.3506<207.494 267.91> 711 20G<656.648 791>
VStem: 25 165.487<434.417 631.959> 284.513 165.487<433.708 631.959> 523 165.487<94.4833 292.026> 782.513 225.975<120.81 266.074> 843 105<68.5552 318.5> 1102.51 165.487<93.7748 292.026>
LayerCount: 2
Fore
SplineSet
1008.48730469 191.770507812 m 4x83d0
 1008.48730469 120.809599496 1023.01564244 76.3505859375 1055.69726562 76.3505859375 c 4
 1087.66863188 76.3505859375 1102.51269531 120.809599496 1102.51269531 191.770507812 c 4
 1102.51269531 266.074098628 1087.66863188 312.649414062 1055.69726562 312.649414062 c 4
 1023.01564244 312.649414062 1008.48730469 266.074098628 1008.48730469 191.770507812 c 4x83d0
843 192 m 4xa3b0
 843 318.499880844 925.833018456 399 1056 399 c 4
 1185.55555556 399 1268 318.499880844 1268 192 c 4
 1268 68.5552020329 1185.55555556 -10 1056 -10 c 4
 925.833018456 -10 843 68.5552020329 843 192 c 4xa3b0
688.487304688 191.770507812 m 4
 688.487304688 120.809599496 703.015642442 76.3505859375 735.697265625 76.3505859375 c 4
 767.668631884 76.3505859375 782.512695312 120.809599496 782.512695312 191.770507812 c 4xa3d0
 782.512695312 266.074098628 767.668631884 312.649414062 735.697265625 312.649414062 c 4
 703.015642442 312.649414062 688.487304688 266.074098628 688.487304688 191.770507812 c 4
523 192 m 4
 523 318.499880844 605.833018456 399 736 399 c 4
 865.555555556 399 948 318.499880844 948 192 c 4xa3b0
 948 68.5552020329 865.555555556 -10 736 -10 c 4
 605.833018456 -10 523 68.5552020329 523 192 c 4
190.487304688 531.704101562 m 0
 190.487304688 460.743193246 205.015642442 416.284179688 237.697265625 416.284179688 c 0
 269.668631884 416.284179688 284.512695312 460.743193246 284.512695312 531.704101562 c 0
 284.512695312 606.007692378 269.668631884 652.583007812 237.697265625 652.583007812 c 0x1b90
 205.015642442 652.583007812 190.487304688 606.007692378 190.487304688 531.704101562 c 0
25 531.93359375 m 0
 25 658.433474594 107.833018456 738.93359375 238 738.93359375 c 0
 367.555555556 738.93359375 450 658.433474594 450 531.93359375 c 0
 450 408.488795783 367.555555556 329.93359375 238 329.93359375 c 0
 107.833018456 329.93359375 25 408.488795783 25 531.93359375 c 0
EndSplineSet
Refer: 149 8260 N 1 0 0 1 352 0 2
Validated: 5
EndChar

StartChar: uni2031
Encoding: 8241 8241 151
Width: 1613
Flags: W
HStem: -10 86.3506<705.494 765.91 1025.49 1085.91 1345.49 1405.91> 0 21G<182 316.352> 312.649 86.3506<705.494 765.91 1025.49 1085.91 1345.49 1405.91> 329.934 86.3506<207.494 267.91> 652.583 86.3506<207.494 267.91> 711 20G<656.648 791>
VStem: 25 165.487<434.417 631.959> 284.513 165.487<433.708 631.959> 523 165.487<94.4833 292.026> 782.513 225.975<120.81 266.074> 843 105<68.5552 318.5> 1102.51 225.975<120.81 266.074> 1163 105<68.5552 318.5> 1422.51 165.487<93.7748 292.026>
LayerCount: 2
Fore
SplineSet
1328.48730469 191.770507812 m 0x8394
 1328.48730469 120.809599496 1343.01564244 76.3505859375 1375.69726562 76.3505859375 c 0
 1407.66863188 76.3505859375 1422.51269531 120.809599496 1422.51269531 191.770507812 c 0
 1422.51269531 266.074098628 1407.66863188 312.649414062 1375.69726562 312.649414062 c 0
 1343.01564244 312.649414062 1328.48730469 266.074098628 1328.48730469 191.770507812 c 0x8394
1163 192 m 0xa38c
 1163 318.499880844 1245.83301846 399 1376 399 c 0
 1505.55555556 399 1588 318.499880844 1588 192 c 0
 1588 68.5552020329 1505.55555556 -10 1376 -10 c 0
 1245.83301846 -10 1163 68.5552020329 1163 192 c 0xa38c
1055.69726562 76.3505859375 m 1024
1008.48730469 191.770507812 m 0x83d4
 1008.48730469 120.809599496 1023.01564244 76.3505859375 1055.69726562 76.3505859375 c 0
 1087.66863188 76.3505859375 1102.51269531 120.809599496 1102.51269531 191.770507812 c 0
 1102.51269531 266.074098628 1087.66863188 312.649414062 1055.69726562 312.649414062 c 0
 1023.01564244 312.649414062 1008.48730469 266.074098628 1008.48730469 191.770507812 c 0x83d4
843 192 m 0xa3ac
 843 318.499880844 925.833018456 399 1056 399 c 0
 1185.55555556 399 1268 318.499880844 1268 192 c 0
 1268 68.5552020329 1185.55555556 -10 1056 -10 c 0
 925.833018456 -10 843 68.5552020329 843 192 c 0xa3ac
688.487304688 191.770507812 m 0
 688.487304688 120.809599496 703.015642442 76.3505859375 735.697265625 76.3505859375 c 0
 767.668631884 76.3505859375 782.512695312 120.809599496 782.512695312 191.770507812 c 0xa3c4
 782.512695312 266.074098628 767.668631884 312.649414062 735.697265625 312.649414062 c 0
 703.015642442 312.649414062 688.487304688 266.074098628 688.487304688 191.770507812 c 0
523 192 m 0
 523 318.499880844 605.833018456 399 736 399 c 0
 865.555555556 399 948 318.499880844 948 192 c 0xa3a4
 948 68.5552020329 865.555555556 -10 736 -10 c 0
 605.833018456 -10 523 68.5552020329 523 192 c 0
190.487304688 531.704101562 m 0
 190.487304688 460.743193246 205.015642442 416.284179688 237.697265625 416.284179688 c 0
 269.668631884 416.284179688 284.512695312 460.743193246 284.512695312 531.704101562 c 0
 284.512695312 606.007692378 269.668631884 652.583007812 237.697265625 652.583007812 c 0x1b84
 205.015642442 652.583007812 190.487304688 606.007692378 190.487304688 531.704101562 c 0
25 531.93359375 m 0
 25 658.433474594 107.833018456 738.93359375 238 738.93359375 c 0
 367.555555556 738.93359375 450 658.433474594 450 531.93359375 c 0
 450 408.488795783 367.555555556 329.93359375 238 329.93359375 c 0
 107.833018456 329.93359375 25 408.488795783 25 531.93359375 c 0
EndSplineSet
Refer: 149 8260 N 1 0 0 1 352 0 2
Validated: 5
EndChar

StartChar: lira
Encoding: 8356 8356 156
Width: 680
Flags: W
HStem: 0 106<333 531.383> 226 96<36 553> 366 96<36 553> 609.583 129.351<289.472 524.653>
VStem: 86 267.928<464.101 577.804> 127 268<161.08 343.311>
LayerCount: 2
Fore
SplineSet
36 462 m 5xf0
 553 462 l 5
 553 366 l 5
 36 366 l 5
 36 462 l 5xf0
36 322 m 5
 553 322 l 5
 553 226 l 5
 36 226 l 5
 36 322 l 5
353.927734375 513 m 0xf8
 353.927734375 435.806252792 395 335.940606422 395 251 c 0
 395 158.297297297 333 106 333 106 c 1
 446 106 l 2
 558.531914894 106 580 186 580 186 c 1
 670 130 l 1
 670 130 621.692087156 -1.83325576941e-14 456 0 c 2
 35 0 l 1
 35 89 l 1
 35 89 127 116.697674419 127 231 c 0xf4
 127 350.681976547 86 381.47696832 86 501 c 0
 86 646.403725885 199.944011304 738.93359375 379 738.93359375 c 0
 534.401668618 738.93359375 609.366210938 674.19140625 609.366210938 674.19140625 c 1
 576.9375 573.067382812 l 1
 576.9375 573.067382812 533.902965961 609.583007812 459.697265625 609.583007812 c 0
 386.4771253 609.583007812 353.927734375 572.369037286 353.927734375 513 c 0xf8
EndSplineSet
Validated: 5
EndChar

StartChar: Euro
Encoding: 8364 8364 157
Width: 765
Flags: W
HStem: -10.0664 129.351<360.462 623.317> 241 96<36 563> 381 96<36 593> 609.583 129.351<360.462 622.007>
VStem: 95 299.487<224.799 501.298>
LayerCount: 2
Fore
SplineSet
36 477 m 1
 613 477 l 1
 593 381 l 1
 36 381 l 1
 36 477 l 1
36 337 m 1
 583 337 l 1
 563 241 l 1
 36 241 l 1
 36 337 l 1
EndSplineSet
Refer: 20 67 S 1 0 0 1 70 0 2
Validated: 5
EndChar

StartChar: uni20B2
Encoding: 8370 8370 158
Width: 741
Flags: W
HStem: -110 170<366 464> -10.0664 134.351<404.185 517.259> 0 21G<610 736> 604.583 134.351<290.972 563.797> 657 184.008<366 464>
VStem: 25 299.487<226.216 499.881> 366 98<-110 60 657 841.008> 584 131<12.8604 357>
LayerCount: 2
Fore
SplineSet
464 60 m 5x87
 464 -110 l 5
 366 -110 l 5
 366 60 l 5
 464 60 l 5x87
464 657 m 5x0f
 366 657 l 5
 366 841.0078125 l 5
 464 841.0078125 l 5
 464 657 l 5x0f
EndSplineSet
Refer: 21 71 N 1 0 0 1 0 0 2
Validated: 5
EndChar

StartChar: uni20B5
Encoding: 8373 8373 159
Width: 690
Flags: W
HStem: -110 170<366 464> -10.0664 129.351<290.462 553.317> 609.583 129.351<290.462 552.007> 657 184.008<366 464>
VStem: 25 299.487<224.799 501.298> 366 98<-110 60 657 841.008>
LayerCount: 2
Fore
SplineSet
464 60 m 5x8c
 464 -110 l 5
 366 -110 l 5
 366 60 l 5
 464 60 l 5x8c
464 657 m 5x1c
 366 657 l 5
 366 841.0078125 l 5
 464 841.0078125 l 5
 464 657 l 5x1c
EndSplineSet
Refer: 20 67 N 1 0 0 1 0 0 2
Validated: 5
EndChar

StartChar: uni20BF
Encoding: 8383 8383 160
Width: 710
Flags: W
HStem: -110 170<206 304 376 474> 0.00195312 106.308<298 402.591> 321.957 102.301<265 395.976> 624.69 106.31<298 389.193> 657 184.008<206 304 376 474>
VStem: 206 98<-110 60 657 841.008> 262 36<321.957 424.258> 376 98<-110 60 657 841.008> 427.513 237.487<455.906 589.989> 447.513 237.487<145.57 280.086>
LayerCount: 2
Fore
SplineSet
474 60 m 5xa1
 474 -110 l 5
 376 -110 l 5
 376 60 l 5
 474 60 l 5xa1
474 657 m 5x29
 376 657 l 5
 376 841.0078125 l 5
 474 841.0078125 l 5
 474 657 l 5x29
304 60 m 5xa4
 304 -110 l 5
 206 -110 l 5
 206 60 l 5
 304 60 l 5xa4
304 657 m 5x2c
 206 657 l 5
 206 841.0078125 l 5
 304 841.0078125 l 5
 304 657 l 5x2c
EndSplineSet
Refer: 19 66 N 1 0 0 1 0 0 2
Validated: 5
EndChar

StartChar: uni2116
Encoding: 8470 8470 161
Width: 1252
Flags: W
HStem: 0 21G<40 178 525.541 678> 139.992 96<746 1217> 287.992 86.3506<951.569 1011.84> 652.642 86.3506<951.569 1011.84> 711 20G<40 192.415 540 678>
VStem: 40 138<0 304.187> 540 138<426.271 731> 736 192.487<409.55 616.976> 1034.51 192.487<409.55 616.976>
LayerCount: 2
Fore
SplineSet
746 235.9921875 m 5xe780
 1217 235.9921875 l 5
 1217 139.9921875 l 5
 746 139.9921875 l 5
 746 235.9921875 l 5xe780
928.487304688 512.762695312 m 0
 928.487304688 427.661239465 944.862075372 374.342773438 981.697265625 374.342773438 c 0
 1017.76617406 374.342773438 1034.51269531 427.661239465 1034.51269531 512.762695312 c 0
 1034.51269531 598.745480367 1017.76617406 652.641601562 981.697265625 652.641601562 c 0xf780
 944.862075372 652.641601562 928.487304688 598.745480367 928.487304688 512.762695312 c 0
736 512.9921875 m 0
 736 651.103168518 831.666303005 738.9921875 982 738.9921875 c 0
 1131.72222222 738.9921875 1227 651.103168518 1227 512.9921875 c 0
 1227 375.491793725 1131.72222222 287.9921875 982 287.9921875 c 0
 831.666303005 287.9921875 736 375.491793725 736 512.9921875 c 0
EndSplineSet
Refer: 10 78 N 1 0 0 1 0 0 2
Validated: 1
EndChar

StartChar: estimated
Encoding: 8494 8494 162
Width: 772
Flags: W
HStem: -10.0664 119.351<301.489 597.085> 315 101<170.896 515> 359 57<515 593.784> 616.583 122.351<289.095 527.911> 616.583 10.417<515 542.358>
VStem: 127 178<315 615> 170.896 22.4873<319.618 410.962> 515 112<359 416 441 627> 593.784 33.2158<416 538.538>
LayerCount: 2
Fore
SplineSet
515 627 m 5xa9
 627 627 l 5
 627 359 l 5
 515 359 l 5
 515 627 l 5xa9
127 117 m 1x84
 127 615 l 1
 305 615 l 1
 305 117 l 1
 127 117 l 1x84
593.784179688 416 m 1xa280
 593.591539744 424.448089931 593.27304919 432.79255297 592.833984375 441 c 0
 584.293741372 538.538339052 542.357611975 616.583007812 412.895507812 616.583007812 c 0
 258.328864173 616.583007812 193.3828125 518.376746485 193.3828125 361.704101562 c 0
 193.3828125 206.514714475 261.52965209 109.284179688 449.592773438 109.284179688 c 0
 572.558047026 109.284179688 664.2890625 155.310546875 664.2890625 155.310546875 c 1
 699.655273438 54.5087890625 l 1
 699.655273438 54.5087890625 612.477229978 -10.06640625 426.895507812 -10.06640625 c 0
 180.617134282 -10.06640625 23.8955078125 134.599609375 23.8955078125 361.93359375 c 0
 23.8955078125 592.322265625 165.594360338 738.93359375 420.895507812 738.93359375 c 0
 674.288439387 738.93359375 752 541.019000768 752 396.418945312 c 0
 752 343.845683208 747.895507812 315 747.895507812 315 c 1
 170.895507812 315 l 1
 170.895507812 416 l 1xd280
 593.784179688 416 l 1xa280
EndSplineSet
Validated: 5
EndChar

StartChar: bullet
Encoding: 8226 8226 163
Width: 381
Flags: W
HStem: 189.934 331<100.586 280.87>
VStem: 25 331<265.064 445.347>
LayerCount: 2
Fore
SplineSet
25 354.93359375 m 0
 25 456.377358491 89.5547059257 520.93359375 191 520.93359375 c 0
 291.833844866 520.93359375 356 456.377358491 356 354.93359375 c 0
 356 254.099748884 291.833844866 189.93359375 191 189.93359375 c 4
 89.5547059257 189.93359375 25 254.099748884 25 354.93359375 c 0
EndSplineSet
Validated: 1
EndChar

StartChar: dagger
Encoding: 8224 8224 173
Width: 537
Flags: W
HStem: 420.934 90<15 522>
VStem: 216.5 104<-200 781>
LayerCount: 2
Fore
SplineSet
216.5 -200 m 5
 216.5 781 l 5
 320.5 781 l 5
 320.5 -200 l 5
 216.5 -200 l 5
15 510.93359375 m 1
 522 510.93359375 l 5
 522 420.93359375 l 5
 15 420.93359375 l 1
 15 510.93359375 l 1
EndSplineSet
Validated: 5
EndChar

StartChar: daggerdbl
Encoding: 8225 8225 174
Width: 537
Flags: W
HStem: 190.934 90<15 522> 480.934 90<15 522>
VStem: 216.5 104<-200 781>
LayerCount: 2
Fore
SplineSet
15 280.93359375 m 5
 522 280.93359375 l 5
 522 190.93359375 l 5
 15 190.93359375 l 5
 15 280.93359375 l 5
216.5 -200 m 1
 216.5 781 l 1
 320.5 781 l 1
 320.5 -200 l 1
 216.5 -200 l 1
15 570.93359375 m 1
 522 570.93359375 l 1
 522 480.93359375 l 1
 15 480.93359375 l 1
 15 570.93359375 l 1
EndSplineSet
Validated: 5
EndChar

StartChar: uni2215
Encoding: 8725 8725 175
Width: 611
Flags: W
HStem: 0 21G<1 135.352> 711 20G<475.648 610>
LayerCount: 2
Fore
SplineSet
1 0 m 5
 489 731 l 5
 610 731 l 5
 122 0 l 5
 1 0 l 5
EndSplineSet
Validated: 1
EndChar

StartChar: partialdiff
Encoding: 8706 8706 176
Width: 665
Flags: W
HStem: -10.0664 106.351<277.181 360.547> 385.583 103.351<211.225 379.316> 627.992 111<198 311.351>
VStem: 25 229.487<124.563 338.895> 400.513 239.487<186.718 363.847>
LayerCount: 2
Fore
SplineSet
400.512695312 274.704101562 m 0
 400.512695312 342.860748042 380.752797588 385.583007812 336.302734375 385.583007812 c 0
 280.429038765 385.583007812 254.487304688 315.118747263 254.487304688 202.704101562 c 0
 254.487304688 137.276450975 274.721665288 96.2841796875 318.302734375 96.2841796875 c 0
 375.213498796 96.2841796875 400.512695312 165.010389139 400.512695312 274.704101562 c 0
427.5625 440.29296875 m 5
 406.791877183 557.011637786 343.089914123 627.9921875 198 627.9921875 c 1
 198 738.9921875 l 1
 452.886796296 738.9921875 640 619.556218073 640 336 c 0
 640 95.4103939349 512.056041916 -10.06640625 311 -10.06640625 c 0
 136.222222222 -10.06640625 25 80.1554099463 25 221.93359375 c 0
 25 385.100106723 131.621750014 488.93359375 293 488.93359375 c 0
 391.548781521 488.93359375 427.5625 440.29296875 427.5625 440.29296875 c 5
EndSplineSet
Validated: 1
EndChar

StartChar: integral
Encoding: 8747 8747 177
Width: 540
Flags: W
HStem: -179.983 86.9941<7 76.0465> 664 86.9941<444.807 533>
LayerCount: 2
Fore
SplineSet
359 109.010742188 m 6
 334.764540379 -109.58789676 198.270507812 -179.983398438 7 -179.983398438 c 1
 7 -92.9892578125 l 1
 75.748046875 -92.9892578125 112.74059044 -50.1835937369 121 21.0107421875 c 6
 171 452 l 2
 197.204403123 677.876325071 306.295898438 750.994140625 533 750.994140625 c 1
 533 664 l 1
 436.466796875 664 416.218441994 625.10879595 409 560 c 2
 359 109.010742188 l 6
EndSplineSet
EndChar

StartChar: zero.superior
Encoding: 8304 8304 178
Width: 476
HStem: 342 72<207.424 266.373> 771 72<207.424 266.373>
VStem: 17 166<472.504 711.28> 294 166<472.504 711.28>
LayerCount: 2
Fore
SplineSet
183 591 m 0
 183 482 199 414 238 414 c 0
 276 414 294 482 294 591 c 0
 294 702 276 771 238 771 c 0
 199 771 183 702 183 591 c 0
17 591 m 4
 17 745 103 843 239 843 c 4
 374 843 460 745 460 591 c 4
 460 439 374 342 239 342 c 4
 103 342 17 439 17 591 c 4
EndSplineSet
EndChar

StartChar: one.superior
Encoding: 185 185 179
Width: 320
VStem: 123 172<350 723>
LayerCount: 2
Fore
SplineSet
123 723 m 1
 35 668 l 5
 1 721 l 1
 156 837 l 1
 295 837 l 1
 295 350 l 1
 123 350 l 1
 123 723 l 1
EndSplineSet
EndChar

StartChar: two.superior
Encoding: 178 178 180
Width: 405
HStem: 350 97<151 396> 731 21G<37.7273 45> 766 77<66.7937 212.533>
VStem: 226 165<653.204 751.347>
LayerCount: 2
Fore
SplineSet
151 766 m 0
 90 766 45 731 45 731 c 1
 21 797 l 1
 21 797 78 843 194 843 c 0
 323 843 391 780 391 686 c 0
 391 604 328 561 229 518 c 0
 155 486 151 447 151 447 c 1
 396 447 l 1
 396 350 l 1
 13 350 l 1
 13 373 l 2
 13 492 45 540 166 621 c 0
 206 648 226 671 226 703 c 0
 226 746 200 766 151 766 c 0
EndSplineSet
EndChar

StartChar: three.superior
Encoding: 179 179 181
Width: 415
HStem: 342 80<58.7321 209.211> 564 68<95 198.531> 763 80<68.8911 200.052>
VStem: 215 171<648.484 749.164> 226 173<439.547 544.465>
LayerCount: 2
Fore
SplineSet
132 632 m 6xe8
 189 632 215 656 215 699 c 4
 215 744 187 763 140 763 c 4
 83 763 43 729 43 729 c 5
 18 796 l 5
 18 796 81 843 193 843 c 4
 308 843 386 797 386 707 c 4xf0
 386 626 300 600 300 600 c 5
 300 600 399 581 399 481 c 4
 399 388 310 342 191 342 c 4
 79 342 7 385 7 385 c 5
 34 459 l 5
 34 459 78 422 144 422 c 4
 197 422 226 443 226 489 c 4
 226 533 204 564 132 564 c 6
 95 564 l 5
 95 632 l 5
 132 632 l 6xe8
EndSplineSet
EndChar

StartChar: four.superior
Encoding: 8308 8308 182
Width: 472
HStem: 470 65<91 462>
VStem: 214 172<350 683>
LayerCount: 2
Fore
SplineSet
10 532 m 1
 247 837 l 1
 386 837 l 1
 386 350 l 1
 214 350 l 1
 214 683 l 5
 91 535 l 1
 462 535 l 1
 462 470 l 1
 17 470 l 1
 10 532 l 1
EndSplineSet
EndChar

StartChar: five.superior
Encoding: 8309 8309 183
Width: 415
Flags: W
HStem: 343 80<70.027 206.31> 581 256<92 191.026> 763 74<208 379>
VStem: 227 173<444.972 558.18>
LayerCount: 2
Fore
SplineSet
92 837 m 1xd0
 379 837 l 1
 379 763 l 1
 208 763 l 1xb0
 192 659 l 1
 192 659 213 666 253 666 c 0
 340 666 400 612 400 514 c 0
 400 398 310 343 189 343 c 0
 75 343 7 398 7 398 c 1
 33 466 l 1
 33 466 78 423 142 423 c 0
 198 423 227 451 227 502 c 0
 227 547 202 581 139 581 c 0
 89 581 48 565 48 565 c 1
 92 837 l 1xd0
EndSplineSet
EndChar

StartChar: six.superior
Encoding: 8310 8310 184
Width: 443
HStem: 342 72<190.417 258.943> 606 70<190.899 314.5> 768 75<239.35 345>
VStem: 17 160<441.476 595.175> 274 153<428.137 594.284>
LayerCount: 2
Fore
SplineSet
177 509 m 4
 177 451 191 414 225 414 c 4
 258 414 274 451 274 509 c 4
 274 569 258 606 225 606 c 4
 191 606 177 569 177 509 c 4
165 643 m 5
 165 643 193 676 266 676 c 4
 363 676 427 612 427 511 c 4
 427 408 348 342 225 342 c 4
 97 342 17 410 17 547 c 4
 17 761 156 843 345 843 c 5
 345 768 l 5
 232 768 181 721 165 643 c 5
EndSplineSet
EndChar

StartChar: seven.superior
Encoding: 8311 8311 185
Width: 416
HStem: 763 74<13 242>
LayerCount: 2
Fore
SplineSet
242 763 m 5
 13 763 l 1
 13 837 l 1
 396 837 l 5
 396 788 l 5
 215 350 l 1
 53 350 l 1
 242 763 l 5
EndSplineSet
EndChar

StartChar: eight.superior
Encoding: 8312 8312 186
Width: 441
HStem: 342 66<185.128 256.756> 577 56<190 251> 585 42<107 334> 777 66<188.077 253.632>
VStem: 17 153<420.113 556.075> 35 142<648.291 770.285> 265 142<648.291 770.285> 272 153<420.113 556.075>
LayerCount: 2
Fore
SplineSet
177 707 m 4xd6
 177 662 190 633 221 633 c 0
 251 633 265 662 265 707 c 4
 265 750 251 777 221 777 c 0
 190 777 177 750 177 707 c 4xd6
35 714 m 0
 35 793 107 843 221 843 c 0
 334 843 407 793 407 714 c 0
 407 635 334 585 221 585 c 0xb6
 107 585 35 635 35 714 c 0
170 494 m 0xd9
 170 441 186 408 221 408 c 0
 256 408 272 441 272 494 c 0
 272 545 256 577 221 577 c 0
 186 577 170 545 170 494 c 0xd9
17 488 m 0
 17 573 96 627 221 627 c 0xb9
 345 627 425 573 425 488 c 0
 425 399 345 342 221 342 c 0
 96 342 17 399 17 488 c 0
EndSplineSet
EndChar

StartChar: nine.superior
Encoding: 8313 8313 187
Width: 443
HStem: 342 75<99 199.452> 509 70<129.5 252.589> 771 72<184.284 252.81>
VStem: 17 153<590.716 758.686> 267 160<590.347 742.74>
LayerCount: 2
Fore
SplineSet
267 676 m 0
 267 734 252 771 218 771 c 0
 185 771 170 734 170 676 c 0
 170 616 185 579 218 579 c 0
 252 579 267 616 267 676 c 0
278 542 m 5
 278 542 251 509 178 509 c 0
 81 509 17 573 17 674 c 0
 17 777 95 843 218 843 c 0
 346 843 427 775 427 638 c 0
 427 424 288 342 99 342 c 1
 99 417 l 1
 212 417 262 464 278 542 c 5
EndSplineSet
EndChar

StartChar: zero.inferior
Encoding: 8320 8320 188
Width: 476
HStem: -358 72<207.424 266.373> 71 72<207.424 266.373>
VStem: 17 166<-227.496 11.28> 294 166<-227.496 11.28>
LayerCount: 2
Fore
SplineSet
183 -109 m 0
 183 -218 199 -286 238 -286 c 0
 276 -286 294 -218 294 -109 c 0
 294 2 276 71 238 71 c 0
 199 71 183 2 183 -109 c 0
17 -109 m 4
 17 45 103 143 239 143 c 4
 374 143 460 45 460 -109 c 4
 460 -261 374 -358 239 -358 c 4
 103 -358 17 -261 17 -109 c 4
EndSplineSet
EndChar

StartChar: one.inferior
Encoding: 8321 8321 189
Width: 320
VStem: 123 172<-350 23>
LayerCount: 2
Fore
SplineSet
123 23 m 1
 35 -32 l 5
 1 21 l 1
 156 137 l 1
 295 137 l 1
 295 -350 l 1
 123 -350 l 1
 123 23 l 1
EndSplineSet
EndChar

StartChar: two.inferior
Encoding: 8322 8322 190
Width: 405
HStem: -350 97<151 396> 66 77<66.7937 212.533>
VStem: 226 165<-46.7955 51.3475>
LayerCount: 2
Fore
SplineSet
151 66 m 0
 90 66 45 31 45 31 c 1
 21 97 l 1
 21 97 78 143 194 143 c 0
 323 143 391 80 391 -14 c 0
 391 -96 328 -139 229 -182 c 0
 155 -214 151 -253 151 -253 c 1
 396 -253 l 1
 396 -350 l 1
 13 -350 l 1
 13 -327 l 2
 13 -208 45 -160 166 -79 c 0
 206 -52 226 -29 226 3 c 0
 226 46 200 66 151 66 c 0
EndSplineSet
EndChar

StartChar: three.inferior
Encoding: 8323 8323 191
Width: 415
HStem: -358 80<58.7321 209.211> -136 68<95 198.531> 63 80<66.6641 200.052>
VStem: 215 171<-51.5164 49.1639> 226 173<-260.453 -155.535>
LayerCount: 2
Fore
SplineSet
132 -68 m 6xe8
 189 -68 215 -44 215 -1 c 4
 215 44 187 63 140 63 c 4
 83 63 43 29 43 29 c 5
 18 97 l 5
 18 97 81 143 193 143 c 4
 308 143 386 97 386 7 c 4xf0
 386 -74 300 -100 300 -100 c 5
 300 -100 399 -119 399 -219 c 4
 399 -312 310 -358 191 -358 c 4
 79 -358 7 -314 7 -314 c 5
 34 -242 l 5
 34 -242 78 -278 144 -278 c 4
 197 -278 226 -257 226 -211 c 4
 226 -167 204 -136 132 -136 c 6
 95 -136 l 5
 95 -68 l 5
 132 -68 l 6xe8
EndSplineSet
EndChar

StartChar: four.inferior
Encoding: 8324 8324 192
Width: 472
HStem: -230 65<91 462>
VStem: 214 172<-350 -15>
LayerCount: 2
Fore
SplineSet
10 -168 m 1
 247 137 l 1
 386 137 l 1
 386 -350 l 1
 214 -350 l 1
 214 -15 l 5
 91 -165 l 1
 462 -165 l 1
 462 -230 l 1
 17 -230 l 1
 10 -168 l 1
EndSplineSet
EndChar

StartChar: five.inferior
Encoding: 8325 8325 193
Width: 415
HStem: -357 80<70.027 206.31> -119 256<92 191.026> 63 74<208 379>
VStem: 227 173<-255.028 -141.82>
LayerCount: 2
Fore
SplineSet
92 137 m 1xd0
 379 137 l 1
 379 63 l 1
 208 63 l 1xb0
 192 -41 l 5
 192 -41 213 -34 253 -34 c 0
 340 -34 400 -88 400 -186 c 0
 400 -302 310 -357 189 -357 c 0
 75 -357 7 -302 7 -302 c 1
 33 -234 l 1
 33 -234 78 -277 142 -277 c 0
 198 -277 227 -249 227 -198 c 0
 227 -153 202 -119 139 -119 c 0
 89 -119 48 -135 48 -135 c 1
 92 137 l 1xd0
EndSplineSet
EndChar

StartChar: six.inferior
Encoding: 8326 8326 194
Width: 443
HStem: -358 72<190.417 258.943> -94 70<190.899 314.5> 68 75<239.35 345>
VStem: 17 160<-258.524 -104.825> 274 153<-271.863 -105.716>
LayerCount: 2
Fore
SplineSet
177 -191 m 4
 177 -249 191 -286 225 -286 c 4
 258 -286 274 -249 274 -191 c 4
 274 -131 258 -94 225 -94 c 4
 191 -94 177 -131 177 -191 c 4
165 -57 m 5
 165 -57 193 -24 266 -24 c 4
 363 -24 427 -88 427 -189 c 4
 427 -292 348 -358 225 -358 c 4
 97 -358 17 -290 17 -153 c 4
 17 61 156 143 345 143 c 5
 345 68 l 5
 232 68 181 21 165 -57 c 5
EndSplineSet
EndChar

StartChar: seven.inferior
Encoding: 8327 8327 195
Width: 416
HStem: 63 74<13 242>
LayerCount: 2
Fore
SplineSet
242 63 m 5
 13 63 l 1
 13 137 l 1
 396 137 l 5
 396 88 l 5
 215 -350 l 1
 53 -350 l 1
 242 63 l 5
EndSplineSet
EndChar

StartChar: eight.inferior
Encoding: 8328 8328 196
Width: 441
HStem: -358 66<185.128 256.756> -123 56<190 251> -115 42<107 334> 77 66<188.077 253.632>
VStem: 17 153<-279.887 -143.925> 35 142<-51.7088 70.285> 265 142<-51.7088 70.285> 272 153<-279.887 -143.925>
LayerCount: 2
Fore
SplineSet
177 7 m 4xd6
 177 -38 190 -67 221 -67 c 0
 251 -67 265 -38 265 7 c 4
 265 50 251 77 221 77 c 0
 190 77 177 50 177 7 c 4xd6
35 14 m 0
 35 93 107 143 221 143 c 0
 334 143 407 93 407 14 c 0
 407 -65 334 -115 221 -115 c 0xb6
 107 -115 35 -65 35 14 c 0
170 -206 m 0xd9
 170 -259 186 -292 221 -292 c 0
 256 -292 272 -259 272 -206 c 0
 272 -155 256 -123 221 -123 c 0
 186 -123 170 -155 170 -206 c 0xd9
17 -212 m 0
 17 -127 96 -73 221 -73 c 0xb9
 345 -73 425 -127 425 -212 c 0
 425 -301 345 -358 221 -358 c 0
 96 -358 17 -301 17 -212 c 0
EndSplineSet
EndChar

StartChar: nine.inferior
Encoding: 8329 8329 197
Width: 443
HStem: -358 75<99 199.452> -191 70<129.5 252.589> 71 72<184.284 252.81>
VStem: 17 153<-109.284 58.6857> 267 160<-109.653 42.7399>
LayerCount: 2
Fore
SplineSet
267 -24 m 0
 267 34 252 71 218 71 c 0
 185 71 170 34 170 -24 c 0
 170 -84 185 -121 218 -121 c 0
 252 -121 267 -84 267 -24 c 0
278 -158 m 5
 278 -158 251 -191 178 -191 c 0
 81 -191 17 -127 17 -26 c 0
 17 77 95 143 218 143 c 0
 346 143 427 75 427 -62 c 0
 427 -276 288 -358 99 -358 c 1
 99 -283 l 1
 212 -283 262 -236 278 -158 c 5
EndSplineSet
EndChar

StartChar: zero.numr
Encoding: 65537 -1 198
Width: 476
HStem: 248 72<207.424 266.373> 677 72<207.424 266.373>
VStem: 17 166<378.504 617.28> 294 166<378.504 617.28>
LayerCount: 2
Fore
SplineSet
183 497 m 0
 183 388 199 320 238 320 c 0
 276 320 294 388 294 497 c 0
 294 608 276 677 238 677 c 0
 199 677 183 608 183 497 c 0
17 497 m 4
 17 651 103 749 239 749 c 4
 374 749 460 651 460 497 c 4
 460 345 374 248 239 248 c 4
 103 248 17 345 17 497 c 4
EndSplineSet
EndChar

StartChar: one.numr
Encoding: 65538 -1 199
Width: 320
VStem: 123 172<256 640>
LayerCount: 2
Fore
SplineSet
123 640 m 1
 35 583 l 5
 1 638 l 1
 156 750 l 1
 295 750 l 1
 295 256 l 1
 123 256 l 1
 123 640 l 1
EndSplineSet
EndChar

StartChar: two.numr
Encoding: 65539 -1 200
Width: 405
HStem: 256 97<151 396> 672 77<66.7937 212.533>
VStem: 226 165<559.204 657.347>
LayerCount: 2
Fore
SplineSet
151 672 m 0
 90 672 45 637 45 637 c 1
 21 704 l 1
 21 704 78 749 194 749 c 0
 323 749 391 686 391 592 c 0
 391 510 328 467 229 424 c 0
 155 392 151 353 151 353 c 1
 396 353 l 1
 396 256 l 1
 13 256 l 1
 13 279 l 2
 13 398 45 446 166 527 c 0
 206 554 226 577 226 609 c 0
 226 652 200 672 151 672 c 0
EndSplineSet
EndChar

StartChar: three.numr
Encoding: 65540 -1 201
Width: 415
HStem: 248 80<58.7321 209.211> 470 68<95 198.531> 669 80<65.9144 200.052>
VStem: 215 171<554.484 655.164> 226 173<345.547 450.465>
LayerCount: 2
Fore
SplineSet
132 538 m 6xe8
 189 538 215 562 215 605 c 4
 215 650 187 669 140 669 c 4
 83 669 43 636 43 636 c 5
 18 704 l 5
 18 704 81 749 193 749 c 4
 308 749 386 703 386 613 c 4xf0
 386 532 300 506 300 506 c 5
 300 506 399 487 399 387 c 4
 399 294 310 248 191 248 c 4
 79 248 7 291 7 291 c 5
 34 365 l 5
 34 365 78 328 144 328 c 4
 197 328 226 349 226 395 c 4
 226 439 204 470 132 470 c 6
 95 470 l 5
 95 538 l 5
 132 538 l 6xe8
EndSplineSet
EndChar

StartChar: four.numr
Encoding: 65541 -1 202
Width: 472
HStem: 376 65<91 462>
VStem: 214 172<256 590>
LayerCount: 2
Fore
SplineSet
10 438 m 1
 247 743 l 1
 386 743 l 1
 386 256 l 1
 214 256 l 1
 214 590 l 5
 91 441 l 1
 462 441 l 1
 462 376 l 1
 17 376 l 1
 10 438 l 1
EndSplineSet
EndChar

StartChar: five.numr
Encoding: 65542 -1 203
Width: 415
HStem: 248 81<70.027 206.31> 487 256<92 191.026> 668 75<208 379>
VStem: 227 173<350.911 464.147>
LayerCount: 2
Fore
SplineSet
92 743 m 1xd0
 379 743 l 1
 379 668 l 1
 208 668 l 1xb0
 192 565 l 5
 192 565 213 571 253 571 c 0
 340 571 400 518 400 420 c 0
 400 304 310 248 189 248 c 0
 75 248 7 303 7 303 c 1
 33 372 l 1
 33 372 78 329 142 329 c 0
 198 329 227 357 227 408 c 0
 227 453 202 487 139 487 c 0
 89 487 48 471 48 471 c 1
 92 743 l 1xd0
EndSplineSet
EndChar

StartChar: six.numr
Encoding: 65543 -1 204
Width: 443
HStem: 248 72<190.417 258.943> 512 70<190.899 314.5> 674 75<239.35 345>
VStem: 17 160<347.476 501.175> 274 153<334.137 500.284>
LayerCount: 2
Fore
SplineSet
177 415 m 4
 177 357 191 320 225 320 c 4
 258 320 274 357 274 415 c 4
 274 475 258 512 225 512 c 4
 191 512 177 475 177 415 c 4
165 549 m 5
 165 549 193 582 266 582 c 4
 363 582 427 518 427 417 c 4
 427 314 348 248 225 248 c 4
 97 248 17 316 17 453 c 4
 17 667 156 749 345 749 c 5
 345 674 l 5
 232 674 181 627 165 549 c 5
EndSplineSet
EndChar

StartChar: seven.numr
Encoding: 65544 -1 205
Width: 416
HStem: 669 74<13 242>
LayerCount: 2
Fore
SplineSet
242 669 m 5
 13 669 l 1
 13 743 l 1
 396 743 l 5
 396 695 l 5
 215 256 l 1
 53 256 l 1
 242 669 l 5
EndSplineSet
EndChar

StartChar: eight.numr
Encoding: 65545 -1 206
Width: 441
HStem: 248 66<185.128 256.756> 483 56<190 251> 491 42<107 334> 683 66<188.077 253.632>
VStem: 17 153<326.113 462.075> 35 142<554.291 676.285> 265 142<554.291 676.285> 272 153<326.113 462.075>
LayerCount: 2
Fore
SplineSet
177 613 m 4xd6
 177 568 190 539 221 539 c 0
 251 539 265 568 265 613 c 4
 265 656 251 683 221 683 c 0
 190 683 177 656 177 613 c 4xd6
35 620 m 0
 35 699 107 749 221 749 c 0
 334 749 407 699 407 620 c 0
 407 541 334 491 221 491 c 0xb6
 107 491 35 541 35 620 c 0
170 400 m 0xd9
 170 347 186 314 221 314 c 0
 256 314 272 347 272 400 c 0
 272 451 256 483 221 483 c 0
 186 483 170 451 170 400 c 0xd9
17 394 m 0
 17 479 96 533 221 533 c 0xb9
 345 533 425 479 425 394 c 0
 425 305 345 248 221 248 c 0
 96 248 17 305 17 394 c 0
EndSplineSet
EndChar

StartChar: nine.numr
Encoding: 65546 -1 207
Width: 443
HStem: 248 75<99 199.452> 415 70<129.5 252.589> 677 72<184.284 252.81>
VStem: 17 153<496.716 664.686> 267 160<496.347 648.74>
LayerCount: 2
Fore
SplineSet
267 582 m 0
 267 640 252 677 218 677 c 0
 185 677 170 640 170 582 c 0
 170 522 185 485 218 485 c 0
 252 485 267 522 267 582 c 0
278 447 m 5
 278 447 251 415 178 415 c 0
 81 415 17 479 17 580 c 0
 17 683 95 749 218 749 c 0
 346 749 427 681 427 544 c 0
 427 330 288 248 99 248 c 1
 99 323 l 1
 212 323 262 370 278 447 c 5
EndSplineSet
EndChar

StartChar: zero.dnom
Encoding: 65547 -1 208
Width: 476
HStem: -8 72<207.424 266.373> 421 72<207.424 266.373>
VStem: 17 166<122.504 361.28> 294 166<122.504 361.28>
LayerCount: 2
Fore
SplineSet
183 241 m 0
 183 132 199 64 238 64 c 0
 276 64 294 132 294 241 c 0
 294 352 276 421 238 421 c 0
 199 421 183 352 183 241 c 0
17 241 m 4
 17 395 103 493 239 493 c 4
 374 493 460 395 460 241 c 4
 460 89 374 -8 239 -8 c 4
 103 -8 17 89 17 241 c 4
EndSplineSet
EndChar

StartChar: one.dnom
Encoding: 65548 -1 209
Width: 320
HStem: 0 21G<123 295>
VStem: 123 172<0 373>
LayerCount: 2
Fore
SplineSet
123 373 m 1
 35 318 l 5
 1 371 l 1
 156 487 l 1
 295 487 l 1
 295 0 l 1
 123 0 l 1
 123 373 l 1
EndSplineSet
EndChar

StartChar: two.dnom
Encoding: 65549 -1 210
Width: 405
HStem: 0 97<151 396> 416 77<66.7937 212.533>
VStem: 226 165<303.204 401.347>
LayerCount: 2
Fore
SplineSet
151 416 m 0
 90 416 45 381 45 381 c 1
 21 447 l 1
 21 447 78 493 194 493 c 0
 323 493 391 430 391 336 c 0
 391 254 328 211 229 168 c 0
 155 136 151 97 151 97 c 1
 396 97 l 1
 396 0 l 1
 13 0 l 1
 13 23 l 2
 13 142 45 190 166 271 c 0
 206 298 226 321 226 353 c 0
 226 396 200 416 151 416 c 0
EndSplineSet
EndChar

StartChar: three.dnom
Encoding: 65550 -1 211
Width: 415
HStem: -8 80<58.7321 209.211> 214 68<95 198.531> 413 80<66.6641 200.052>
VStem: 215 171<298.484 399.164> 226 173<89.5474 194.465>
LayerCount: 2
Fore
SplineSet
132 282 m 6xe8
 189 282 215 306 215 349 c 4
 215 394 187 413 140 413 c 4
 83 413 43 379 43 379 c 5
 18 447 l 5
 18 447 81 493 193 493 c 4
 308 493 386 447 386 357 c 4xf0
 386 276 300 250 300 250 c 5
 300 250 399 231 399 131 c 4
 399 38 310 -8 191 -8 c 4
 79 -8 7 34 7 34 c 5
 34 109 l 5
 34 109 78 72 144 72 c 4
 197 72 226 93 226 139 c 4
 226 183 204 214 132 214 c 6
 95 214 l 5
 95 282 l 5
 132 282 l 6xe8
EndSplineSet
EndChar

StartChar: four.dnom
Encoding: 65551 -1 212
Width: 472
HStem: 0 21G<214 386> 120 65<91 462>
VStem: 214 172<0 335>
LayerCount: 2
Fore
SplineSet
10 183 m 1
 247 487 l 1
 386 487 l 1
 386 0 l 1
 214 0 l 1
 214 335 l 5
 91 185 l 1
 462 185 l 1
 462 120 l 1
 17 120 l 1
 10 183 l 1
EndSplineSet
EndChar

StartChar: five.dnom
Encoding: 65552 -1 213
Width: 415
HStem: -7 80<68.3768 206.31> 231 256<92 191.026> 413 74<208 379>
VStem: 227 173<94.972 208.147>
LayerCount: 2
Fore
SplineSet
92 487 m 1xd0
 379 487 l 1
 379 413 l 1
 208 413 l 1xb0
 192 309 l 5
 192 309 213 315 253 315 c 0
 340 315 400 262 400 164 c 0
 400 48 310 -7 189 -7 c 0
 75 -7 7 47 7 47 c 1
 33 116 l 1
 33 116 78 73 142 73 c 0
 198 73 227 101 227 152 c 0
 227 197 202 231 139 231 c 0
 89 231 48 215 48 215 c 1
 92 487 l 1xd0
EndSplineSet
EndChar

StartChar: six.dnom
Encoding: 65553 -1 214
Width: 443
HStem: -8 72<190.417 258.943> 256 70<190.899 314.5> 418 75<239.35 345>
VStem: 17 160<91.4761 245.175> 274 153<78.1368 244.284>
LayerCount: 2
Fore
SplineSet
177 159 m 4
 177 101 191 64 225 64 c 4
 258 64 274 101 274 159 c 4
 274 219 258 256 225 256 c 4
 191 256 177 219 177 159 c 4
165 294 m 5
 165 294 193 326 266 326 c 4
 363 326 427 262 427 161 c 4
 427 58 348 -8 225 -8 c 4
 97 -8 17 60 17 197 c 4
 17 411 156 493 345 493 c 5
 345 418 l 5
 232 418 181 371 165 294 c 5
EndSplineSet
EndChar

StartChar: seven.dnom
Encoding: 65554 -1 215
Width: 416
HStem: 0 21G<53 223.265> 413 74<13 242>
LayerCount: 2
Fore
SplineSet
242 413 m 5
 13 413 l 1
 13 487 l 1
 396 487 l 5
 396 438 l 5
 215 0 l 1
 53 0 l 1
 242 413 l 5
EndSplineSet
EndChar

StartChar: eight.dnom
Encoding: 65555 -1 216
Width: 441
HStem: -8 66<185.128 256.756> 227 56<190 251> 235 42<107 334> 427 66<188.077 253.632>
VStem: 17 153<70.1132 206.075> 35 142<298.291 420.285> 265 142<298.291 420.285> 272 153<70.1132 206.075>
LayerCount: 2
Fore
SplineSet
177 357 m 4xd6
 177 312 190 283 221 283 c 0
 251 283 265 312 265 357 c 4
 265 400 251 427 221 427 c 0
 190 427 177 400 177 357 c 4xd6
35 364 m 0
 35 443 107 493 221 493 c 0
 334 493 407 443 407 364 c 0
 407 285 334 235 221 235 c 0xb6
 107 235 35 285 35 364 c 0
170 144 m 0xd9
 170 91 186 58 221 58 c 0
 256 58 272 91 272 144 c 0
 272 195 256 227 221 227 c 0
 186 227 170 195 170 144 c 0xd9
17 138 m 0
 17 223 96 277 221 277 c 0xb9
 345 277 425 223 425 138 c 0
 425 49 345 -8 221 -8 c 0
 96 -8 17 49 17 138 c 0
EndSplineSet
EndChar

StartChar: nine.dnom
Encoding: 65556 -1 217
Width: 443
HStem: -8 75<99 199.452> 159 70<129.5 252.589> 421 72<184.284 252.81>
VStem: 17 153<240.716 408.686> 267 160<240.347 392.74>
LayerCount: 2
Fore
SplineSet
267 326 m 0
 267 384 252 421 218 421 c 0
 185 421 170 384 170 326 c 0
 170 266 185 229 218 229 c 0
 252 229 267 266 267 326 c 0
278 192 m 5
 278 192 251 159 178 159 c 0
 81 159 17 223 17 324 c 0
 17 427 95 493 218 493 c 0
 346 493 427 425 427 288 c 0
 427 74 288 -8 99 -8 c 1
 99 67 l 1
 212 67 262 114 278 192 c 5
EndSplineSet
EndChar

StartChar: .notdef
Encoding: 65536 -1 218
Width: 647
Flags: W
HStem: 0 53.0996<96.7002 550.3> 81.5801 76.8916<244.319 351.641> 263.521 26.9873<252.744 343.288> 570.454 78.9658<191.644 409.722> 677.9 53.0996<96.7002 550.3>
VStem: 40 56.7002<53.0996 677.9> 126.061 200.298<414.234 477.765> 126.061 121.276<290.509 380.501> 126.061 108.352<169.41 252.468> 361.462 159.478<169.41 252.468> 467.756 53.1836<390.261 518.506> 550.3 56.7002<53.0996 677.9>
LayerCount: 2
Fore
SplineSet
234.412109375 210.721679688 m 0xfcd0
 234.412109375 178.791064453 259.223263889 158.471679688 298.211914062 158.471679688 c 0
 336.864453125 158.471679688 361.461914062 178.791064453 361.461914062 210.721679688 c 0
 361.461914062 242.988406033 336.864453125 263.521484375 298.211914062 263.521484375 c 0
 259.223263889 263.521484375 234.412109375 242.988406033 234.412109375 210.721679688 c 0xfcd0
269.336914062 506.987304688 m 0
 305.86908856 506.987304688 326.358398438 490.158184811 326.358398438 462.108398438 c 0xfe30
 326.358398438 434.122875156 315.658670867 422.624734988 291.623046875 403.1484375 c 0
 254.595674839 373.145151327 247.336914062 344.625117669 247.336914062 290.508789062 c 1
 343.90234375 290.508789062 l 1
 343.90234375 321.168170393 349.987543765 331.426496489 389.456054688 351.249023438 c 0
 436.675382409 374.963824262 467.755859375 397.910347646 467.755859375 452.213867188 c 0xfd30
 467.755859375 523.307002506 411.7868804 570.454101562 305.388671875 570.454101562 c 0
 210.084993602 570.454101562 162.185546875 532.946289062 162.185546875 532.946289062 c 1
 182.104492188 477.923828125 l 1
 182.104492188 477.923828125 218.980252796 506.987304688 269.336914062 506.987304688 c 0
126.060546875 81.580078125 m 1xfcb0
 126.060546875 649.419921875 l 1
 520.939453125 649.419921875 l 1
 520.939453125 81.580078125 l 1
 126.060546875 81.580078125 l 1xfcb0
96.7001953125 53.099609375 m 1
 550.299804688 53.099609375 l 1
 550.299804688 677.900390625 l 1
 96.7001953125 677.900390625 l 1
 96.7001953125 53.099609375 l 1
40 0 m 1
 40 731 l 1
 607 731 l 1
 607 0 l 1
 40 0 l 1
EndSplineSet
EndChar

StartChar: uni20B8
Encoding: 8376 8376 219
Width: 672
Flags: W
HStem: 0 21G<207 465> 455.008 106<15 207 465 657> 455.008 55.9922<207 465> 625.008 106<15 657>
VStem: 207 258<0 511>
LayerCount: 2
Fore
SplineSet
657 455.0078125 m 5xd8
 15 455.0078125 l 5
 15 561.0078125 l 5
 657 561.0078125 l 5
 657 455.0078125 l 5xd8
657 625.0078125 m 5
 15 625.0078125 l 5
 15 731.0078125 l 5
 657 731.0078125 l 5
 657 625.0078125 l 5
207 0 m 1
 207 511 l 1
 465 511 l 1xb8
 465 0 l 1
 207 0 l 1
EndSplineSet
EndChar

StartChar: Delta
Encoding: 8710 8710 220
Width: 788
Flags: W
HStem: 0 106<167 470> 711 20G<263.217 517.031>
LayerCount: 2
Fore
SplineSet
20 86 m 1
 271 731 l 1
 509 731 l 5
 768 86 l 5
 768 0 l 5
 20 0 l 1
 20 86 l 1
167 106 m 5
 470 106 l 5
 321.420898438 520.478515625 l 5
 167 106 l 5
EndSplineSet
EndChar

StartChar: product
Encoding: 8719 8719 221
Width: 808
Flags: W
HStem: -179.994 21G<40 298 510 768> 635 96<298 510>
VStem: 40 258<-179.994 635> 510 258<-179.994 635>
LayerCount: 2
Fore
SplineSet
40 731 m 1
 768 731 l 5
 768 -179.994140625 l 5
 510 -179.994140625 l 5
 510 635 l 5
 298 635 l 1
 298 -179.994140625 l 1
 40 -179.994140625 l 1
 40 731 l 1
EndSplineSet
EndChar

StartChar: lessequal
Encoding: 8804 8804 223
Width: 450
Flags: W
HStem: 136 96<15 435>
LayerCount: 2
Fore
SplineSet
15 232 m 1
 435 232 l 1
 435 136 l 1
 15 136 l 1
 15 232 l 1
15 472 m 5
 435 602 l 1
 435 500 l 1
 228 434 l 1
 435 368 l 1
 435 266 l 1
 15 396 l 1
 15 472 l 5
EndSplineSet
EndChar

StartChar: greaterequal
Encoding: 8805 8805 224
Width: 450
Flags: W
HStem: 136 96<15 435>
LayerCount: 2
Fore
SplineSet
435 232 m 1
 435 136 l 1
 15 136 l 1
 15 232 l 1
 435 232 l 1
435 472 m 5
 435 396 l 1
 15 266 l 1
 15 368 l 1
 222 434 l 1
 15 500 l 1
 15 602 l 1
 435 472 l 5
EndSplineSet
EndChar

StartChar: emptyset
Encoding: 8709 8709 225
Width: 815
Flags: W
HStem: -10.0664 116.351<325.363 519.095> 622.583 116.351<295.855 503.676>
VStem: 25 129.487<251.041 474.523> 660.513 129.487<251.041 474.523>
LayerCount: 2
Fore
SplineSet
709.34765625 756.462890625 m 1
 223.84375 -84.455078125 l 1
 121.65234375 -25.455078125 l 1
 607.15234375 815.456054688 l 1
 709.34765625 756.462890625 l 1
154.487304688 361.704101562 m 0
 154.487304688 204.670295231 251.649990061 106.284179688 407.697265625 106.284179688 c 4
 561.111903534 106.284179688 660.512695312 204.670295231 660.512695312 361.704101562 c 0
 660.512695312 522.064913087 561.111903534 622.583007812 407.697265625 622.583007812 c 0
 251.649990061 622.583007812 154.487304688 522.064913087 154.487304688 361.704101562 c 0
25 361.93359375 m 0
 25 592.322265625 173.943878257 738.93359375 408 738.93359375 c 0
 641.444444444 738.93359375 790 592.322265625 790 361.93359375 c 0
 790 134.599609375 641.444444444 -10.06640625 408 -10.06640625 c 0
 173.943878257 -10.06640625 25 134.599609375 25 361.93359375 c 0
EndSplineSet
EndChar

StartChar: summation
Encoding: 8721 8721 226
Width: 670
Flags: W
HStem: -179.994 106<318 655> 625 106<318 655>
LayerCount: 2
Back
SplineSet
20 731 m 5
 615 731 l 5
 615 625 l 5
 318 625 l 5
 479 412 l 5
 479 316 l 5
 318 106 l 5
 615 106 l 5
 615 0 l 5
 20 0 l 5
 20 76 l 5
 240 360 l 5
 20 654 l 5
 20 731 l 5
EndSplineSet
Fore
SplineSet
20 731 m 1
 655 731 l 1
 655 625 l 1
 318 625 l 1
 499 322 l 5
 499 226 l 5
 318 -73.994140625 l 1
 655 -73.994140625 l 1
 655 -179.994140625 l 1
 20 -179.994140625 l 1
 20 -103.994140625 l 1
 260 270 l 5
 20 654 l 1
 20 731 l 1
EndSplineSet
EndChar

StartChar: notequal
Encoding: 8800 8800 227
Width: 450
Flags: W
HStem: 220 102<15 435> 406 102<15 435>
LayerCount: 2
Fore
SplineSet
38 135.530273438 m 5
 293 598.403320312 l 5
 412 598.403320312 l 5
 157 135.530273438 l 5
 38 135.530273438 l 5
EndSplineSet
Refer: 59 61 N 1 0 0 1 0 0 2
EndChar

StartChar: approxequal
Encoding: 8776 8776 228
Width: 450
VWidth: 999
Flags: W
HStem: 220 90<230.876 356.265> 263 89<86.6205 219.144> 380 90<230.876 356.265> 423 89<86.6205 219.144>
LayerCount: 2
Fore
SplineSet
443 295 m 1x80
 443 295 387.130743729 220 301 220 c 0x80
 228.307514391 220 204.076685855 263 151 263 c 0
 101.985736269 263 62 222 62 222 c 1
 7 295 l 1
 7 295 68.6889134457 352 149 352 c 0x40
 220.538342928 352 250.538342928 310 299 310 c 0
 346.282997533 310 384 357 384 357 c 1
 443 295 l 1x80
443 455 m 5
 443 455 387.130743729 380 301 380 c 4x20
 228.307514391 380 204.076685855 423 151 423 c 4
 101.985736269 423 62 382 62 382 c 5
 7 455 l 5
 7 455 68.6889134457 512 149 512 c 4x10
 220.538342928 512 250.538342928 470 299 470 c 4x20
 346.282997533 470 384 517 384 517 c 5
 443 455 l 5
EndSplineSet
EndChar

StartChar: uni031B
Encoding: 795 795 230
Width: 0
Flags: W
HStem: 495 71.0078<0 55.7297> 711.008 20G<112 259>
VStem: 112 147<632.978 731.008>
LayerCount: 2
Fore
SplineSet
112 731.0078125 m 5
 259 731.0078125 l 5
 259 621.789123535 181.011152416 495 0 495 c 1
 0 566.0078125 l 1
 90.1463414634 566.0078125 112 664.355698529 112 731.0078125 c 5
EndSplineSet
EndChar

StartChar: uni20B3
Encoding: 8371 8371 234
Width: 837
Flags: W
HStem: 0 20G<30 173.93 503.223 788> 136 96<15 822> 276 96<35 802> 710 21G<273.16 535.114>
LayerCount: 2
Fore
SplineSet
35 372 m 5
 802 372 l 5
 802 276 l 5
 35 276 l 5
 35 372 l 5
15 232 m 5
 822 232 l 5
 822 136 l 5
 15 136 l 5
 15 232 l 5
EndSplineSet
Refer: 16 86 N -1 0 0 -1 789 731 2
EndChar

StartChar: uni20B4
Encoding: 8372 8372 235
Width: 767
Flags: W
HStem: -10 107.462<359.224 563.813> 236 96<15 752> 376 96<15 752> 626.659 112.462<207.766 402.472>
VStem: 89 248.182<123.952 286.82> 425.581 244.312<441.729 602.155>
LayerCount: 2
Fore
SplineSet
15 472 m 5
 752 472 l 5
 752 376 l 5
 15 376 l 5
 15 472 l 5
15 332 m 5
 752 332 l 5
 752 236 l 5
 15 236 l 5
 15 332 l 5
452.13671875 249.140625 m 0
 366.926757812 221.625976562 337.181640625 205.701171875 337.181640625 161 c 0
 337.181640625 119.076171875 375.447265625 97.4619140625 436.892578125 97.4619140625 c 0
 564.40625 97.4619140625 649.703125 162.229492188 649.703125 162.229492188 c 1
 649.703125 162.229492188 649.703125 162.229492188 679.703125 52.2294921875 c 1
 679.703125 52.2294921875 570.692382812 -10 398.71484375 -10 c 0
 196.829101562 -10 89 79.021484375 89 222 c 0
 89 351.639648438 157.45703125 423.629882812 323.522460938 481.081054688 c 0
 391.38671875 504.559570312 425.581054688 523.04296875 425.581054688 562 c 0
 425.581054688 604.26953125 388.53515625 626.659179688 319.892578125 626.659179688 c 0
 226.997070312 626.659179688 146.774414062 575.891601562 146.774414062 575.891601562 c 1
 118.774414062 683.891601562 l 1
 118.774414062 683.891601562 202.049804688 739.12109375 373.286132812 739.12109375 c 0
 557.662109375 739.12109375 669.892578125 649.373046875 669.892578125 501.010742188 c 0
 669.892578125 382.447265625 611.916015625 300.733398438 452.13671875 249.140625 c 0
EndSplineSet
EndChar

StartChar: uni20B9
Encoding: 8377 8377 236
Width: 675
Flags: W
HStem: 0 21G<349.964 604.964> 281.957 102.301<15 225.177> 465 86<15 660> 624.68 106.32<15 660>
VStem: 305.513 239.487<428.194 582.253>
LayerCount: 2
Fore
SplineSet
15 731 m 5
 660 731 l 5
 660 624.6796875 l 5
 15 624.6796875 l 5
 15 731 l 5
15 551 m 1
 660 551 l 1
 660 465 l 1
 15 465 l 1
 15 551 l 1
15 624.6796875 m 1
 15 731 l 1
 218 730.997070312 l 2
 446.517543418 730.993772357 545 642.694476499 545 503.93359375 c 0
 545 347.531397832 397.970703125 315.838867188 397.970703125 315.838867188 c 1
 397.970703125 315.838867188 467.447227051 298.477798992 532.012695312 170.56640625 c 0
 561.514401765 112.12023584 604.963867188 0 604.963867188 0 c 1
 349.963867188 0 l 1
 349.963867188 0 333.439279596 50.4086326907 295.419921875 144.82421875 c 0
 251.240785164 254.536726647 218.008768459 281.95703125 166 281.95703125 c 2
 15 281.95703125 l 1
 15 384.2578125 l 1
 182.697265625 384.284179688 l 2
 266.570554567 384.297367158 305.512695312 431.439548345 305.512695312 506.704101562 c 0
 305.512695312 579.163609078 266.569546261 624.534654335 182.697265625 624.583007812 c 2
 15 624.6796875 l 1
EndSplineSet
EndChar

StartChar: uni20BD
Encoding: 8381 8381 237
Width: 780
Flags: W
HStem: 0 21G<120 378> 124.68 106.32<15 590> 281.957 102.301<15 473.47> 624.69 106.307<378 478.067>
VStem: 120 258<0 624.69> 525.513 229.487<427.81 582.221>
LayerCount: 2
Fore
SplineSet
15 231 m 1
 590 231 l 5
 590 124.6796875 l 5
 15 124.6796875 l 1
 15 231 l 1
378 0 m 1
 120 0 l 1
 120 731 l 1
 438 730.997070312 l 2
 659.529239358 730.995319366 755 642.6944765 755 503.93359375 c 0
 755 368.280861516 656.636887608 281.95703125 433 281.95703125 c 2
 15 281.95703125 l 1
 15 384.2578125 l 1
 402.697265625 384.284179688 l 2
 486.570519799 384.438765026 525.512695312 431.439548345 525.512695312 506.704101562 c 0
 525.512695312 579.163609078 486.569843106 624.328394126 402.697265625 624.583007812 c 2
 378 624.690429688 l 1
 378 0 l 1
EndSplineSet
EndChar

StartChar: uni20BA
Encoding: 8378 8378 238
Width: 730
Flags: W
HStem: -10 124<351.114 484.849>
VStem: 90 258<121 731>
LayerCount: 2
Fore
SplineSet
477 315.0078125 m 5
 15 175.0078125 l 5
 15 281.0078125 l 5
 477 421.0078125 l 5
 477 315.0078125 l 5
477 485.0078125 m 5
 15 345.0078125 l 5
 15 451.0078125 l 5
 477 591.0078125 l 5
 477 485.0078125 l 5
90 20 m 1
 90 731 l 1
 348 731 l 1
 348 121 l 1
 348 121 363 114 386 114 c 0
 566.388805422 114 598 288 598 288 c 1
 720 240 l 1
 720 240 661.543010155 -10 362 -10 c 0
 194.973632812 -10 90 20 90 20 c 1
EndSplineSet
EndChar

StartChar: uni20BC
Encoding: 8380 8380 239
Width: 969
Flags: W
HStem: -0.0664062 21G<40 289.487 415.5 553.5 679.907 929.395> 474.649 126.351<385.6 583.596> 711.008 20G<415.5 553.5>
VStem: 40 249.487<-0.0664062 346.455> 415.5 138<0 731> 679.907 249.487<-0.0664062 346.455>
LayerCount: 2
Fore
SplineSet
484.697265625 474.649414062 m 0
 349.560181414 474.649414062 289.487304688 391.670230996 289.487304688 259.229492188 c 2
 289.487304688 -0.06640625 l 1
 40 -0.06640625 l 1
 40 199 l 2
 40 468.884447298 213.084550542 601 484.39453125 601 c 0
 756.339831388 601 929.39453125 468.884447298 929.39453125 199 c 2
 929.39453125 -0.06640625 l 1
 679.907226562 -0.06640625 l 5
 679.907226562 259.229492188 l 6
 679.907226562 391.670230996 619.834349836 474.649414062 484.697265625 474.649414062 c 0
553.5 731.0078125 m 1
 553.5 0 l 1
 415.5 0 l 1
 415.5 731 l 1
 553.5 731.0078125 l 1
EndSplineSet
EndChar

StartChar: uni20AE
Encoding: 8366 8366 240
Width: 672
Flags: W
HStem: 0 21G<207 465> 625.008 55.9922<207 465> 625.008 106<15 207 465 657>
VStem: 207 258<0 681>
LayerCount: 2
Fore
SplineSet
572 255.0078125 m 1x90
 110 115.0078125 l 1
 110 221.0078125 l 1
 572 361.0078125 l 1
 572 255.0078125 l 1x90
572 425.0078125 m 1
 110 285.0078125 l 1
 110 391.0078125 l 1
 572 531.0078125 l 1
 572 425.0078125 l 1
EndSplineSet
Refer: 9 84 S 1 0 0 1 0 0 2
EndChar

StartChar: uni20A9
Encoding: 8361 8361 241
Width: 1227
Flags: W
HStem: 0 21G<230.938 499.785 729.242 990.062> 256 96<35 230 984 1192> 396 96<15 230 984 1212> 711 20G<51 313.468 555.193 764.651 1017.89 1170>
LayerCount: 2
Fore
SplineSet
984 492 m 5
 1212 492 l 5
 1212 396 l 5
 984 396 l 5
 984 492 l 5
984 352 m 5
 1192 352 l 5
 1192 256 l 5
 984 256 l 5
 984 352 l 5
230 492 m 1
 230 396 l 1
 15 396 l 1
 15 492 l 1
 230 492 l 1
230 352 m 1
 230 256 l 1
 35 256 l 1
 35 352 l 1
 230 352 l 1
EndSplineSet
Refer: 17 87 N 1 0 0 1 50 0 2
EndChar

StartChar: franc
Encoding: 8355 8355 242
Width: 650
Flags: W
HStem: 0 21G<100 358> 136 96<15 482> 316 96<292 589> 625 106<358 635>
VStem: 100 258<0 316 412 625> 292 66<316 412>
LayerCount: 2
Fore
SplineSet
15 232 m 1xf0
 482 232 l 1
 482 136 l 1
 15 136 l 1
 15 232 l 1xf0
292 412 m 1xf4
 589 412 l 1
 589 316 l 1
 292 316 l 1
 292 412 l 1xf4
100 731 m 1xf8
 635 731 l 1
 635 625 l 1
 358 625 l 1
 358 0 l 1
 100 0 l 1
 100 731 l 1xf8
EndSplineSet
EndChar

StartChar: uni20AD
Encoding: 8365 8365 243
Width: 799
Flags: W
HStem: 0 21G<90 348 505.239 798> 301 96<15 752> 711 20G<90 348 575.224 758>
VStem: 90 258<0 731>
LayerCount: 2
Fore
SplineSet
15 397 m 1
 752 397 l 1
 752 301 l 1
 15 301 l 1
 15 397 l 1
EndSplineSet
Refer: 23 75 N 1 0 0 1 50 0 2
EndChar

StartChar: uni20A6
Encoding: 8358 8358 244
Width: 877
Flags: W
HStem: 0 21G<119.5 257.5 605.041 757.5> 236 96<15 183.5 701.5 862> 376 96<15 183.5 701.5 862> 711 20G<119.5 271.915 619.5 757.5>
VStem: 15 168.5<236 332 376 472> 119.5 138<0 304.187> 619.5 138<426.271 731> 701.5 160.5<236 332 376 472>
LayerCount: 2
Fore
SplineSet
701.5 472 m 1xf1
 862 472 l 1
 862 376 l 1
 701.5 376 l 1
 701.5 472 l 1xf1
701.5 332 m 1
 862 332 l 1
 862 236 l 1
 701.5 236 l 1
 701.5 332 l 1
183.5 472 m 1xf8
 183.5 376 l 1
 15 376 l 1
 15 472 l 1
 183.5 472 l 1xf8
183.5 332 m 1
 183.5 236 l 1
 15 236 l 1
 15 332 l 1
 183.5 332 l 1
EndSplineSet
Refer: 10 78 N 1 0 0 1 79.5 0 2
EndChar

StartChar: uni20B1
Encoding: 8369 8369 245
Width: 870
Flags: W
HStem: 0 21G<110 368> 241.957 102.301<298 464.727> 346 96<15 352 548 855> 496 96<15 352 548 855> 624.69 106.307<368 459.281>
VStem: 110 258<0 241.957 344.258 624.69> 298 70<241.957 344.258> 515.513 239.487<395.048 575.04>
LayerCount: 2
Fore
SplineSet
548 440.93359375 m 1xf9
 855 440.93359375 l 1
 855 344.93359375 l 1
 548 344.93359375 l 1
 548 440.93359375 l 1xf9
15 442 m 1
 352 442 l 1
 352 346 l 1
 15 346 l 1
 15 442 l 1
548 590.93359375 m 5
 855 590.93359375 l 5
 855 494.93359375 l 5
 548 494.93359375 l 5
 548 590.93359375 l 5
15 592 m 5
 352 592 l 5
 352 496 l 5
 15 496 l 5
 15 592 l 5
EndSplineSet
Refer: 12 80 N 1 0 0 1 70 0 2
EndChar

StartChar: dong
Encoding: 8363 8363 246
Width: 627
Flags: W
HStem: 0 96<15 572> 139.925 96.3506<171.278 341.519> 454.574 86.3506<171.278 341.519> 580 76<255 612> 731.002 20G<343 541>
VStem: 31 194.487<262.572 426.533> 343 198<149.991 751.002> 376.513 79.4873<250.288 439.915>
LayerCount: 2
Fore
SplineSet
255 656 m 1xfc
 612 656 l 1
 612 580 l 1
 255 580 l 1
 255 656 l 1xfc
541 149.991210938 m 1xfe
 343 149.991210938 l 1
 343 751.001953125 l 1
 541 751.001953125 l 1
 541 149.991210938 l 1xfe
376.512695312 351.154296875 m 0xfd
 376.512695312 414.737753957 353.983624675 454.57421875 303.302734375 454.57421875 c 0
 250.160371685 454.57421875 225.487304688 410.885119634 225.487304688 341.154296875 c 4
 225.487304688 276.685836249 250.160371685 236.275390625 303.302734375 236.275390625 c 0
 353.983624675 236.275390625 376.512695312 280.539420676 376.512695312 351.154296875 c 0xfd
456 345.924804688 m 0
 456 220.036500941 369.277652404 139.924804688 233 139.924804688 c 0
 109.555898031 139.924804688 31 216.146791911 31 335.924804688 c 0
 31 461.202816612 109.555898031 540.924804688 233 540.924804688 c 0
 369.277652404 540.924804688 456 465.091471354 456 345.924804688 c 0
15 96 m 1
 572 96 l 1
 572 0 l 1
 15 0 l 1
 15 96 l 1
EndSplineSet
EndChar

StartChar: peseta
Encoding: 8359 8359 247
Width: 870
Flags: W
HStem: 0 21G<110 368> 241.957 102.301<298 464.727> 436 96<15 236 604 855> 624.69 106.307<368 459.281>
VStem: 110 258<0 241.957 344.258 624.69> 298 70<241.957 344.258> 515.513 239.487<395.048 575.04>
LayerCount: 2
Fore
SplineSet
604 532 m 1xf2
 855 532 l 1
 855 436 l 1
 604 436 l 1
 604 532 l 1xf2
236 532 m 1
 236 436 l 1
 15 436 l 1
 15 532 l 1
 236 532 l 1
EndSplineSet
Refer: 12 80 N 1 0 0 1 70 0 2
EndChar

StartChar: uni20BE
Encoding: 8382 8382 248
Width: 811
Flags: W
HStem: 0 106<15 157.934 428.835 786> 604.583 134.351<312.5 512.2>
VStem: 25 299.487<256.265 497.607> 376 98<738.934 841.008> 516 98<437 841.008>
LayerCount: 2
Fore
SplineSet
614 437 m 1
 516 437 l 1
 516 841.0078125 l 1
 614 841.0078125 l 1
 614 437 l 1
474 437 m 1
 376 437 l 1
 376 841.0078125 l 1
 474 841.0078125 l 1
 474 437 l 1
796.366210938 459.19140625 m 5
 666.9375 428.067382812 l 5
 666.9375 428.067382812 659.452581883 604.583007812 496.697265625 604.583007812 c 0
 377.482995163 604.583007812 324.487304688 511.000413281 324.487304688 361.704101562 c 0
 324.487304688 204.495579736 385.269628827 106 522 106 c 2
 786 106 l 5
 786 0 l 5
 15 0 l 1
 15 106 l 1
 157.93359375 106 l 1
 157.93359375 106 25 188.235733146 25 381.93359375 c 0
 25 600.100054915 185.999387985 738.93359375 439 738.93359375 c 0
 778.84733744 738.93359375 796.366210938 459.19140625 796.366210938 459.19140625 c 5
EndSplineSet
EndChar

StartChar: colonmonetary
Encoding: 8353 8353 249
Width: 690
Flags: W
HStem: -110 170<182.132 250.156 352.132 420.156> -10.0664 129.351<290.462 553.317> 609.583 129.351<290.462 552.007> 657 184.008<319.844 385.398 489.844 555.398>
VStem: 25 299.487<224.799 501.298>
LayerCount: 2
Fore
SplineSet
450.131835938 60 m 5x88
 420.15625 -110 l 5
 322.15625 -110 l 5
 352.131835938 60 l 5
 450.131835938 60 l 5x88
555.3984375 657 m 5x18
 457.3984375 657 l 5
 489.84375 841.0078125 l 5
 587.84375 841.0078125 l 5
 555.3984375 657 l 5x18
280.131835938 60 m 5x88
 250.15625 -110 l 5
 152.15625 -110 l 5
 182.131835938 60 l 5
 280.131835938 60 l 5x88
385.3984375 657 m 5x18
 287.3984375 657 l 5
 319.84375 841.0078125 l 5
 417.84375 841.0078125 l 5
 385.3984375 657 l 5x18
EndSplineSet
Refer: 20 67 N 1 0 0 1 0 0 2
EndChar

StartChar: uni2011
Encoding: 8209 8209 250
Width: 347
Flags: W
HStem: 216 96<15 332>
VStem: 15 317<216 312>
LayerCount: 2
Fore
SplineSet
15 216 m 1
 15 312 l 1
 332 312 l 1
 332 216 l 1
 15 216 l 1
EndSplineSet
EndChar

StartChar: endash
Encoding: 8211 8211 251
Width: 547
Flags: W
HStem: 216 96<15 532>
LayerCount: 2
Fore
SplineSet
15 216 m 1
 15 312 l 1
 532 312 l 5
 532 216 l 5
 15 216 l 1
EndSplineSet
EndChar

StartChar: emdash
Encoding: 8212 8212 252
Width: 777
Flags: W
HStem: 216 96<15 762>
LayerCount: 2
Fore
SplineSet
15 216 m 1
 15 312 l 1
 762 312 l 5
 762 216 l 5
 15 216 l 1
EndSplineSet
EndChar

StartChar: minute
Encoding: 8242 8242 253
Width: 241
Flags: W
HStem: 506 255<63 115>
VStem: 1 239
LayerCount: 2
Fore
SplineSet
63 761 m 1
 240 761 l 5
 115 506 l 5
 1 506 l 1
 63 761 l 1
EndSplineSet
EndChar

StartChar: uni2E3A
Encoding: 11834 11834 257
Width: 967
Flags: W
HStem: 216 96<15 952>
LayerCount: 2
Fore
SplineSet
15 312 m 1
 952 312 l 5
 952 216 l 5
 15 216 l 1
 15 312 l 1
EndSplineSet
EndChar

StartChar: uni2E3B
Encoding: 11835 11835 258
Width: 1147
Flags: W
HStem: 216 96<15 1132>
LayerCount: 2
Fore
SplineSet
15 312 m 1
 1132 312 l 5
 1132 216 l 5
 15 216 l 1
 15 312 l 1
EndSplineSet
EndChar

StartChar: radical
Encoding: 8730 8730 259
Width: 1001
Flags: W
HStem: 0 21G<306.121 510.813> 609.994 151.008<722.06 986.652>
LayerCount: 2
Fore
SplineSet
154.916015625 337.28515625 m 1
 33.833984375 296.854492188 l 1
 1 387.065429688 l 1
 336.470703125 509.166992188 l 1
 458.231445312 240.521484375 l 1
 646.65234375 761.001953125 l 1
 986.65234375 760.994140625 l 1
 986.65234375 609.994140625 l 1
 722.059570312 609.994140625 l 1
 503.65234375 0 l 5
 315.65234375 0 l 1
 154.916015625 337.28515625 l 1
EndSplineSet
EndChar

StartChar: infinity
Encoding: 8734 8734 260
Width: 730
Flags: W
HStem: 192.314 95.2314<463.143 580.072> 195.252 140.367<146.123 246.737> 398.271 140.367<483.534 584.149> 446.345 95.2314<150.021 266.736>
VStem: 25 111.082<346.005 432.666> 594.189 111.082<301.656 387.885>
LayerCount: 2
Fore
SplineSet
418.283203125 314.134765625 m 0xac
 320.173828125 216.170898438 264.30078125 195.251953125 190.342773438 195.251953125 c 0
 90.3789509492 195.251953125 25 260.638671875 25 365.189453125 c 0
 25 478.455078125 91.6566788049 541.576171875 192.154296875 541.576171875 c 0
 318.608398438 541.576171875 377.793945312 438.961914062 377.793945312 438.961914062 c 1
 325.965820312 361.956054688 l 1
 325.965820312 361.956054688 280.725585938 446.344726562 200.811523438 446.344726562 c 0
 165.64453125 446.344726562 136.08203125 424.979492188 136.08203125 390.842773438 c 0
 136.08203125 358.197265625 157.206054688 335.619140625 193.029296875 335.619140625 c 0x5c
 234.5625 335.619140625 255.482421875 363.333007812 311.98828125 419.755859375 c 0
 410.09765625 517.719726562 465.970703125 538.638671875 539.928710938 538.638671875 c 0
 639.892578125 538.638671875 705.271484375 473.251953125 705.271484375 368.701171875 c 0
 705.271484375 255.435546875 638.615234375 192.314453125 538.1171875 192.314453125 c 0
 411.663085938 192.314453125 352.477539062 294.928710938 352.477539062 294.928710938 c 1
 404.305664062 371.934570312 l 1
 404.305664062 371.934570312 448.49609375 287.545898438 528.41015625 287.545898438 c 0
 563.576171875 287.545898438 594.189453125 308.911132812 594.189453125 343.047851562 c 0
 594.189453125 375.693359375 573.065429688 398.271484375 537.2421875 398.271484375 c 0
 495.708984375 398.271484375 474.7890625 370.557617188 418.283203125 314.134765625 c 0xac
EndSplineSet
EndChar

StartChar: pi
Encoding: 960 960 261
Width: 771
Flags: W
HStem: 0 86.9941<663.496 744> 415.011 96<15 120 338 418 630 756> 415.011 56<120 338 418 630>
VStem: 120 218<92.5002 471.011> 418 212<143.475 470.994>
LayerCount: 2
Fore
SplineSet
82 0 m 5xb8
 82 0 120 176.727154841 120 324 c 2
 120 471.010742188 l 1
 338 471.010742188 l 1
 338 350 l 2
 338 130.000542535 300 0 300 0 c 5
 82 0 l 5xb8
15 511.010742188 m 1xd8
 756 511.010742188 l 1
 756 415.010742188 l 1
 15 415.010742188 l 1
 15 511.010742188 l 1xd8
630 200.994140625 m 2
 630 129.862304688 655.251953125 86.994140625 744 86.994140625 c 1
 744 0 l 1
 566.857421875 0 418 26.0654296875 418 278.994140625 c 2
 418 470.994140625 l 1
 630 470.994140625 l 1
 630 200.994140625 l 2
EndSplineSet
EndChar

StartChar: uni01B7
Encoding: 439 439 262
Width: 632
Flags: W
HStem: -9.99805 117.938<126.777 312.652> 620 111<40 323.478>
VStem: 347.376 260.084<142.456 285.98>
LayerCount: 2
Fore
SplineSet
118.548828125 332 m 1
 118.548828125 405 l 1
 323.477539062 620 l 1
 40 620 l 1
 40 731 l 1
 585 731 l 1
 585 658 l 1
 373.711914062 435.697265625 l 1
 373.711914062 435.697265625 607.459960938 434.023389347 607.459960938 221 c 0
 607.459960938 66.2761004588 478.692875595 -9.998046875 304.548828125 -9.998046875 c 0
 125.313218669 -9.998046875 10 53.9091796875 10 53.9091796875 c 1
 49.3232421875 163.262695312 l 1
 49.3232421875 163.262695312 123.655763031 107.939453125 232.548828125 107.939453125 c 0
 308.097068131 107.939453125 347.375976562 141.628224904 347.375976562 214 c 0
 347.375976562 283.209663932 312.806690568 331.457228376 202.6875 331.737304688 c 2
 118.548828125 332 l 1
EndSplineSet
EndChar

StartChar: uni0292
Encoding: 658 658 263
Width: 557
Flags: W
HStem: -189.994 117.938<94.2538 285.329>
VStem: 322.376 210.084<-37.6717 92.1424>
LayerCount: 2
Fore
SplineSet
340.071289062 218.00390625 m 1
 515 438.010742188 l 1
 515 511.010742188 l 1
 40 511.010742188 l 1
 40 405.010742188 l 1
 263.477539062 405.010742188 l 1
 98.548828125 205.00390625 l 1
 98.548828125 132.00390625 l 1
 182.6875 131.741210938 l 2
 289.001667717 131.438722809 322.375976562 89.3961018211 322.375976562 29.00390625 c 0
 322.375976562 -39.956054688 281.38671875 -72.056640625 202.548828125 -72.056640625 c 0
 111.485106767 -72.056640625 49.3232421875 -26.7333984375 49.3232421875 -26.7333984375 c 1
 10 -136.086914062 l 1
 10 -136.086914062 101.823757977 -189.994140625 244.548828125 -189.994140625 c 0
 410.069353944 -189.994140625 532.459960938 -115.363426835 532.459960938 34 c 0
 532.459960938 202.905823764 340.071289062 218.00390625 340.071289062 218.00390625 c 1
EndSplineSet
EndChar

StartChar: Lslash
Encoding: 321 321 264
Width: 652
Flags: W
HStem: 0 106<360 637> 711 20G<102 360>
VStem: 102 258<106 731>
LayerCount: 2
Fore
SplineSet
1 308 m 5
 498 528 l 5
 530 450 l 5
 33 230 l 5
 1 308 l 5
EndSplineSet
Refer: 4 76 N 1 0 0 1 62 0 2
EndChar

StartChar: lslash
Encoding: 322 322 265
Width: 445
Flags: W
HStem: 0 21G<108.5 336.5> 731.011 20G<108.5 336.5>
VStem: 108.5 228<0 751.011>
LayerCount: 2
Fore
SplineSet
1 308 m 1
 408 528 l 1
 444 455 l 1
 37 235 l 1
 1 308 l 1
EndSplineSet
Refer: 52 108 S 1 0 0 1 68.5 0 2
EndChar
